<?xml version="1.0" encoding="utf-8"?>
<!-- Generator: Adobe Illustrator 15.0.0, SVG Export Plug-In . SVG Version: 6.00 Build 0)  -->
<!DOCTYPE svg PUBLIC "-//W3C//DTD SVG 1.1//EN" "http://www.w3.org/Graphics/SVG/1.1/DTD/svg11.dtd">
<svg version="1.1" id="Layer_1" xmlns="http://www.w3.org/2000/svg" xmlns:xlink="http://www.w3.org/1999/xlink" x="0px" y="0px"
	 width="392.747px" height="125.389px" viewBox="10.554 1.961 392.747 125.389"
	 enable-background="new 10.554 1.961 392.747 125.389" xml:space="preserve">
<g id="NiagadsGenomicsDBLogo">
	<g>
		<path fill="#3D5263" d="M70.046,126.606H52.95L25.695,77.052h-0.496c0.496,8.673,0.743,14.866,0.743,18.831v30.725H14.049V61.194
			h16.849l27.255,48.812h0.248c-0.496-8.425-0.743-14.371-0.743-18.088V61.194h11.893C70.046,61.194,70.046,126.606,70.046,126.606z
			 M85.904,126.606V61.194h13.379v65.412H85.904z M153.546,126.606l-4.46-15.609h-23.043l-4.708,15.609h-14.37l22.299-65.66h16.354
			l22.3,65.66H153.546z M145.865,99.352c-4.213-14.123-6.69-22.053-7.186-23.786c-0.496-1.734-0.991-3.223-1.239-4.46
			c-0.991,3.717-3.717,13.132-8.177,28.246H145.865L145.865,99.352z M199.879,89.688h25.024v33.696
			c-3.964,1.238-7.929,2.229-11.397,2.974c-3.717,0.496-7.186,0.743-10.901,0.743c-9.415,0-16.849-2.974-21.804-8.672
			c-4.955-5.946-7.434-14.123-7.434-25.024c0-10.654,2.974-18.831,8.673-24.53c5.946-5.945,13.875-8.92,24.281-8.92
			c6.442,0,12.637,1.239,18.831,3.965l-4.46,11.149c-4.708-2.479-9.415-3.716-14.371-3.716c-5.697,0-10.406,1.98-13.875,5.945
			c-3.469,3.965-5.203,9.415-5.203,16.354c0,7.186,1.486,12.389,4.212,16.354c2.726,3.718,6.938,5.698,12.141,5.698
			c2.726,0,5.699-0.247,8.425-0.991v-13.627h-11.894L199.879,89.688L199.879,89.688z"/>
		<path fill="#3D5263" d="M278.424,126.606l-4.461-15.609H250.92l-4.459,15.609H232.09l22.3-65.66h16.353l22.301,65.66H278.424z
			 M270.743,99.352c-4.213-14.123-6.689-22.053-7.187-23.786c-0.495-1.734-0.99-3.223-1.238-4.46
			c-0.991,3.717-3.717,13.132-8.177,28.246H270.743L270.743,99.352z M353.002,93.157c0,10.654-2.973,18.831-8.92,24.777
			c-5.945,5.697-14.369,8.672-25.521,8.672h-17.839V61.194h19.821c10.406,0,18.336,2.726,24.035,8.424
			C350.278,75.317,353.002,82.998,353.002,93.157L353.002,93.157z M339.127,93.652c0-13.875-5.945-21.062-17.84-21.062h-7.186
			v42.617h5.699C332.686,114.961,339.127,107.775,339.127,93.652z"/>
		<path fill="#3D5263" d="M403.301,108.271c0,5.945-1.98,10.653-6.193,13.875c-3.965,3.469-9.91,5.203-17.098,5.203
			c-6.689,0-12.637-1.238-17.84-3.965V110.5c4.213,1.982,7.93,3.469,10.902,4.212c2.973,0.744,5.699,1.239,8.176,1.239
			c2.975,0,5.205-0.495,6.691-1.734c1.484-1.238,2.229-2.974,2.229-5.202c0-1.239-0.248-2.479-0.992-3.47
			c-0.742-0.99-1.732-1.981-2.973-2.974c-1.238-0.991-3.965-2.479-8.176-4.46c-3.719-1.734-6.689-3.717-8.672-5.451
			c-1.984-1.734-3.471-3.716-4.709-5.946c-1.238-2.229-1.734-4.955-1.734-7.929c0-5.698,1.982-10.406,5.699-13.628
			c3.717-3.221,8.92-4.955,15.609-4.955c3.221,0,6.441,0.496,9.414,1.239c2.975,0.743,6.195,1.98,9.416,3.469l-4.211,10.901
			c-3.469-1.486-6.193-2.479-8.426-2.974c-2.229-0.496-4.459-0.99-6.441-0.99c-2.479,0-4.461,0.742-5.945,1.733
			c-1.24,1.239-1.982,2.727-1.982,4.708c0,1.238,0.248,2.229,0.742,3.221c0.496,0.991,1.488,1.734,2.727,2.727
			c1.238,0.991,3.965,2.478,8.426,4.46c5.945,2.973,9.91,5.946,12.141,8.672C402.311,100.59,403.301,104.06,403.301,108.271
			L403.301,108.271z"/>
	</g>
</g>
<g id="Layer_2">
	<g enable-background="new    ">
		<path fill="#F1B154" d="M12.855,56.961l11.285,1.371c0.188,1.313,0.621,2.215,1.301,2.707c0.937,0.703,2.414,1.055,4.43,1.055
			c2.578,0,4.512-0.387,5.801-1.16c0.867-0.516,1.523-1.348,1.969-2.496c0.304-0.82,0.457-2.332,0.457-4.535v-5.449
			c-2.953,4.031-6.68,6.047-11.18,6.047c-5.016,0-8.988-2.121-11.918-6.363c-2.297-3.352-3.445-7.523-3.445-12.516
			c0-6.258,1.506-11.039,4.518-14.344c3.011-3.305,6.755-4.957,11.232-4.957c4.617,0,8.425,2.027,11.426,6.082v-5.238h9.246v33.504
			c0,4.406-0.364,7.699-1.09,9.879c-0.727,2.18-1.746,3.891-3.059,5.133c-1.313,1.242-3.064,2.215-5.256,2.918
			c-2.192,0.703-4.963,1.055-8.314,1.055c-6.328,0-10.816-1.084-13.465-3.252c-2.649-2.168-3.973-4.916-3.973-8.244
			C12.82,57.828,12.832,57.429,12.855,56.961z M21.679,35.058c0,3.961,0.768,6.861,2.303,8.701c1.535,1.84,3.428,2.76,5.678,2.76
			c2.414,0,4.453-0.943,6.117-2.83c1.664-1.887,2.496-4.682,2.496-8.385c0-3.867-0.797-6.738-2.391-8.613
			c-1.594-1.875-3.609-2.813-6.047-2.813c-2.368,0-4.319,0.92-5.854,2.76C22.447,28.478,21.679,31.285,21.679,35.058z"/>
		<path fill="#F1B154" d="M78.65,42.617l9.844,1.652c-1.266,3.609-3.264,6.357-5.994,8.244c-2.73,1.887-6.147,2.83-10.248,2.83
			c-6.492,0-11.297-2.121-14.414-6.363c-2.461-3.398-3.691-7.688-3.691-12.867c0-6.188,1.617-11.033,4.852-14.537
			s7.324-5.256,12.27-5.256c5.555,0,9.937,1.834,13.148,5.502c3.211,3.668,4.746,9.287,4.605,16.857h-24.75
			c0.07,2.93,0.867,5.209,2.391,6.838c1.523,1.629,3.422,2.443,5.695,2.443c1.547,0,2.848-0.422,3.902-1.266
			S78.111,44.492,78.65,42.617z M79.213,32.633c-0.07-2.859-0.809-5.033-2.215-6.521s-3.117-2.232-5.133-2.232
			c-2.157,0-3.938,0.785-5.344,2.355s-2.098,3.703-2.074,6.398H79.213z"/>
		<path fill="#F1B154" d="M130.313,54.5h-9.879V35.445c0-4.031-0.211-6.639-0.633-7.822s-1.107-2.104-2.057-2.76
			s-2.092-0.984-3.428-0.984c-1.711,0-3.247,0.469-4.605,1.406c-1.359,0.938-2.291,2.18-2.795,3.727
			c-0.504,1.547-0.756,4.406-0.756,8.578V54.5h-9.879V17.164h9.176v5.484c3.257-4.219,7.359-6.328,12.305-6.328
			c2.18,0,4.171,0.393,5.977,1.178c1.805,0.785,3.169,1.787,4.096,3.006c0.926,1.219,1.57,2.602,1.934,4.148
			c0.363,1.547,0.545,3.762,0.545,6.645V54.5z"/>
		<path fill="#F1B154" d="M137.328,35.304c0-3.281,0.809-6.457,2.426-9.527s3.908-5.414,6.873-7.031
			c2.965-1.617,6.275-2.426,9.932-2.426c5.648,0,10.277,1.834,13.887,5.502c3.609,3.668,5.414,8.303,5.414,13.904
			c0,5.648-1.823,10.33-5.467,14.045c-3.645,3.715-8.232,5.572-13.764,5.572c-3.422,0-6.686-0.773-9.791-2.32
			c-3.106-1.547-5.467-3.814-7.084-6.803S137.328,39.594,137.328,35.304z M147.453,35.832c0,3.703,0.879,6.539,2.637,8.508
			s3.925,2.953,6.504,2.953c2.578,0,4.74-0.984,6.486-2.953c1.746-1.969,2.619-4.828,2.619-8.578c0-3.656-0.874-6.469-2.619-8.438
			c-1.746-1.969-3.908-2.953-6.486-2.953c-2.579,0-4.746,0.984-6.504,2.953S147.453,32.129,147.453,35.832z"/>
		<path fill="#F1B154" d="M182.135,17.164h9.105v5.098c3.257-3.961,7.137-5.941,11.637-5.941c2.391,0,4.465,0.492,6.223,1.477
			s3.199,2.473,4.324,4.465c1.641-1.992,3.41-3.48,5.309-4.465s3.926-1.477,6.082-1.477c2.742,0,5.063,0.557,6.961,1.67
			s3.316,2.748,4.254,4.904c0.68,1.594,1.02,4.172,1.02,7.734V54.5h-9.879V33.16c0-3.703-0.34-6.094-1.02-7.172
			c-0.914-1.406-2.32-2.109-4.219-2.109c-1.383,0-2.684,0.422-3.902,1.266s-2.098,2.08-2.637,3.709s-0.809,4.201-0.809,7.717V54.5
			h-9.879V34.039c0-3.633-0.176-5.977-0.527-7.031s-0.896-1.84-1.635-2.355s-1.74-0.773-3.006-0.773c-1.523,0-2.895,0.41-4.113,1.23
			c-1.219,0.82-2.092,2.004-2.619,3.551s-0.791,4.113-0.791,7.699V54.5h-9.879V17.164z"/>
		<path fill="#F1B154" d="M246.172,12.101V2.961h9.879v9.141H246.172z M246.172,54.5V17.164h9.879V54.5H246.172z"/>
		<path fill="#F1B154" d="M298.012,28.203l-9.738,1.758c-0.329-1.945-1.072-3.41-2.232-4.395s-2.667-1.477-4.518-1.477
			c-2.461,0-4.425,0.85-5.889,2.549c-1.465,1.699-2.197,4.541-2.197,8.525c0,4.43,0.743,7.559,2.232,9.387
			c1.488,1.828,3.485,2.742,5.994,2.742c1.875,0,3.41-0.533,4.605-1.6s2.039-2.9,2.531-5.502l9.703,1.652
			c-1.008,4.453-2.941,7.816-5.801,10.09c-2.86,2.273-6.692,3.41-11.496,3.41c-5.462,0-9.814-1.723-13.061-5.168
			c-3.247-3.445-4.869-8.215-4.869-14.309c0-6.164,1.629-10.963,4.887-14.396c3.257-3.434,7.664-5.15,13.219-5.15
			c4.547,0,8.161,0.979,10.846,2.936C294.913,21.213,296.839,24.195,298.012,28.203z"/>
		<path fill="#F1B154" d="M301.299,43.847l9.914-1.512c0.422,1.922,1.277,3.381,2.566,4.377s3.094,1.494,5.414,1.494
			c2.555,0,4.477-0.469,5.766-1.406c0.867-0.656,1.301-1.535,1.301-2.637c0-0.75-0.234-1.371-0.703-1.863
			c-0.492-0.469-1.594-0.902-3.305-1.301c-7.969-1.758-13.02-3.363-15.152-4.816c-2.953-2.016-4.43-4.816-4.43-8.402
			c0-3.234,1.277-5.953,3.832-8.156s6.516-3.305,11.883-3.305c5.109,0,8.906,0.832,11.391,2.496s4.195,4.125,5.133,7.383
			l-9.316,1.723c-0.398-1.453-1.154-2.566-2.268-3.34s-2.701-1.16-4.764-1.16c-2.602,0-4.465,0.363-5.59,1.09
			c-0.75,0.516-1.125,1.184-1.125,2.004c0,0.703,0.328,1.301,0.984,1.793c0.891,0.656,3.967,1.582,9.229,2.777
			s8.936,2.66,11.021,4.395c2.063,1.758,3.094,4.207,3.094,7.348c0,3.422-1.43,6.363-4.289,8.824s-7.09,3.691-12.691,3.691
			c-5.086,0-9.111-1.031-12.076-3.094S302.213,47.386,301.299,43.847z"/>
	</g>
	<g enable-background="new    ">
		<path fill="none" stroke="#3D5263" stroke-width="2" stroke-miterlimit="10" d="M12.855,56.961l11.285,1.371
			c0.188,1.313,0.621,2.215,1.301,2.707c0.937,0.703,2.414,1.055,4.43,1.055c2.578,0,4.512-0.387,5.801-1.16
			c0.867-0.516,1.523-1.348,1.969-2.496c0.304-0.82,0.457-2.332,0.457-4.535v-5.449c-2.953,4.031-6.68,6.047-11.18,6.047
			c-5.016,0-8.988-2.121-11.918-6.363c-2.297-3.352-3.445-7.523-3.445-12.516c0-6.258,1.506-11.039,4.518-14.344
			c3.011-3.305,6.755-4.957,11.232-4.957c4.617,0,8.425,2.027,11.426,6.082v-5.238h9.246v33.504c0,4.406-0.364,7.699-1.09,9.879
			c-0.727,2.18-1.746,3.891-3.059,5.133c-1.313,1.242-3.064,2.215-5.256,2.918c-2.192,0.703-4.963,1.055-8.314,1.055
			c-6.328,0-10.816-1.084-13.465-3.252c-2.649-2.168-3.973-4.916-3.973-8.244C12.82,57.828,12.832,57.429,12.855,56.961z
			 M21.679,35.058c0,3.961,0.768,6.861,2.303,8.701c1.535,1.84,3.428,2.76,5.678,2.76c2.414,0,4.453-0.943,6.117-2.83
			c1.664-1.887,2.496-4.682,2.496-8.385c0-3.867-0.797-6.738-2.391-8.613c-1.594-1.875-3.609-2.813-6.047-2.813
			c-2.368,0-4.319,0.92-5.854,2.76C22.447,28.478,21.679,31.285,21.679,35.058z"/>
		<path fill="none" stroke="#3D5263" stroke-width="2" stroke-miterlimit="10" d="M78.65,42.617l9.844,1.652
			c-1.266,3.609-3.264,6.357-5.994,8.244c-2.73,1.887-6.147,2.83-10.248,2.83c-6.492,0-11.297-2.121-14.414-6.363
			c-2.461-3.398-3.691-7.688-3.691-12.867c0-6.188,1.617-11.033,4.852-14.537s7.324-5.256,12.27-5.256
			c5.555,0,9.937,1.834,13.148,5.502c3.211,3.668,4.746,9.287,4.605,16.857h-24.75c0.07,2.93,0.867,5.209,2.391,6.838
			c1.523,1.629,3.422,2.443,5.695,2.443c1.547,0,2.848-0.422,3.902-1.266S78.111,44.492,78.65,42.617z M79.213,32.633
			c-0.07-2.859-0.809-5.033-2.215-6.521s-3.117-2.232-5.133-2.232c-2.157,0-3.938,0.785-5.344,2.355s-2.098,3.703-2.074,6.398
			H79.213z"/>
		<path fill="none" stroke="#3D5263" stroke-width="2" stroke-miterlimit="10" d="M130.313,54.5h-9.879V35.445
			c0-4.031-0.211-6.639-0.633-7.822s-1.107-2.104-2.057-2.76s-2.092-0.984-3.428-0.984c-1.711,0-3.247,0.469-4.605,1.406
			c-1.359,0.938-2.291,2.18-2.795,3.727c-0.504,1.547-0.756,4.406-0.756,8.578V54.5h-9.879V17.164h9.176v5.484
			c3.257-4.219,7.359-6.328,12.305-6.328c2.18,0,4.171,0.393,5.977,1.178c1.805,0.785,3.169,1.787,4.096,3.006
			c0.926,1.219,1.57,2.602,1.934,4.148c0.363,1.547,0.545,3.762,0.545,6.645V54.5z"/>
		<path fill="none" stroke="#3D5263" stroke-width="2" stroke-miterlimit="10" d="M137.328,35.304c0-3.281,0.809-6.457,2.426-9.527
			s3.908-5.414,6.873-7.031c2.965-1.617,6.275-2.426,9.932-2.426c5.648,0,10.277,1.834,13.887,5.502
			c3.609,3.668,5.414,8.303,5.414,13.904c0,5.648-1.823,10.33-5.467,14.045c-3.645,3.715-8.232,5.572-13.764,5.572
			c-3.422,0-6.686-0.773-9.791-2.32c-3.106-1.547-5.467-3.814-7.084-6.803S137.328,39.594,137.328,35.304z M147.453,35.832
			c0,3.703,0.879,6.539,2.637,8.508s3.925,2.953,6.504,2.953c2.578,0,4.74-0.984,6.486-2.953c1.746-1.969,2.619-4.828,2.619-8.578
			c0-3.656-0.874-6.469-2.619-8.438c-1.746-1.969-3.908-2.953-6.486-2.953c-2.579,0-4.746,0.984-6.504,2.953
			S147.453,32.129,147.453,35.832z"/>
		<path fill="none" stroke="#3D5263" stroke-width="2" stroke-miterlimit="10" d="M182.135,17.164h9.105v5.098
			c3.257-3.961,7.137-5.941,11.637-5.941c2.391,0,4.465,0.492,6.223,1.477s3.199,2.473,4.324,4.465
			c1.641-1.992,3.41-3.48,5.309-4.465s3.926-1.477,6.082-1.477c2.742,0,5.063,0.557,6.961,1.67s3.316,2.748,4.254,4.904
			c0.68,1.594,1.02,4.172,1.02,7.734V54.5h-9.879V33.16c0-3.703-0.34-6.094-1.02-7.172c-0.914-1.406-2.32-2.109-4.219-2.109
			c-1.383,0-2.684,0.422-3.902,1.266s-2.098,2.08-2.637,3.709s-0.809,4.201-0.809,7.717V54.5h-9.879V34.039
			c0-3.633-0.176-5.977-0.527-7.031s-0.896-1.84-1.635-2.355s-1.74-0.773-3.006-0.773c-1.523,0-2.895,0.41-4.113,1.23
			c-1.219,0.82-2.092,2.004-2.619,3.551s-0.791,4.113-0.791,7.699V54.5h-9.879V17.164z"/>
		<path fill="none" stroke="#3D5263" stroke-width="2" stroke-miterlimit="10" d="M246.172,12.101V2.961h9.879v9.141H246.172z
			 M246.172,54.5V17.164h9.879V54.5H246.172z"/>
		<path fill="none" stroke="#3D5263" stroke-width="2" stroke-miterlimit="10" d="M298.012,28.203l-9.738,1.758
			c-0.329-1.945-1.072-3.41-2.232-4.395s-2.667-1.477-4.518-1.477c-2.461,0-4.425,0.85-5.889,2.549
			c-1.465,1.699-2.197,4.541-2.197,8.525c0,4.43,0.743,7.559,2.232,9.387c1.488,1.828,3.485,2.742,5.994,2.742
			c1.875,0,3.41-0.533,4.605-1.6s2.039-2.9,2.531-5.502l9.703,1.652c-1.008,4.453-2.941,7.816-5.801,10.09
			c-2.86,2.273-6.692,3.41-11.496,3.41c-5.462,0-9.814-1.723-13.061-5.168c-3.247-3.445-4.869-8.215-4.869-14.309
			c0-6.164,1.629-10.963,4.887-14.396c3.257-3.434,7.664-5.15,13.219-5.15c4.547,0,8.161,0.979,10.846,2.936
			C294.913,21.213,296.839,24.195,298.012,28.203z"/>
		<path fill="none" stroke="#3D5263" stroke-width="2" stroke-miterlimit="10" d="M301.299,43.847l9.914-1.512
			c0.422,1.922,1.277,3.381,2.566,4.377s3.094,1.494,5.414,1.494c2.555,0,4.477-0.469,5.766-1.406
			c0.867-0.656,1.301-1.535,1.301-2.637c0-0.75-0.234-1.371-0.703-1.863c-0.492-0.469-1.594-0.902-3.305-1.301
			c-7.969-1.758-13.02-3.363-15.152-4.816c-2.953-2.016-4.43-4.816-4.43-8.402c0-3.234,1.277-5.953,3.832-8.156
			s6.516-3.305,11.883-3.305c5.109,0,8.906,0.832,11.391,2.496s4.195,4.125,5.133,7.383l-9.316,1.723
			c-0.398-1.453-1.154-2.566-2.268-3.34s-2.701-1.16-4.764-1.16c-2.602,0-4.465,0.363-5.59,1.09
			c-0.75,0.516-1.125,1.184-1.125,2.004c0,0.703,0.328,1.301,0.984,1.793c0.891,0.656,3.967,1.582,9.229,2.777
			s8.936,2.66,11.021,4.395c2.063,1.758,3.094,4.207,3.094,7.348c0,3.422-1.43,6.363-4.289,8.824s-7.09,3.691-12.691,3.691
			c-5.086,0-9.111-1.031-12.076-3.094S302.213,47.386,301.299,43.847z"/>
	</g>
</g>
<g id="Layer_3">
</g>
</svg>
