<svg xmlns="http://www.w3.org/2000/svg" viewBox="0 0 161 100" width="161" height="100"><style>.adsp-gray{fill:#606060}</style><g><path class="adsp-gray" d="M82.7 64.9c.1.6.2 1.1.2 1.7-.8.1-1.6.3-2.4.4-3.3.5-6.6 1.1-9.9 2-.3.1-.5.2-.8 0-.3-.2-.4-.4-.4-.8v-2.9-.7c-.3.2-.5.3-.6.5-2 1.6-4.1 2.9-6.6 3.6-1.9.6-3.9.9-6 .8-5.7-.5-10.1-3.3-12.8-8.5-1.3-2.5-1.9-5.1-2-7.9-.1-2.9.3-5.6 1.3-8.3 2-4.9 5.5-8.5 10.2-10.9 2.3-1.2 4.8-1.9 7.4-2.2 1.9-.2 3.7-.2 5.6.1 1.1.1 2.3.3 3.5.5v-.5-20.9c0-.6-.1-1.2-.1-1.8-.1-1.1-.7-1.9-1.7-2.3-.9-.3-1.8-.5-2.7-.7-.7-.2-1.4-.3-2.2-.4-.1-.5-.1-1.1-.2-1.7.8-.1 1.5-.3 2.2-.4 3.7-.7 7.5-1.4 11.1-2.4.7-.2 1 .1 1 .8-.4 3.8-.5 7.7-.7 11.5v45.3c0 1 .1 1.9.1 2.9.1 1.3.7 2.2 2 2.5.9.3 1.8.4 2.7.6.6 0 1.2 0 1.8.1zM69.5 50.1v-11c0-.4-.1-.8-.4-1.1-.6-.5-1.2-1.1-1.9-1.5-2.1-1.3-4.4-1.9-6.9-1.8-2.4 0-4.5.8-6.4 2.3-2.1 1.7-3.4 3.9-4.1 6.5-.9 2.8-1.1 5.8-.7 8.7.3 2.3.9 4.4 2 6.4 1.5 2.7 3.7 4.6 6.7 5.5 1.8.6 3.5.6 5.4.4 2.2-.3 4.1-1.1 5.9-2.3.4-.3.5-.6.5-1.1-.1-3.7-.1-7.4-.1-11zM139.5 93.8v2.1h-21.2c-.1-.6-.1-1.2-.2-1.8 1-.2 1.8-.3 2.7-.5.1 0 .2 0 .2-.1 2.2-.6 3.1-1.7 3.3-3.9.1-1 .1-2 .2-2.9V42.2c0-.8-.1-1.5-.1-2.3-.1-1.2-.8-2-1.9-2.4-.9-.3-1.8-.5-2.8-.7-.5-.1-1-.2-1.6-.3-.1-.5-.1-1.1-.2-1.7.6-.1 1.2-.3 1.8-.4 3.6-.7 7.1-1.6 10.6-2.8.3-.1.6-.1.8.1.2.1.3.3.2.5-.1.6-.2 1.2-.2 1.8-.1.6-.1 1.3 0 2.1.3-.2.5-.3.6-.5 2.3-1.9 4.8-3.3 7.8-3.8 5.9-1.2 11 .5 15.1 4.9 2.5 2.7 4 6 4.4 9.6.7 6.1-.9 11.5-5 16.1-3 3.3-6.7 5.3-11 6.4-1.8.4-3.6.6-5.4.6-2 0-4-.4-6-.9-.2-.1-.4-.1-.7-.2V88.7c0 .6.1 1.3.1 1.9.1 1 .7 1.7 1.6 2.1.9.4 1.9.6 2.9.6 1.5.3 2.8.4 4 .5zm-8.3-42.9V62c0 .4.1.8.4 1.1.9.9 1.9 1.6 3.1 2.1 2 .8 4 1.1 6.1 1 1.8-.1 3.5-.5 5-1.5 2.3-1.5 3.8-3.6 4.8-6.1 1.3-3.5 1.5-7.1.9-10.7-.4-2.5-1.3-4.8-2.8-6.8-2.2-3-5.2-4.6-9-4.6-.7 0-1.4 0-2.2.1-2.1.2-4 .9-5.7 2.1-.4.3-.6.6-.6 1.2v11zM24.1 64.2c-.3.2-.5.3-.8.5-2.1 1.5-4.4 2.8-6.8 3.8-1.6.6-3.2 1.1-4.9 1.1-5-.1-8.4-3.9-8.8-8.1-.4-3.5.9-6.3 3.7-8.4 1.2-.9 2.6-1.6 4-2.1 3-1 6.1-1.8 9.2-2.2 1.4-.2 2.7-.4 4.2-.6 0-.2.1-.4.1-.6 0-2.2 0-4.3-.1-6.5-.1-1.3-.6-2.5-1.3-3.6-.8-1.2-1.9-1.8-3.2-2.1-1-.2-2.1-.3-3.1-.1-2.7.5-4.4 2.1-5.2 4.6-.3.8-.3 1.6-.4 2.4 0 .4-.2.7-.6.9-1.8.7-3.6.6-5.2-.5-.9-.5-1-1.3-.9-2.2.1-.6.4-1.2.8-1.7.7-.7 1.3-1.4 2.1-2 3.2-2.5 6.8-4.2 10.8-4.9 2.2-.4 4.5-.5 6.7.2 3.3 1 5.2 3.2 5.9 6.5.3 1.7.2 3.4.2 5.1 0 1.9-.1 3.7-.1 5.6-.1 3.8-.1 7.6-.1 11.4 0 1 .1 2 .5 2.9.4 1.1 1.2 2 2.4 2.3.9.2 1.7.1 2.5-.3.5-.2 1-.5 1.5-.7.3.5.7 1 1 1.6l-.4.4c-2.2 1.7-4.6 2.7-7.4 2.7-1.4 0-2.8-.4-4-1.3-1-.7-1.6-1.7-2-2.9l-.3-1.2zM23.9 51c-.9.1-1.7.2-2.5.3-1.9.3-3.8.6-5.6 1.3-1.6.6-3.1 1.3-4.3 2.5-.7.7-1.2 1.5-1.3 2.5-.3 1.9.1 3.6 1.1 5.2.6 1 1.5 1.6 2.7 1.9.9.2 1.8.3 2.7.1 2.6-.4 4.8-1.5 6.8-3.1.2-.2.4-.4.4-.8 0-3 .1-6 .1-9.1-.1-.2-.1-.5-.1-.8zM112 32.7l-.3 10.5h-1.8c-.1-.5-.2-1-.3-1.4-1-3.9-3.5-6.4-7.4-7.2-1.8-.4-3.6-.3-5.3.6-2.6 1.4-3.3 4.1-2.6 6.4.3.9.9 1.7 1.6 2.3 1.1 1.1 2.5 1.8 3.9 2.4 2.4 1 4.8 2 7.2 3.1 1.6.7 3 1.6 4.3 2.9 1.6 1.6 2.4 3.5 2.4 5.7.1 4.4-1.9 7.5-5.7 9.5-2 1.1-4.1 1.6-6.4 1.8-3.2.4-6.3-.3-9.4-.9-1.3-.3-2.7-.6-4.1-.8-.4-3.7-.6-7.6-1.4-11.4.7-.2 1.3-.3 2-.5.1.3.2.5.3.8.7 1.7 1.5 3.3 2.5 4.8 1.3 1.9 3 3.5 5.1 4.5 2.2 1 4.5 1.2 6.8.5.1 0 .3-.1.4-.2 3.3-1.4 4.4-5 2.4-8-.5-.7-1.1-1.3-1.7-1.9-.9-.7-2-1.3-3.1-1.8-2.1-.9-4.3-1.9-6.4-2.8-1.4-.6-2.7-1.4-3.8-2.4-1.6-1.3-2.8-3-3.1-5.1-.7-4.4.9-8 4.8-10.5 1.7-1.1 3.6-1.6 5.6-1.9 1.8-.3 3.7-.3 5.5-.1 1.1.1 2.1.4 3.1.5 1.5.2 2.9.3 4.4.5.3.1.4.1.5.1z"/></g><g><path class="adsp-gray" d="M8.9 82.6l-.6-1.9H4.8l-.7 1.9H2.7l3.7-9.4h.3l3.5 9.4H8.9zm-2.3-6.9l-1.4 4.1h2.7l-1.3-4.1zM11.2 80.7v-7.6h1.2v7.4c0 .4.1.6.3.9.2.2.5.3.8.3v1.1c-1.5-.1-2.3-.7-2.3-2.1zM16.2 81.5H20v1.1h-5.6v-.3l3.8-5.4h-3.8v-1.1h5.5v.3l-3.7 5.4zM25.2 82.6v-4.2c0-.5-.1-.9-.4-1.2-.2-.3-.6-.4-1-.4-.3 0-.6.1-.9.3-.3.2-.5.4-.7.6v5H21v-9.5h1.2v3.5c.2-.2.4-.5.8-.6.4-.2.7-.2 1.1-.2.7 0 1.3.2 1.7.7.4.5.6 1.1.6 1.9v4.2h-1.2zM33.8 79.4H29c0 .8.2 1.4.6 1.8.4.4.9.6 1.5.6.7 0 1.3-.2 1.7-.6l.5.9c-.2.2-.5.3-.9.5-.5.2-1 .3-1.6.3-.8 0-1.6-.3-2.2-.9-.7-.6-1-1.5-1-2.6s.3-2 1-2.7c.6-.6 1.3-.9 2.1-.9 1 0 1.7.3 2.3.8.5.5.8 1.2.8 2.1.1.2.1.4 0 .7zm-2.9-2.6c-.5 0-1 .2-1.3.5-.4.3-.6.7-.6 1.2h3.7c0-.5-.2-.9-.5-1.2-.3-.4-.7-.5-1.3-.5zM35.8 82.6v-5.7h-.9v-1H37v6.7h-1.2zm.6-9.3c.2 0 .4.1.5.2.1.1.2.3.2.5s-.1.4-.2.5c-.1.1-.3.2-.5.2s-.4-.1-.5-.2c-.1-.1-.2-.3-.2-.5s.1-.4.2-.5c.1-.1.3-.2.5-.2zM46.7 82.6v-4.3c0-1.1-.5-1.6-1.4-1.6-.3 0-.6.1-.8.3-.3.2-.4.4-.5.6v5h-1.2v-4.8c0-.3-.1-.6-.4-.8-.3-.2-.6-.3-1-.3-.2 0-.5.1-.8.3-.3.2-.5.4-.6.6v5h-1.2v-6.7h.8l.4.8c.5-.6 1-.9 1.7-.9 1 0 1.6.3 2 .9.1-.3.4-.5.7-.6.4-.2.7-.3 1.1-.3.7 0 1.2.2 1.6.6.4.4.6 1 .6 1.7v4.5h-1zM55.2 79.4h-4.9c0 .8.2 1.4.6 1.8.4.4.9.6 1.5.6.7 0 1.3-.2 1.7-.6l.5.9c-.2.2-.5.3-.9.5-.5.2-1 .3-1.6.3-.8 0-1.6-.3-2.2-.9-.7-.6-1-1.5-1-2.6s.3-2 1-2.7c.6-.6 1.3-.9 2.1-.9 1 0 1.7.3 2.3.8.5.5.8 1.2.8 2.1.2.2.2.4.1.7zm-2.9-2.6c-.5 0-1 .2-1.3.5-.3.3-.5.7-.6 1.2h3.7c0-.5-.2-.9-.5-1.2-.2-.4-.7-.5-1.3-.5zM60.3 77c-.3-.2-.5-.3-.8-.3-.4 0-.8.2-1.1.6-.3.4-.5.9-.5 1.4v3.9h-1.2v-6.7h1.2V77c.4-.8 1.1-1.2 1.9-1.2.2 0 .5 0 .9.1l-.4 1.1zM62.2 75.8h-.8l-.2-2.4h1.2l-.2 2.4zM63.2 82.2l.4-1.1c.7.4 1.2.7 1.6.7.7 0 1.1-.3 1.1-.9 0-.4-.4-.8-1.1-1.1-.6-.3-.9-.4-1.1-.6-.2-.1-.4-.3-.5-.4-.1-.2-.2-.3-.3-.5-.1-.2-.1-.4-.1-.6 0-.6.2-1 .6-1.3.4-.3.9-.5 1.6-.5.5 0 1.1.2 1.9.5l-.3.9c-.5-.4-1-.6-1.4-.6-.3 0-.5.1-.7.2-.2.1-.3.3-.3.5 0 .4.2.8.7 1l.9.4c.5.2.9.5 1.1.8.2.3.4.7.4 1.2 0 .6-.2 1.1-.6 1.4-.4.3-1 .5-1.8.5s-1.4-.1-2.1-.5zM74.7 82.6h-1.9v-9.2c1.2 0 1.9-.1 2.3-.1 1.3 0 2.3.4 3.1 1.2.8.8 1.1 1.8 1.1 3.1.1 3.4-1.5 5-4.6 5zm-.6-8.1v6.9c.3 0 .6.1 1 .1.9 0 1.6-.3 2.1-1s.8-1.6.8-2.8c0-2.2-1-3.3-2.9-3.3-.1.1-.4.1-1 .1zM81.3 82.6v-5.7h-.9v-1h2.1v6.7h-1.2zm.6-9.3c.2 0 .4.1.5.2.1.1.2.3.2.5s-.1.4-.2.5c-.1.1-.3.2-.5.2s-.4-.1-.5-.2c-.1-.1-.2-.3-.2-.5s.1-.4.2-.5c.2-.1.3-.2.5-.2zM83.9 82.2l.4-1.1c.7.4 1.2.7 1.6.7.7 0 1.1-.3 1.1-.9 0-.4-.4-.8-1.1-1.1-.6-.3-.9-.4-1.1-.6-.2-.1-.4-.3-.5-.4-.1-.2-.2-.3-.3-.5v-.8c0-.6.2-1 .6-1.3.4-.3.9-.5 1.6-.5.5 0 1.1.2 1.9.5l-.3 1.1c-.5-.4-1-.6-1.4-.6-.3 0-.5.1-.7.2-.2.1-.3.3-.3.5 0 .4.2.8.7 1l.9.4c.5.2.9.5 1.1.8.2.3.4.7.4 1.2 0 .6-.2 1.1-.6 1.4-.4.3-1 .5-1.8.5-.9 0-1.5-.1-2.2-.5zM95.3 79.4h-4.9c0 .8.2 1.4.6 1.8.4.4.9.6 1.5.6.7 0 1.3-.2 1.7-.6l.5.9c-.2.2-.5.3-.9.5-.5.2-1 .3-1.6.3-.8 0-1.6-.3-2.2-.9-.7-.6-1-1.5-1-2.6s.3-2 1-2.7c.6-.6 1.3-.9 2.1-.9 1 0 1.7.3 2.3.8.5.5.8 1.2.8 2.1.2.2.2.4.1.7zm-2.9-2.6c-.5 0-1 .2-1.3.5-.3.3-.5.7-.6 1.2h3.7c0-.5-.2-.9-.5-1.2-.3-.4-.7-.5-1.3-.5zM100.5 81.8c-.5.6-1.2.9-2.2.9-.5 0-1-.2-1.4-.6-.4-.4-.6-.9-.6-1.4 0-.7.3-1.3.9-1.7.6-.5 1.4-.7 2.3-.7.3 0 .5.1.9.2 0-1.1-.5-1.6-1.5-1.6-.7 0-1.3.2-1.7.6l-.5-1c.2-.2.5-.3.9-.5.4-.1.8-.2 1.1-.2 1 0 1.7.2 2.1.7.4.4.7 1.2.7 2.1V81c0 .6.2 1 .5 1.2v.6c-.5 0-.9-.1-1.1-.2-.2-.2-.3-.4-.4-.8zm-.2-2.5c-.4-.1-.6-.1-.8-.1-.6 0-1.1.2-1.5.5-.4.3-.6.7-.6 1.1 0 .7.4 1.1 1.2 1.1.6 0 1.1-.3 1.6-.9v-1.7zM103 82.2l.4-1.1c.7.4 1.2.7 1.6.7.7 0 1.1-.3 1.1-.9 0-.4-.4-.8-1.1-1.1-.6-.3-.9-.4-1.1-.6-.2-.1-.4-.3-.5-.4-.1-.2-.2-.3-.3-.5-.1-.2-.1-.4-.1-.6 0-.6.2-1 .6-1.3.4-.3.9-.5 1.6-.5.5 0 1.1.2 1.9.5l-.3 1.1c-.5-.4-1-.6-1.4-.6-.3 0-.5.1-.7.2-.2.1-.3.3-.3.5 0 .4.2.8.7 1l.9.4c.5.2.9.5 1.1.8.2.3.4.7.4 1.2 0 .6-.2 1.1-.6 1.4-.4.3-1 .5-1.8.5-.8-.2-1.5-.3-2.1-.7zM114.3 79.4h-4.9c0 .8.2 1.4.6 1.8.4.4.9.6 1.5.6.7 0 1.3-.2 1.7-.6l.5.9c-.2.2-.5.3-.9.5-.5.2-1 .3-1.6.3-.8 0-1.6-.3-2.2-.9-.7-.6-1-1.5-1-2.6s.3-2 1-2.7c.6-.6 1.3-.9 2.1-.9 1 0 1.7.3 2.3.8.5.5.8 1.2.8 2.1.2.2.2.4.1.7zm-2.9-2.6c-.5 0-1 .2-1.3.5-.3.3-.5.7-.6 1.2h3.7c0-.5-.2-.9-.5-1.2-.2-.4-.7-.5-1.3-.5zM3.2 95.4l.5-1.2c.2.2.5.3.9.4s.7.2.9.2c.5 0 .9-.1 1.2-.4.3-.3.4-.6.4-1 0-.3-.1-.6-.2-.9-.2-.3-.6-.6-1.3-.9l-.7-.3c-.6-.3-1.1-.6-1.3-1-.3-.4-.4-.9-.4-1.5 0-.7.2-1.3.7-1.7.5-.5 1.1-.7 1.9-.7 1 0 1.7.2 2.1.5L7.6 88l-.8-.4c-.3-.1-.7-.2-1-.2-.4 0-.8.1-1 .4-.2.2-.4.6-.4.9 0 .2 0 .4.1.6.2.4.3.5.5.7.2.1.5.3 1 .5l.8.4c.6.3 1.1.7 1.3 1.1.3.4.4.9.4 1.6 0 .7-.3 1.3-.8 1.8-.7.4-1.4.6-2.4.6-.8 0-1.5-.2-2.1-.6zM15.4 92.6h-4.9c0 .8.2 1.4.6 1.8.4.4.9.6 1.5.6.7 0 1.3-.2 1.7-.6l.5.9c-.2.2-.5.3-.9.5-.5.2-1 .3-1.6.3-.8 0-1.6-.3-2.2-.9-.7-.6-1-1.5-1-2.6s.3-2 1-2.7c.6-.6 1.3-.9 2.1-.9 1 0 1.7.3 2.3.8.5.5.8 1.2.8 2.1.2.2.2.5.1.7zM12.5 90c-.5 0-1 .2-1.3.5-.3.3-.5.7-.6 1.2h3.7c0-.5-.2-.9-.5-1.2-.3-.4-.7-.5-1.3-.5zM21.1 98.5v-3c-.3.3-.9.5-1.8.5s-1.6-.3-2.2-.9c-.5-.6-.8-1.5-.8-2.6s.3-1.9.9-2.6c.6-.6 1.4-.9 2.3-.9.6 0 1.1.2 1.6.6l.3-.5h.7v9.4h-1zm0-8c-.3-.3-.8-.5-1.3-.5-.7 0-1.2.2-1.6.7-.4.5-.6 1.1-.6 1.8 0 .8.2 1.4.6 1.8.4.4.9.7 1.5.7s1-.1 1.3-.4v-4.1zM25.1 89.1v4.3c0 1 .5 1.6 1.4 1.6.4 0 .8-.1 1.1-.3s.5-.5.6-.8v-4.7h1.2v6.7h-1.2V95c-.1.3-.4.5-.8.7-.4.2-.8.3-1.2.3-.7 0-1.3-.2-1.7-.6-.4-.4-.6-1-.6-1.8v-4.4h1.2zM36.7 92.6h-4.9c0 .8.2 1.4.6 1.8.4.4.9.6 1.5.6.7 0 1.3-.2 1.7-.6l.5.9c-.2.2-.5.3-.9.5-.5.2-1 .3-1.6.3-.8 0-1.6-.3-2.2-.9-.7-.6-1-1.5-1-2.6s.3-2 1-2.7c.6-.6 1.3-.9 2.1-.9 1 0 1.7.3 2.3.8.5.5.8 1.2.8 2.1.2.2.2.5.1.7zM33.8 90c-.5 0-1 .2-1.3.5-.3.3-.5.7-.6 1.2h3.7c0-.5-.2-.9-.5-1.2-.3-.4-.7-.5-1.3-.5zM42.2 95.8v-3.9c0-.7-.1-1.2-.3-1.5s-.6-.4-1.1-.4c-.3 0-.6.1-.9.2-.3.2-.5.4-.7.6v5H38v-6.7h.8l.4.9c.4-.7 1-1 1.9-1 1.5 0 2.2.9 2.2 2.7v4.2h-1.1zM50.2 89.6l-.6.8c-.1-.1-.3-.2-.6-.3-.3-.1-.6-.1-.9-.1-.7 0-1.2.2-1.6.7-.4.5-.6 1.1-.6 1.9 0 .8.2 1.4.6 1.8.4.4.9.6 1.6.6.5 0 1.1-.2 1.6-.6l.5 1c-.6.4-1.4.6-2.4.6-.9 0-1.7-.3-2.3-.9-.6-.6-.9-1.5-.9-2.5 0-1.1.3-1.9.9-2.6.6-.7 1.5-1 2.6-1 .3 0 .7.1 1.1.2.5.1.8.3 1 .4zM52.1 95.8v-5.7h-.9v-1h2.1v6.7h-1.2zm.6-9.3c.2 0 .4.1.5.2.1.1.2.3.2.5s-.1.4-.2.5c-.1.1-.3.2-.5.2s-.4-.1-.5-.2c-.1-.1-.2-.3-.2-.5s.1-.4.2-.5c.2-.1.3-.2.5-.2zM59.3 95.8v-3.9c0-.7-.1-1.2-.3-1.5s-.6-.4-1.1-.4c-.3 0-.6.1-.9.2-.3.2-.5.4-.7.6v5h-1.2v-6.7h.9l.4.9c.4-.7 1-1 1.9-1 1.5 0 2.2.9 2.2 2.7v4.2h-1.2zM62 97.7l.6-1c.7.5 1.3.7 1.9.7.5 0 1-.1 1.3-.3.3-.2.5-.4.5-.7 0-.5-.4-.8-1.2-.8-.1 0-.4 0-.7.1-.4.1-.6.1-.8.1-1 0-1.4-.4-1.4-1.1 0-.2.1-.4.3-.6.2-.2.5-.3.8-.4-.9-.4-1.4-1.2-1.4-2.3 0-.7.2-1.3.7-1.8.5-.5 1.1-.7 1.8-.7s1.2.1 1.6.4l.6-.7.8.7-.7.5c.3.4.5.9.5 1.6 0 .7-.2 1.3-.6 1.7-.4.5-1 .7-1.7.8l-1 .1c-.1 0-.3.1-.5.1-.2.1-.3.2-.3.3 0 .2.2.3.6.3.2 0 .5 0 .8-.1.4-.1.7-.1.9-.1.7 0 1.2.2 1.6.5.4.3.6.8.6 1.3 0 .6-.3 1.1-.8 1.5-.6.4-1.3.6-2.1.6-.4 0-.9-.1-1.4-.2-.6-.1-1-.3-1.3-.5zm2.5-7.8c-.4 0-.8.1-1 .4-.3.3-.4.7-.4 1.1 0 .5.1.9.4 1.2.3.3.6.5 1 .5s.8-.2 1-.5c.2-.3.4-.7.4-1.2 0-.4-.1-.8-.4-1.1-.3-.2-.6-.4-1-.4zM74 92.3v3.6h-1.3v-9.2c1 0 1.5-.1 1.7-.1 2.7 0 4 .9 4 2.7 0 2.1-1.2 3.1-3.6 3.1-.1-.1-.4-.1-.8-.1zm0-4.6v3.4c.5 0 .8.1.8.1 1.6 0 2.3-.6 2.3-1.8 0-1.1-.8-1.7-2.5-1.7H74zM82.9 90.2c-.3-.2-.5-.3-.8-.3-.4 0-.8.2-1.1.6-.3.4-.5.9-.5 1.4v3.9h-1.2v-6.7h1.2v1.1c.4-.8 1.1-1.2 1.9-1.2.2 0 .5 0 .9.1l-.4 1.1zM83.8 92.4c0-1 .3-1.9.8-2.5.6-.6 1.3-1 2.2-1 1 0 1.7.3 2.2.9.5.6.8 1.5.8 2.6s-.3 1.9-.8 2.6c-.5.6-1.3.9-2.2.9-1 0-1.7-.3-2.2-1-.6-.5-.8-1.4-.8-2.5zm1.2 0c0 1.7.6 2.5 1.8 2.5.6 0 1-.2 1.3-.7.3-.5.5-1.1.5-1.9 0-1.7-.6-2.5-1.8-2.5-.5 0-1 .2-1.3.7-.3.6-.5 1.2-.5 1.9zM90.4 98.5v-1.1c.8 0 1.4-.1 1.7-.4.3-.2.5-.7.5-1.2v-5.7h-1.3v-1h2.5v6.7c0 .9-.3 1.6-.8 2-.6.5-1.5.7-2.6.7zm2.6-12c.2 0 .4.1.5.2.1.1.2.3.2.5s-.1.4-.2.5c-.1.2-.3.3-.5.3s-.4-.1-.5-.2c-.1-.1-.2-.3-.2-.5s.1-.4.2-.5c.1-.2.3-.3.5-.3zM101.5 92.6h-4.9c0 .8.2 1.4.6 1.8.4.4.9.6 1.5.6.7 0 1.3-.2 1.7-.6l.5.9c-.2.2-.5.3-.9.5-.5.2-1 .3-1.6.3-.8 0-1.6-.3-2.2-.9-.7-.6-1-1.5-1-2.6s.3-2 1-2.7c.6-.6 1.3-.9 2.1-.9 1 0 1.7.3 2.3.8.5.5.8 1.2.8 2.1.2.2.2.5.1.7zM98.6 90c-.5 0-1 .2-1.3.5-.3.3-.5.7-.6 1.2h3.7c0-.5-.2-.9-.5-1.2-.2-.4-.7-.5-1.3-.5zM108 89.6l-.6.8c-.1-.1-.3-.2-.6-.3-.3-.1-.6-.2-.9-.2-.7 0-1.2.2-1.6.7-.4.5-.6 1.1-.6 1.9 0 .8.2 1.4.6 1.8.4.4.9.6 1.6.6.5 0 1.1-.2 1.6-.6l.5 1c-.6.4-1.4.6-2.4.6-.9 0-1.7-.3-2.3-.9-.6-.6-.9-1.5-.9-2.5 0-1.1.3-1.9.9-2.6.6-.7 1.5-1 2.6-1 .3 0 .7.1 1.1.2.5.2.8.4 1 .5zM109.7 90h-.8v-.9h.8v-1.4l1.2-.5v1.9h1.9v.9h-1.9v3.4c0 .6.1 1 .3 1.2.2.2.5.4.9.4.3 0 .6-.1 1-.2l.2 1.1c-.5.1-1 .2-1.6.2-.5 0-1-.2-1.4-.6-.4-.4-.6-.9-.6-1.5v-4z"/></g></svg>