<svg xmlns="http://www.w3.org/2000/svg" viewBox="0 0 500 100" preserveAspectRatio="xMinYMid meet"><path fill="#FFF" d="M78.55 90.25H57.31L23.03 28.48h-.48c.68 10.91 1.02 18.69 1.02 23.35v38.42H8.63V8.6h21.08l34.23 61.16h.38c-.54-10.61-.81-18.11-.81-22.51V8.6h15.04v81.65zM98.39 90.25V8.6h16.71v81.65H98.39zM183.19 90.25l-5.71-19.44h-28.73l-5.71 19.44h-18.01l27.82-81.99h20.43l27.92 81.99h-18.01zm-9.7-33.95c-5.28-17.61-8.26-27.57-8.92-29.88-.67-2.31-1.14-4.13-1.43-5.47-1.19 4.77-4.58 16.55-10.19 35.35h20.54zM241.04 44.4h31.27v42.33c-5.07 1.71-9.84 2.91-14.31 3.6s-9.05 1.03-13.72 1.03c-11.9 0-20.98-3.62-27.25-10.86-6.27-7.24-9.41-17.64-9.41-31.19 0-13.18 3.64-23.46 10.92-30.83 7.28-7.37 17.37-11.06 30.27-11.06 8.09 0 15.88 1.68 23.4 5.03l-5.55 13.85c-5.75-2.98-11.73-4.47-17.95-4.47-7.22 0-13.01 2.51-17.36 7.54s-6.52 11.78-6.52 20.27c0 8.86 1.75 15.63 5.26 20.3 3.5 4.67 8.6 7.01 15.28 7.01 3.49 0 7.03-.37 10.62-1.12V58.81h-14.93V44.4z"/><path fill="#B096C7" d="M339.31 90.25l-5.71-19.44h-28.73l-5.71 19.44h-18.01l27.82-81.99h20.43l27.93 81.99h-18.02zm-9.7-33.95c-5.28-17.61-8.26-27.57-8.92-29.88-.67-2.31-1.14-4.13-1.43-5.47-1.19 4.77-4.58 16.55-10.19 35.35h20.54zM432.63 48.65c0 13.44-3.69 23.74-11.08 30.89-7.38 7.15-18.05 10.72-31.99 10.72h-22.32V8.6h24.75c12.87 0 22.86 3.52 29.97 10.56 7.11 7.03 10.67 16.86 10.67 29.49zm-17.36.44c0-17.54-7.47-26.31-22.43-26.31h-8.89v53.17h7.17c16.1.01 24.15-8.95 24.15-26.86z"/><path fill="#FFF" d="M495.49 67.58c0 7.37-2.56 13.18-7.68 17.43-5.12 4.25-12.25 6.37-21.38 6.37-8.41 0-15.85-1.64-22.32-4.92V70.37c5.32 2.46 9.82 4.19 13.51 5.19 3.68 1 7.05 1.51 10.11 1.51 3.67 0 6.48-.73 8.44-2.18s2.94-3.61 2.94-6.48c0-1.6-.43-3.02-1.29-4.27-.86-1.25-2.13-2.45-3.8-3.6s-5.08-3-10.21-5.53c-4.82-2.35-8.43-4.6-10.84-6.76a25.228 25.228 0 0 1-5.77-7.54c-1.44-2.87-2.16-6.22-2.16-10.05 0-7.22 2.36-12.9 7.09-17.03s11.26-6.2 19.6-6.2c4.1 0 8.01.5 11.73 1.51 3.72 1.01 7.61 2.42 11.67 4.24l-5.39 13.46c-4.21-1.79-7.68-3.03-10.43-3.74-2.75-.71-5.45-1.06-8.11-1.06-3.16 0-5.59.76-7.28 2.29-1.69 1.53-2.53 3.52-2.53 5.98 0 1.53.34 2.86 1.02 3.99.68 1.14 1.77 2.23 3.26 3.3s5.02 2.97 10.59 5.72c7.37 3.65 12.42 7.31 15.15 10.97 2.71 3.67 4.08 8.16 4.08 13.49z"/></svg>