<?xml version="1.0" encoding="utf-8"?>
<!-- Generator: Adobe Illustrator 15.0.0, SVG Export Plug-In . SVG Version: 6.00 Build 0)  -->
<!DOCTYPE svg PUBLIC "-//W3C//DTD SVG 1.1//EN" "http://www.w3.org/Graphics/SVG/1.1/DTD/svg11.dtd">
<svg version="1.1" id="Layer_1" xmlns="http://www.w3.org/2000/svg" xmlns:xlink="http://www.w3.org/1999/xlink" x="0px" y="0px"
	 width="665px" height="452px" viewBox="0 0 665 452" enable-background="new 0 0 665 452" xml:space="preserve">
<path fill-rule="evenodd" clip-rule="evenodd" fill="#264478" d="M245.116,11.359c116.079,0,210.171,94.09,210.171,210.17h-94.57
	c0-63.84-51.76-115.6-115.601-115.6V11.359z"/>
<path fill="none" stroke="#FFFFFF" stroke-width="1.5" stroke-linejoin="round" stroke-miterlimit="10" d="M245.116,11.359
	c116.079,0,210.171,94.09,210.171,210.17h-94.57c0-63.84-51.76-115.6-115.601-115.6V11.359z"/>
<path fill-rule="evenodd" clip-rule="evenodd" fill="#0E84A0" d="M455.057,224.699c0,116.08-94.1,210.173-210.17,210.173
	c-20.67,0-41.23-3.049-61.011-9.053l27.45-90.5c61.091,18.529,125.641-15.971,144.17-77.06c3.301-10.88,4.98-22.19,4.98-33.561
	H455.057z"/>
<path fill="none" stroke="#FFFFFF" stroke-width="1.5" stroke-linejoin="round" stroke-miterlimit="10" d="M455.057,224.699
	c0,116.08-94.1,210.173-210.17,210.173c-20.67,0-41.23-3.049-61.011-9.053l27.45-90.5c61.091,18.529,125.641-15.971,144.17-77.06
	c3.301-10.88,4.98-22.19,4.98-33.561H455.057z"/>
<path fill-rule="evenodd" clip-rule="evenodd" fill="#406325" d="M181.816,426.079c-13.17-4-25.92-9.279-38.06-15.77l44.58-83.41
	c6.68,3.57,13.69,6.469,20.94,8.67L181.816,426.079z"/>
<path fill="none" stroke="#FFFFFF" stroke-width="1.5" stroke-linejoin="round" stroke-miterlimit="10" d="M181.816,426.079
	c-13.17-4-25.92-9.279-38.06-15.77l44.58-83.41c6.68,3.57,13.69,6.469,20.94,8.67L181.816,426.079z"/>
<path fill-rule="evenodd" clip-rule="evenodd" fill="#70AD47" d="M143.146,409.929c-30.48-16.299-56.48-39.859-75.68-68.59
	l78.64-52.55c10.56,15.81,24.86,28.771,41.62,37.73L143.146,409.929z"/>
<path fill="none" stroke="#FFFFFF" stroke-width="1.5" stroke-linejoin="round" stroke-miterlimit="10" d="M143.146,409.929
	c-30.48-16.299-56.48-39.859-75.68-68.59l78.64-52.55c10.56,15.81,24.86,28.771,41.62,37.73L143.146,409.929z"/>
<path fill-rule="evenodd" clip-rule="evenodd" fill="#FFC000" d="M66.816,340.188c-30.97-46.349-42.26-103.099-31.38-157.77
	l92.76,18.45c-5.98,30.07,0.23,61.28,17.26,86.77L66.816,340.188z"/>
<path fill="none" stroke="#FFFFFF" stroke-width="1.5" stroke-linejoin="round" stroke-miterlimit="10" d="M66.816,340.188
	c-30.97-46.349-42.26-103.099-31.38-157.77l92.76,18.45c-5.98,30.07,0.23,61.28,17.26,86.77L66.816,340.188z"/>
<path fill-rule="evenodd" clip-rule="evenodd" fill="#F49321" d="M35.486,181.399c2.69-13.5,6.69-26.71,11.96-39.43l87.38,36.2
	c-2.9,6.99-5.1,14.26-6.58,21.68L35.486,181.399z"/>
<path fill="none" stroke="#FFFFFF" stroke-width="1.5" stroke-linejoin="round" stroke-miterlimit="10" d="M35.486,181.399
	c2.69-13.5,6.69-26.71,11.96-39.43l87.38,36.2c-2.9,6.99-5.1,14.26-6.58,21.68L35.486,181.399z"/>
<path fill-rule="evenodd" clip-rule="evenodd" fill="#EF1616" d="M47.656,141.499c7.91-19.09,18.59-36.92,31.71-52.9l73.11,60
	c-7.22,8.79-13.09,18.59-17.44,29.1L47.656,141.499z"/>
<path fill="none" stroke="#FFFFFF" stroke-width="1.5" stroke-linejoin="round" stroke-miterlimit="10" d="M47.656,141.499
	c7.91-19.09,18.59-36.92,31.71-52.9l73.11,60c-7.22,8.79-13.09,18.59-17.44,29.1L47.656,141.499z"/>
<path fill-rule="evenodd" clip-rule="evenodd" fill="#D3D2D1" d="M80.266,87.779c39.92-48.64,99.54-76.84,162.47-76.84v94.58
	c-34.61,0-67.4,15.51-89.36,42.26L80.266,87.779z"/>
<path fill="none" stroke="#FFFFFF" stroke-width="1.5" stroke-linejoin="round" stroke-miterlimit="10" d="M80.266,87.779
	c39.92-48.64,99.54-76.84,162.47-76.84v94.58c-34.61,0-67.4,15.51-89.36,42.26L80.266,87.779z"/>
<g>
	<rect x="491.665" y="79.359" fill-rule="evenodd" clip-rule="evenodd" fill="#264478" width="9.887" height="9.887"/>
	
		<rect x="491.665" y="79.359" fill="none" stroke="#FFFFFF" stroke-width="1.5" stroke-linejoin="round" stroke-miterlimit="10" width="9.887" height="9.887"/>
	<text transform="matrix(1 0 0 1 505.8848 89.9019)" fill="#595959" font-family="'Calibri'" font-size="18">AD</text>
</g>
<g>
	<rect x="491.665" y="107.771" fill-rule="evenodd" clip-rule="evenodd" fill="#0E84A0" width="9.887" height="9.887"/>
	
		<rect x="491.665" y="107.771" fill="none" stroke="#FFFFFF" stroke-width="1.5" stroke-linejoin="round" stroke-miterlimit="10" width="9.887" height="9.887"/>
	<text transform="matrix(1 0 0 1 505.9043 118.314)"><tspan x="0" y="0" fill="#595959" font-family="'Calibri'" font-size="18">L</tspan><tspan x="7.568" y="0" fill="#595959" font-family="'Calibri'" font-size="18">O</tspan><tspan x="19.576" y="0" fill="#595959" font-family="'Calibri'" font-size="18">AD</tspan></text>
</g>
<g>
	<rect x="491.665" y="136.185" fill-rule="evenodd" clip-rule="evenodd" fill="#406325" width="9.887" height="9.887"/>
	
		<rect x="491.665" y="136.185" fill="none" stroke="#FFFFFF" stroke-width="1.5" stroke-linejoin="round" stroke-miterlimit="10" width="9.887" height="9.887"/>
	<text transform="matrix(1 0 0 1 505.9453 146.7271)"><tspan x="0" y="0" fill="#595959" font-family="'Calibri'" font-size="18">F</tspan><tspan x="8.378" y="0" fill="#595959" font-family="'Calibri'" font-size="18">TD</tspan></text>
</g>
<g>
	<rect x="491.665" y="164.596" fill-rule="evenodd" clip-rule="evenodd" fill="#70AD47" width="9.887" height="9.887"/>
	
		<rect x="491.665" y="164.596" fill="none" stroke="#FFFFFF" stroke-width="1.5" stroke-linejoin="round" stroke-miterlimit="10" width="9.887" height="9.887"/>
	<text transform="matrix(1 0 0 1 505.9238 175.1392)"><tspan x="0" y="0" fill="#595959" font-family="'Calibri'" font-size="18">P</tspan><tspan x="9.209" y="0" fill="#595959" font-family="'Calibri'" font-size="18">S</tspan><tspan x="17.588" y="0" fill="#595959" font-family="'Calibri'" font-size="18">P</tspan></text>
</g>
<g>
	<rect x="491.665" y="193.008" fill-rule="evenodd" clip-rule="evenodd" fill="#FFC000" width="9.887" height="9.887"/>
	
		<rect x="491.665" y="193.008" fill="none" stroke="#FFFFFF" stroke-width="1.5" stroke-linejoin="round" stroke-miterlimit="10" width="9.887" height="9.887"/>
	<text transform="matrix(1 0 0 1 505.9043 203.5513)"><tspan x="0" y="0" fill="#595959" font-family="'Calibri'" font-size="18">C</tspan><tspan x="9.598" y="0" fill="#595959" font-family="'Calibri'" font-size="18">S</tspan><tspan x="17.977" y="0" fill="#595959" font-family="'Calibri'" font-size="18">F</tspan></text>
</g>
<g>
	<rect x="491.665" y="221.42" fill-rule="evenodd" clip-rule="evenodd" fill="#F49321" width="9.885" height="9.887"/>
	
		<rect x="491.665" y="221.42" fill="none" stroke="#FFFFFF" stroke-width="1.5" stroke-linejoin="round" stroke-miterlimit="10" width="9.885" height="9.887"/>
	<text transform="matrix(1 0 0 1 505.9238 231.9634)"><tspan x="0" y="0" fill="#595959" font-family="'Calibri'" font-size="18">V</tspan><tspan x="10.375" y="0" fill="#595959" font-family="'Calibri'" font-size="18">B</tspan><tspan x="19.986" y="0" fill="#595959" font-family="'Calibri'" font-size="18">I</tspan></text>
</g>
<g>
	<rect x="491.665" y="249.834" fill-rule="evenodd" clip-rule="evenodd" fill="#EF1616" width="9.887" height="9.887"/>
	
		<rect x="491.665" y="249.834" fill="none" stroke="#FFFFFF" stroke-width="1.5" stroke-linejoin="round" stroke-miterlimit="10" width="9.887" height="9.887"/>
	<text transform="matrix(1 0 0 1 505.9434 260.3765)"><tspan x="0" y="0" fill="#595959" font-family="'Calibri'" font-size="18">L</tspan><tspan x="7.567" y="0" fill="#595959" font-family="'Calibri'" font-size="18">B</tspan><tspan x="17.232" y="0" fill="#595959" font-family="'Calibri'" font-size="18">D</tspan></text>
</g>
<g>
	<rect x="491.665" y="278.246" fill-rule="evenodd" clip-rule="evenodd" fill="#D3D2D1" width="9.887" height="9.887"/>
	
		<rect x="491.665" y="278.246" fill="none" stroke="#FFFFFF" stroke-width="1.5" stroke-linejoin="round" stroke-miterlimit="10" width="9.887" height="9.887"/>
	<text transform="matrix(1 0 0 1 505.9844 288.7886)"><tspan x="0" y="0" fill="#595959" font-family="'Calibri'" font-size="18">O</tspan><tspan x="11.972" y="0" fill="#595959" font-family="'Calibri'" font-size="18">t</tspan><tspan x="18.001" y="0" fill="#595959" font-family="'Calibri'" font-size="18">h</tspan><tspan x="27.548" y="0" fill="#595959" font-family="'Calibri'" font-size="18">e</tspan><tspan x="36.36" y="0" fill="#595959" font-family="'Calibri'" font-size="18">r</tspan><tspan x="0" y="21.6" fill="#595959" font-family="'Calibri'" font-size="18">Neuropathology</tspan></text>
</g>
<rect fill="none" width="665" height="452"/>
</svg>
