<svg version="1.1" id="Layer_1" xmlns="http://www.w3.org/2000/svg" viewBox="0 0 259.9 59.8" width="260" height="60"><style>.st0{fill:#646569}</style><path class="st0" d="M66.4 16.6v26.7h-4.7v-12H49.6v12h-4.7V16.6h4.7v10.6h12.2V16.6h4.6zM40.2 43.3h-4.7V16.6h4.7v26.7zm-9.3 0H26L13.8 23.7h-.1v19.6H9.3V16.6h4.9l12.2 19.7h.1V16.6H31v26.7h-.1zm52-13.4L66.4 0H5.5C2.5 0 0 2.5 0 5.5v48.8c0 3 2.5 5.5 5.5 5.5h60.8l16.6-29.9z"/><path d="M70.4 59.8L87 29.9 70.5 0h4.1c2.3 0 5 1.6 6.1 3.6l14.5 26.3-14.5 26.3c-1.1 2-3.8 3.6-6.1 3.6h-4.2z" fill="#346094"/><g><path class="st0" d="M102.4 14.1h2.7l6.8 10.9h.1V14.1h2.5V29h-2.7L105 18.1h-.1V29h-2.5V14.1zM125.9 26.6c0 .3.1.5.1.6s.2.2.5.2h.2c.1 0 .2 0 .3-.1V29c-.1 0-.2.1-.3.1-.1.1-.3.1-.4.1-.1 0-.3.1-.4.1h-.3c-.5 0-.9-.1-1.2-.3-.3-.2-.5-.5-.6-1-.5.5-1 .8-1.8 1-.7.2-1.4.3-2 .3-.5 0-1-.1-1.4-.2-.5-.1-.9-.3-1.2-.6-.3-.3-.6-.6-.8-1-.2-.4-.3-.9-.3-1.4 0-.7.1-1.2.3-1.7.2-.4.6-.7 1-1 .4-.2.9-.4 1.3-.5.5-.1 1-.2 1.5-.2.5-.1.9-.1 1.3-.2s.7-.1 1-.2.5-.2.7-.4c.2-.2.3-.5.3-.8 0-.3-.1-.6-.2-.7s-.3-.3-.6-.5c-.2-.1-.5-.2-.7-.2-.3-.1-.5-.1-.7-.1-.7 0-1.2.1-1.7.4-.5.3-.7.7-.7 1.3h-2.4c.1-.7.2-1.3.5-1.7s.7-.8 1.1-1.1c.5-.3 1-.5 1.5-.6.6-.1 1.1-.2 1.8-.2.5 0 1 .1 1.5.2s1 .3 1.4.6c.4.3.7.6 1 1 .2.4.4.9.4 1.4v5.7zm-2.4-3c-.3.2-.8.4-1.3.4-.5.1-1.1.1-1.6.2-.2.1-.5.1-.7.2-.2.1-.5.2-.6.3s-.3.3-.4.5c-.1.2-.2.5-.2.8 0 .3.1.5.2.7.2.2.3.3.6.5s.5.2.7.2c.2.1.5.1.7.1.3 0 .6-.1.9-.1l.9-.3c.3-.2.5-.4.7-.6.2-.3.3-.6.3-1l-.2-1.9zM127 18.2h1.8V15h2.4v3.2h2.2V20h-2.2v5.8c0 .2 0 .5.1.6 0 .2.1.3.2.5l.3.3c.2.1.3.1.6.1h.5c.2 0 .3-.1.5-.1V29c-.3 0-.5.1-.8.1-.2 0-.5.1-.8.1-.6 0-1.1-.1-1.5-.2-.4-.1-.7-.3-.9-.5s-.3-.5-.5-.9c-.1-.3-.1-.7-.1-1.2V20H127v-1.8zM134.7 14.1h2.4v2.2h-2.4v-2.2zm0 4.1h2.4V29h-2.4V18.2zM144.3 29.3c-.9 0-1.7-.1-2.3-.4-.7-.3-1.3-.7-1.7-1.2-.5-.5-.8-1.1-1.1-1.8-.2-.7-.3-1.5-.3-2.3 0-.8.1-1.6.3-2.3s.6-1.3 1.1-1.8c.5-.5 1-.9 1.7-1.2.7-.3 1.4-.4 2.3-.4s1.7.1 2.3.4c.7.3 1.3.7 1.7 1.2.5.5.8 1.1 1.1 1.8.2.7.3 1.4.3 2.3 0 .9-.1 1.6-.3 2.3s-.6 1.3-1.1 1.8c-.5.5-1 .9-1.7 1.2-.7.3-1.4.4-2.3.4zm0-1.9c.5 0 1-.1 1.4-.3.4-.2.7-.5 1-.9.3-.3.5-.7.6-1.2.1-.5.2-.9.2-1.4s-.1-.9-.2-1.4c-.1-.5-.3-.9-.6-1.2-.2-.3-.6-.6-1-.9-.4-.2-.9-.3-1.4-.3-.5 0-1 .1-1.4.3-.4.2-.7.5-1 .9-.2.3-.5.7-.6 1.2s-.2.9-.2 1.4c0 .5.1.9.2 1.4s.3.9.6 1.2c.3.3.6.6 1 .9.4.2.8.3 1.4.3zM151.3 18.2h2.2v1.6l.1.1c.3-.6.9-1.1 1.4-1.4s1.3-.5 1.9-.5c1.2 0 2.1.3 2.8.9.7.6 1 1.5 1 2.7V29h-2.4v-6.8c0-.9-.2-1.5-.6-1.8-.3-.3-.9-.6-1.5-.6-.4 0-.7.1-1.1.2s-.6.3-.8.6c-.2.3-.4.6-.5.9-.1.3-.2.7-.2 1.1V29h-2.4l.1-10.8zM172 26.6c0 .3.1.5.1.6s.2.2.5.2h.2c.1 0 .2 0 .3-.1V29c-.1 0-.2.1-.3.1-.1.1-.3.1-.4.1-.1 0-.3.1-.4.1h-.3c-.5 0-.9-.1-1.2-.3-.3-.2-.5-.5-.6-1-.5.5-1 .8-1.8 1-.7.2-1.4.3-2 .3-.5 0-1-.1-1.4-.2-.5-.1-.9-.3-1.2-.6-.3-.3-.6-.6-.8-1-.2-.4-.3-.9-.3-1.4 0-.7.1-1.2.3-1.7.2-.4.6-.7 1-1 .4-.2.9-.4 1.3-.5.5-.1 1-.2 1.5-.2.5-.1.9-.1 1.3-.2s.7-.1 1-.2.5-.2.7-.4.3-.5.3-.8c0-.3-.1-.6-.2-.7s-.3-.3-.6-.5c-.2-.1-.5-.2-.7-.2-.3-.1-.5-.1-.7-.1-.7 0-1.2.1-1.7.4-.5.3-.7.7-.7 1.3h-2.4c.1-.7.2-1.3.5-1.7.3-.5.7-.8 1.1-1.1.5-.3 1-.5 1.5-.6s1.1-.2 1.8-.2c.5 0 1 .1 1.5.2s1 .3 1.4.6c.4.3.7.6 1 1 .2.4.4.9.4 1.4v5.7zm-2.4-3c-.3.2-.8.4-1.3.4-.5.1-1.1.1-1.6.2-.2.1-.5.1-.7.2s-.5.2-.6.3-.3.3-.4.5c-.1.2-.2.5-.2.8 0 .3.1.5.2.7.2.2.3.3.6.5.2.1.5.2.7.2.2.1.5.1.7.1.3 0 .6-.1.9-.1l.9-.3c.3-.2.5-.4.7-.6.2-.3.3-.6.3-1l-.2-1.9zM174.2 14.1h2.4V29h-2.4V14.1zM184.6 14.1h2.6V29h-2.6V14.1zM189.7 18.2h2.2v1.6l.1.1c.3-.6.9-1.1 1.4-1.4.6-.3 1.3-.5 1.9-.5 1.2 0 2.1.3 2.8.9.7.6 1 1.5 1 2.7V29h-2.4v-6.8c0-.9-.2-1.5-.6-1.8-.3-.3-.9-.6-1.5-.6-.4 0-.7.1-1.1.2-.3.2-.6.3-.8.6-.2.3-.4.6-.5.9-.1.3-.2.7-.2 1.1V29h-2.4l.1-10.8zM203.1 25.5c.1.7.3 1.2.8 1.5.5.3 1 .4 1.7.4.2 0 .5 0 .7-.1s.6-.1.8-.2c.2-.1.5-.2.6-.4.2-.2.2-.5.2-.7 0-.3-.1-.6-.3-.7-.2-.2-.5-.3-.8-.5-.3-.1-.7-.2-1.1-.3-.4-.1-.9-.2-1.3-.3-.5-.1-.9-.2-1.3-.3-.4-.1-.8-.3-1.1-.6-.3-.2-.6-.5-.8-.9-.2-.3-.3-.8-.3-1.4 0-.6.1-1.1.4-1.5.3-.4.6-.7 1.1-1 .5-.2.9-.4 1.5-.5.5-.1 1-.2 1.5-.2.6 0 1.1.1 1.6.2s1 .3 1.4.6c.4.3.7.6 1 1s.5.9.5 1.5h-2.5c-.1-.6-.4-1-.8-1.1-.4-.2-.9-.3-1.4-.3-.2 0-.3 0-.6.1-.2 0-.5.1-.6.2-.2.1-.4.2-.5.3-.1.2-.2.3-.2.6s.1.5.3.7c.2.2.5.3.8.5.3.1.7.2 1.1.3.4.1.9.2 1.3.3.5.1.9.2 1.3.3.4.1.8.3 1.1.6.3.2.6.5.8.9.2.3.3.8.3 1.3 0 .6-.2 1.2-.5 1.7s-.7.8-1.1 1.1c-.5.3-1 .5-1.5.6-.6.1-1.1.2-1.7.2-.7 0-1.3-.1-1.9-.2-.6-.2-1.1-.4-1.5-.7-.4-.3-.7-.7-1-1.1-.3-.5-.4-1-.4-1.7h2.3l.1-.2zM210.6 18.2h1.8V15h2.4v3.2h2.2V20h-2.2v5.8c0 .2 0 .5.1.6 0 .2.1.3.2.5l.3.3c.2.1.3.1.6.1h.5c.2 0 .3-.1.5-.1V29c-.3 0-.5.1-.8.1-.2 0-.5.1-.8.1-.6 0-1.1-.1-1.5-.2-.4-.1-.7-.3-.9-.5-.2-.2-.3-.5-.5-.9-.1-.3-.1-.7-.1-1.2V20h-1.8v-1.8zM218.4 14.1h2.4v2.2h-2.4v-2.2zm0 4.1h2.4V29h-2.4V18.2zM221.8 18.2h1.8V15h2.4v3.2h2.2V20H226v5.8c0 .2 0 .5.1.6 0 .2.1.3.2.5l.3.3c.2.1.3.1.6.1h.5c.2 0 .3-.1.5-.1V29c-.3 0-.5.1-.8.1-.2 0-.5.1-.8.1-.6 0-1.1-.1-1.5-.2-.4-.1-.7-.3-.9-.5-.2-.2-.3-.5-.5-.9-.1-.3-.1-.7-.1-1.2V20h-1.8v-1.8zM239 29h-2.3v-1.5h-.1c-.3.6-.7 1-1.3 1.3-.6.3-1.1.5-1.8.5-1.4 0-2.5-.3-3.1-1-.6-.7-1-1.8-1-3.2v-6.8h2.4v6.6c0 1 .2 1.6.6 2 .3.4.9.6 1.5.6.5 0 .9-.1 1.3-.2.3-.2.6-.3.8-.6.2-.3.3-.6.5-.9.1-.3.1-.7.1-1.1v-6.3h2.4V29zM240 18.2h1.8V15h2.4v3.2h2.2V20h-2.2v5.8c0 .2 0 .5.1.6 0 .2.1.3.2.5l.3.3c.2.1.3.1.6.1h.5c.2 0 .3-.1.5-.1V29c-.3 0-.5.1-.8.1-.2 0-.5.1-.8.1-.6 0-1.1-.1-1.5-.2-.4-.1-.7-.3-.9-.5-.2-.2-.3-.5-.5-.9-.1-.3-.1-.7-.1-1.2V20H240v-1.8zM249.5 24.2c0 .4.1.8.2 1.2.1.4.3.7.5 1 .2.3.5.5.9.7.3.2.8.3 1.3.3.7 0 1.3-.2 1.7-.5.4-.3.7-.7 1-1.4h2.2c-.1.6-.3 1.1-.6 1.5s-.7.9-1.1 1.1c-.5.3-.9.6-1.4.7-.5.2-1.1.2-1.7.2-.9 0-1.6-.1-2.2-.4-.6-.3-1.2-.7-1.7-1.1-.5-.5-.8-1.1-1-1.8-.2-.7-.3-1.5-.3-2.3 0-.7.1-1.5.3-2.2.2-.7.6-1.3 1-1.8.5-.5 1-.9 1.7-1.3.7-.3 1.4-.5 2.2-.5.9 0 1.6.2 2.3.5s1.3.8 1.7 1.4c.4.6.7 1.3 1 2s.2 1.5.2 2.3l-8.2.4zm5.6-1.5c0-.4-.1-.7-.2-1.1s-.3-.6-.6-.9c-.2-.3-.5-.5-.9-.6-.3-.2-.7-.2-1.1-.2-.4 0-.8.1-1.1.2-.3.2-.6.3-.9.6-.2.3-.5.6-.6.9-.2.3-.2.7-.2 1.1h5.6z"/><g><path class="st0" d="M107.8 48.2c-.9 0-1.7-.1-2.3-.4-.7-.3-1.3-.7-1.7-1.2-.5-.5-.8-1.1-1.1-1.8-.2-.7-.3-1.5-.3-2.3s.1-1.6.3-2.3.6-1.3 1.1-1.8c.5-.5 1-.9 1.7-1.2.7-.3 1.4-.4 2.3-.4.9 0 1.7.1 2.3.4.7.3 1.3.7 1.7 1.2s.8 1.1 1.1 1.8c.2.7.3 1.4.3 2.3s-.1 1.6-.3 2.3-.6 1.3-1.1 1.8c-.5.5-1 .9-1.7 1.2-.7.3-1.4.4-2.3.4zm0-1.9c.5 0 1-.1 1.4-.3.4-.2.7-.5 1-.9.3-.3.5-.7.6-1.2.1-.5.2-.9.2-1.4s-.1-.9-.2-1.4c-.1-.5-.3-.9-.6-1.2-.2-.3-.6-.6-1-.9-.4-.2-.9-.3-1.4-.3s-1 .1-1.4.3-.7.5-1 .9c-.2.3-.5.7-.6 1.2s-.2.9-.2 1.4.1.9.2 1.4.3.9.6 1.2c.3.3.6.6 1 .9.4.2.9.3 1.4.3zM115.2 37.2h2.2v1.6l.1.1c.3-.6.9-1.1 1.4-1.4.6-.3 1.3-.5 1.9-.5 1.2 0 2.1.3 2.8.9s1 1.5 1 2.7V48h-2.4v-6.8c0-.9-.2-1.5-.6-1.8-.3-.3-.9-.6-1.5-.6-.4 0-.7.1-1.1.2-.3.2-.6.3-.8.6s-.4.6-.5.9c-.1.3-.2.7-.2 1.1v6.3h-2.4l.1-10.7zM137.3 33h2.8l5.7 14.9H143l-1.4-3.9h-5.9l-1.4 3.9h-2.7l5.7-14.9zm-.9 9h4.6l-2.2-6.4h-.1l-2.3 6.4zM156.8 47.4c0 1.7-.5 2.9-1.4 3.6-.9.8-2.2 1.2-3.9 1.2-.6 0-1.1-.1-1.7-.2-.6-.1-1-.3-1.5-.6s-.9-.6-1.1-1c-.3-.5-.5-1-.6-1.6h2.4c.1.3.2.6.3.8.2.2.3.4.6.5.2.1.5.2.7.2.3.1.6.1.9.1 1 0 1.7-.2 2.1-.7.5-.5.7-1.1.7-2.1V46h-.1c-.3.6-.8 1.1-1.4 1.4-.6.3-1.2.5-1.9.5-.9 0-1.6-.2-2.2-.5s-1.1-.7-1.5-1.3c-.4-.6-.7-1.1-.9-1.8s-.3-1.4-.3-2.2c0-.7.1-1.4.3-2.1.2-.6.6-1.3 1-1.7s.9-.9 1.5-1.2c.6-.3 1.3-.5 2.1-.5.7 0 1.3.1 1.9.4s1 .7 1.3 1.4h.1v-1.5h2.4l.2 10.5zm-5.2-1.4c.5 0 1-.1 1.4-.3.3-.2.7-.5.9-.9.2-.3.4-.7.5-1.2s.2-.9.2-1.4c0-.5-.1-.9-.2-1.3-.1-.5-.3-.8-.5-1.1-.2-.3-.5-.6-.9-.8-.3-.2-.8-.3-1.3-.3s-1 .1-1.3.3c-.3.2-.6.5-.9.9-.2.3-.4.7-.5 1.2-.1.5-.2.9-.2 1.4 0 .5.1.9.2 1.3s.3.8.5 1.1c.2.3.5.6.9.8.2.2.7.3 1.2.3zM159.3 33h2.4v2.2h-2.4V33zm0 4.2h2.4V48h-2.4V37.2zM164.3 37.2h2.2v1.6l.1.1c.3-.6.9-1.1 1.4-1.4.6-.3 1.3-.5 1.9-.5 1.2 0 2.1.3 2.8.9s1 1.5 1 2.7V48h-2.4v-6.8c0-.9-.2-1.5-.6-1.8-.3-.3-.9-.6-1.5-.6-.4 0-.7.1-1.1.2s-.6.3-.8.6c-.2.3-.4.6-.5.9-.1.3-.2.7-.2 1.1v6.3h-2.4V37.2zM186.2 47.4c0 1.7-.5 2.9-1.4 3.6-.9.8-2.2 1.2-3.9 1.2-.6 0-1.1-.1-1.7-.2-.6-.1-1-.3-1.5-.6s-.9-.6-1.1-1c-.3-.5-.5-1-.6-1.6h2.4c.1.3.2.6.3.8.2.2.3.4.6.5.2.1.5.2.7.2.3.1.6.1.9.1 1 0 1.7-.2 2.1-.7s.7-1.1.7-2.1V46h-.1c-.3.6-.8 1.1-1.4 1.4-.6.3-1.2.5-1.9.5-.9 0-1.6-.2-2.2-.5-.6-.3-1.1-.7-1.5-1.3-.4-.6-.7-1.1-.9-1.8-.2-.7-.3-1.4-.3-2.2 0-.7.1-1.4.3-2.1.2-.6.6-1.3 1-1.7.4-.5.9-.9 1.5-1.2.6-.3 1.3-.5 2.1-.5.7 0 1.3.1 1.9.4s1 .7 1.3 1.4h.1v-1.5h2.4l.2 10.5zm-5.3-1.4c.5 0 1-.1 1.4-.3.3-.2.7-.5.9-.9.2-.3.4-.7.5-1.2s.2-.9.2-1.4c0-.5-.1-.9-.2-1.3-.1-.5-.3-.8-.5-1.1-.2-.3-.5-.6-.9-.8-.3-.2-.8-.3-1.3-.3s-1 .1-1.3.3c-.3.2-.6.5-.9.9-.2.3-.4.7-.5 1.2-.1.5-.2.9-.2 1.4 0 .5.1.9.2 1.3s.3.8.5 1.1c.2.3.5.6.9.8.3.2.7.3 1.2.3z"/></g></g></svg>