<?xml version="1.0" encoding="utf-8"?>
<!-- Generator: Adobe Illustrator 26.5.0, SVG Export Plug-In . SVG Version: 6.00 Build 0)  -->
<svg version="1.1" id="Layer_1" xmlns="http://www.w3.org/2000/svg" xmlns:xlink="http://www.w3.org/1999/xlink" x="0px" y="0px"
	 viewBox="0 0 651 220.8" style="enable-background:new 0 0 651 220.8;" xml:space="preserve">
<style type="text/css">
	.st0{fill:#FFC665;stroke:#FFC665;stroke-miterlimit:10;}
	.st1{fill:#FFFFFF;}
</style>
<g>
	<g>
		<path class="st0" d="M152.3,26.6V40c-7.8-3.8-15.5-5.7-22.9-5.7c-7.2,0-12.8,1.8-16.7,5.4c-3.9,3.6-5.8,8.3-5.8,13.9
			c0,5.4,1.9,9.8,5.8,13.1c3.9,3.3,9,5,15.4,5c3.4,0,6.8-0.7,10.2-2.2v-7.2h-8.9V51.2h24.2v25.1c-2.4,2.4-6.1,4.4-11.1,6
			c-5,1.5-9.9,2.3-14.7,2.3c-10.7,0-19.5-3-26.3-8.9c-6.9-5.9-10.3-13.4-10.3-22.5c0-9.3,3.4-16.9,10.3-22.8
			c6.9-5.9,15.8-8.8,26.7-8.8C137.1,21.6,145.2,23.3,152.3,26.6z"/>
		<path class="st0" d="M205.9,70.9v8.2c-5,3.6-11.1,5.4-18.5,5.4c-7.3,0-13.1-2-17.5-5.9c-4.4-3.9-6.5-9.1-6.5-15.6
			c0-6.3,2.1-11.5,6.2-15.6c4.1-4.1,9.3-6.1,15.7-6.1c6.4,0,11.6,2.1,15.7,6.4c4.1,4.3,6,10,5.7,17.2h-29.8c0.3,3.8,1.6,6.7,4,8.7
			c2.4,2,5.6,3,9.7,3C195.4,76.8,200.5,74.8,205.9,70.9z M177.1,58.2h18c-0.7-6-3.7-9.1-9-9.1C180.8,49.2,177.8,52.2,177.1,58.2z"/>
		<path class="st0" d="M228.1,42.3v5.9c3.8-4.5,8.3-6.8,13.5-6.8c4.3,0,7.9,1.4,10.8,4.1c2.9,2.8,4.3,6.7,4.3,11.8v26.4h-13.1V58.5
			c0-5.5-2.2-8.3-6.5-8.3c-3.1,0-6.1,2.3-9.1,6.9v26.8h-13.1V42.3H228.1z"/>
		<path class="st0" d="M289,41.4c6.5,0,12,1.9,16.5,5.7c4.5,3.8,6.8,9.1,6.8,15.9c0,6.8-2.3,12.1-6.9,15.9s-10.1,5.6-16.4,5.6
			c-6.9,0-12.5-2-16.9-6c-4.4-4-6.6-9.2-6.6-15.6c0-6.5,2.2-11.7,6.7-15.7S282.2,41.4,289,41.4z M289,76.8c6.2,0,9.4-4.7,9.4-14.1
			c0-9-3.1-13.5-9.4-13.5c-3,0-5.3,1.2-7,3.6c-1.7,2.4-2.5,5.8-2.5,10.2C279.4,72.2,282.6,76.8,289,76.8z"/>
		<path class="st0" d="M334.4,42.3v5.3c4.4-4.1,9.2-6.2,14.4-6.2c7.1,0,12.1,2.9,15,8.8c5-5.9,10.5-8.8,16.4-8.8
			c4.8,0,8.7,1.5,11.7,4.4c3,2.9,4.5,6.7,4.5,11.3v26.7h-13.1V59.4c0-2.9-0.7-5.2-2-6.8c-1.4-1.6-3.2-2.4-5.6-2.4
			c-3.8,0-7.3,2.3-10.3,7v26.6h-13V59.2c0-2.9-0.7-5.1-2.2-6.7c-1.4-1.6-3.4-2.3-5.8-2.3c-3.4,0-6.8,1.9-10,5.8v27.9h-13.1V42.3
			H334.4z"/>
		<path class="st0" d="M406.8,28.8c0-2,0.7-3.7,2.1-5.1s3.1-2.1,5.1-2.1c2,0,3.7,0.7,5.1,2.1s2.1,3.1,2.1,5.1c0,2-0.7,3.7-2.1,5.1
			c-1.4,1.4-3.1,2.1-5.1,2.1c-2,0-3.6-0.7-5.1-2.1C407.5,32.4,406.8,30.7,406.8,28.8z M420.6,42.3v41.5h-13.1V42.3H420.6z"/>
		<path class="st0" d="M467.9,72.4v9.4c-5.1,1.8-9.8,2.8-14,2.8c-7.3,0-13.1-2-17.5-5.9c-4.4-3.9-6.5-9.1-6.5-15.6
			c0-6.3,2.2-11.5,6.6-15.6c4.4-4.1,10-6.1,16.9-6.1c4.4,0,9.1,0.9,14,2.7v9.7c-3.6-1.8-7.1-2.8-10.6-2.8c-3.9,0-7,1.1-9.4,3.3
			s-3.5,5.1-3.5,8.7c0,3.7,1.1,6.6,3.4,8.9c2.3,2.2,5.3,3.4,9,3.4C459,75.3,462.9,74.3,467.9,72.4z"/>
		<path class="st0" d="M505.2,44.5v9.3c-5-3-9.6-4.6-13.8-4.6c-3.1,0-4.7,1.1-4.7,3.2c0,0.6,0.3,1.1,1,1.6c0.7,0.5,3.2,1.7,7.6,3.4
			c4.4,1.7,7.5,3.8,9.3,6.1c1.8,2.3,2.7,4.8,2.7,7.5c0,4.3-1.5,7.6-4.4,10c-2.9,2.3-7.1,3.5-12.5,3.5c-5.6,0-10.5-1-14.9-3v-9.2
			c5.3,2.3,9.8,3.5,13.4,3.5c4.2,0,6.3-1,6.3-3.1c0-0.8-0.4-1.5-1.2-2.2c-0.8-0.7-3.4-1.9-7.8-3.7c-4.5-1.7-7.5-3.7-9.1-5.7
			s-2.5-4.4-2.5-7c0-3.8,1.6-6.9,4.7-9.2c3.1-2.4,7.3-3.6,12.5-3.6C496.7,41.4,501.2,42.4,505.2,44.5z"/>
		<path class="st0" d="M516.4,22.4h27.1c10.5,0,18.7,2.9,24.8,8.6c6.1,5.7,9.1,13.1,9.1,22.2c0,9.5-3.1,17-9.2,22.4
			c-6.2,5.4-15,8.2-26.4,8.2h-25.4V22.4z M531.7,33.6v38.9h10c6.5,0,11.4-1.8,14.9-5.3c3.4-3.6,5.1-8.3,5.1-14.1
			c0-6-1.7-10.8-5.2-14.3c-3.5-3.5-8.5-5.2-15-5.2H531.7z"/>
		<path class="st0" d="M588.7,22.4h26.5c6.3,0,11.3,1.5,14.9,4.6c3.6,3,5.4,6.6,5.4,10.8c0,5.3-2.8,9.4-8.4,12.3
			c4.2,1.1,7.4,3.1,9.7,5.9c2.2,2.8,3.4,6.1,3.4,9.9c0,5.3-1.8,9.7-5.5,13c-3.7,3.3-9.1,5-16.2,5h-29.9V22.4z M604,33.6v13.1h8
			c2.5,0,4.4-0.6,5.8-1.9c1.4-1.3,2.1-2.8,2.1-4.7c0-1.9-0.7-3.4-2.1-4.7s-3.3-1.8-5.8-1.8H604z M604,58v14.5h8.6
			c4.1,0,7-0.6,8.8-1.7c1.8-1.1,2.7-3.1,2.7-5.9c0-2.1-0.8-3.8-2.5-5.1c-1.7-1.2-4-1.9-6.8-1.9H604z"/>
	</g>
</g>
<g>
	<path class="st1" d="M106.3,197.6H79.1l-43.4-78.9h-0.8c0.8,13.8,1.2,23.7,1.2,30v48.9h-19V93.4h26.8l43.4,77.7h0.4
		c-0.8-13.4-1.2-22.9-1.2-28.8V93.4h18.9C106.3,93.4,106.3,197.6,106.3,197.6z M131.6,197.6V93.4h21.3v104.2H131.6z M239.3,197.6
		l-7.1-24.9h-36.7l-7.5,24.9h-22.9L200.6,93h26l35.5,104.6L239.3,197.6L239.3,197.6z M227.1,154.2c-6.7-22.5-10.7-35.1-11.4-37.9
		c-0.7-2.8-1.6-5.1-2-7.1c-1.6,5.9-5.9,20.9-13,45H227.1L227.1,154.2z M313.1,138.8H353v53.7c-6.3,2-12.6,3.6-18.2,4.7
		c-5.9,0.8-11.4,1.2-17.4,1.2c-15,0-26.8-4.7-34.7-13.8c-7.9-9.5-11.8-22.5-11.8-39.9c0-17,4.7-30,13.8-39.1
		c9.5-9.5,22.1-14.2,38.7-14.2c10.3,0,20.1,2,30,6.3l-7.1,17.8c-7.5-3.9-15-5.9-22.9-5.9c-9.1,0-16.6,3.2-22.1,9.5s-8.3,15-8.3,26
		c0,11.4,2.4,19.7,6.7,26c4.3,5.9,11.1,9.1,19.3,9.1c4.3,0,9.1-0.4,13.4-1.6v-21.7h-18.9L313.1,138.8L313.1,138.8z"/>
	<path class="st1" d="M438.2,197.6l-7.1-24.9h-36.7l-7.1,24.9h-22.9L399.9,93h26l35.5,104.6L438.2,197.6L438.2,197.6z M426,154.2
		c-6.7-22.5-10.7-35.1-11.4-37.9c-0.8-2.8-1.6-5.1-2-7.1c-1.6,5.9-5.9,20.9-13,45H426L426,154.2z M557,144.4c0,17-4.7,30-14.2,39.5
		c-9.5,9.1-22.9,13.8-40.6,13.8h-28.4V93.4h31.6c16.6,0,29.2,4.3,38.3,13.4C552.7,115.9,557,128.2,557,144.4L557,144.4z
		 M534.9,145.1c0-22.1-9.5-33.5-28.4-33.5h-11.4v67.9h9.1C524.7,179.1,534.9,167.6,534.9,145.1z"/>
	<path class="st1" d="M637.1,168.4c0,9.5-3.2,17-9.9,22.1c-6.3,5.5-15.8,8.3-27.2,8.3c-10.7,0-20.1-2-28.4-6.3V172
		c6.7,3.2,12.6,5.5,17.4,6.7s9.1,2,13,2c4.7,0,8.3-0.8,10.7-2.8s3.6-4.7,3.6-8.3c0-2-0.4-3.9-1.6-5.5s-2.8-3.2-4.7-4.7
		s-6.3-3.9-13-7.1c-5.9-2.8-10.7-5.9-13.8-8.7s-5.5-5.9-7.5-9.5s-2.8-7.9-2.8-12.6c0-9.1,3.2-16.6,9.1-21.7s14.2-7.9,24.9-7.9
		c5.1,0,10.3,0.8,15,2s9.9,3.2,15,5.5l-6.7,17.4c-5.5-2.4-9.9-3.9-13.4-4.7c-3.6-0.8-7.1-1.6-10.3-1.6c-3.9,0-7.1,1.2-9.5,2.8
		c-2,2-3.2,4.3-3.2,7.5c0,2,0.4,3.6,1.2,5.1s2.4,2.8,4.3,4.3c2,1.6,6.3,3.9,13.4,7.1c9.5,4.7,15.8,9.5,19.3,13.8
		C635.6,156.2,637.1,161.7,637.1,168.4L637.1,168.4z"/>
</g>
</svg>
