<?xml version="1.0" encoding="utf-8"?>
<!-- Generator: Adobe Illustrator 15.0.0, SVG Export Plug-In . SVG Version: 6.00 Build 0)  -->
<!DOCTYPE svg PUBLIC "-//W3C//DTD SVG 1.1//EN" "http://www.w3.org/Graphics/SVG/1.1/DTD/svg11.dtd">
<svg version="1.1" id="Layer_1" xmlns="http://www.w3.org/2000/svg" xmlns:xlink="http://www.w3.org/1999/xlink" x="0px" y="0px"
	 width="1757.333px" height="339.333px" viewBox="-6.333 -4.333 1757.333 339.333"
	 enable-background="new -6.333 -4.333 1757.333 339.333" xml:space="preserve">
<g>
	<g>
		<g id="ideogram_group" transform="translate(50,0)">
			<defs>
				<path id="SVGID_1_" d="M43,0.5h1673c5,0,7.5,2.5,7.5,7.5l0,0c0,5-2.5,7.5-7.5,7.5H43c-5,0-7.5-2.5-7.5-7.5l0,0
					C35.5,3,38,0.5,43,0.5z"/>
			</defs>
			<clipPath id="SVGID_2_">
				<use xlink:href="#SVGID_1_"  overflow="visible"/>
			</clipPath>
			<g clip-path="url(#SVGID_2_)">
				<g>
					<rect x="35" fill="#FFFFFF" width="1689" height="16"/>
				</g>
				<g>
					<rect x="35" fill="#FFFFFF" width="1689" height="16"/>
				</g>
				<path fill="#FFFFFF" d="M42.12,791.5"/>
				<g>
					<rect x="35" y="1" fill="#E6E6E6" width="197.096" height="14"/>
					<rect x="232" y="1" fill="#ACACAC" width="199.953" height="14"/>
					<rect x="432" y="1" fill="#E6E6E6" width="2.856" height="14"/>
					<rect x="435" y="1" fill="#ACACAC" width="65.698" height="14"/>
					<rect x="501" y="1" fill="#E6E6E6" width="105.689" height="14"/>
					<rect x="606" y="1" fill="#E6E6E6" width="125.685" height="14"/>
					<path fill="#960000" d="M731.978,16V0l59.986,8L731.978,16z"/>
					<path fill="#960000" d="M851.949,16V0l-59.985,8L851.949,16z"/>
					<rect x="852" y="1" fill="#E6E6E6" width="108.546" height="14"/>
					<rect x="960" y="1" fill="#E6E6E6" width="88.551" height="14"/>
					<rect x="1049" y="1" fill="#ACACAC" width="79.981" height="14"/>
					<rect x="1129" y="1" fill="#E6E6E6" width="11.426" height="14"/>
					<rect x="1140" y="1" fill="#ACACAC" width="134.254" height="14"/>
					<rect x="1275" y="1" fill="#E6E6E6" width="51.416" height="14"/>
					<rect x="1326" y="1" fill="#ACACAC" width="79.981" height="14"/>
					<rect x="1406" y="1" fill="#E6E6E6" width="97.12" height="14"/>
					<rect x="1503" y="1" fill="#ACACAC" width="62.843" height="14"/>
					<rect x="1566" y="1" fill="#E6E6E6" width="77.125" height="14"/>
					<rect x="1643" y="1" fill="#ACACAC" width="80.809" height="14"/>
					<path fill="none" stroke="#292929" stroke-miterlimit="10" d="M43,0.5h1673c5,0,7.5,2.5,7.5,7.5l0,0c0,5-2.5,7.5-7.5,7.5H43
						c-5,0-7.5-2.5-7.5-7.5l0,0C35.5,3,38,0.5,43,0.5z"/>
					<g>
						<rect x="64.5" y="0.5" fill="none" stroke="#FF0000" stroke-miterlimit="10" width="1" height="15"/>
					</g>
				</g>
			</g>
		</g>
		<g>
			<defs>
				<rect id="SVGID_3_" x="35" y="16" width="1689" height="40"/>
			</defs>
			<clipPath id="SVGID_4_">
				<use xlink:href="#SVGID_3_"  overflow="visible"/>
			</clipPath>
			<g id="ruler_genomic_state_index_0_group" transform="translate(50,16)" clip-path="url(#SVGID_4_)">
				<g>
					<text transform="matrix(1 0 0 1 -653 32)" font-family="'ArialMT'" font-size="10">1,020 kb</text>
					<path fill="none" stroke="#000000" stroke-miterlimit="10" d="M-633.5,34.5v4"/>
					<text transform="matrix(1 0 0 1 -205 32)" font-family="'ArialMT'" font-size="10">1,030 kb</text>
					<path fill="none" stroke="#000000" stroke-miterlimit="10" d="M-185.5,34.5v4"/>
					<text transform="matrix(1 0 0 1 242 32)" font-family="'ArialMT'" font-size="10">1,040 kb</text>
					<path fill="none" stroke="#000000" stroke-miterlimit="10" d="M261.5,34.5v4"/>
					<text transform="matrix(1 0 0 1 689 32)" font-family="'ArialMT'" font-size="10">1,050 kb</text>
					<path fill="none" stroke="#000000" stroke-miterlimit="10" d="M708.5,34.5v4"/>
					<text transform="matrix(1 0 0 1 1136 32)" font-family="'ArialMT'" font-size="10">1,060 kb</text>
					<path fill="none" stroke="#000000" stroke-miterlimit="10" d="M1155.5,34.5v4"/>
					<text transform="matrix(1 0 0 1 1583 32)" font-family="'ArialMT'" font-size="10">1,070 kb</text>
					<path fill="none" stroke="#000000" stroke-miterlimit="10" d="M1602.5,34.5v4"/>
					<text transform="matrix(1 0 0 1 2031 32)" font-family="'ArialMT'" font-size="10">1,080 kb</text>
					<path fill="none" stroke="#000000" stroke-miterlimit="10" d="M2050.5,34.5v4"/>
					<text transform="matrix(1 0 0 1 -205.1821 32)" font-family="'ArialMT'" font-size="10">1,030 kb</text>
					<path fill="none" stroke="#000000" stroke-miterlimit="10" d="M-185.5,34.5v4"/>
					<path fill="none" stroke="#000000" stroke-miterlimit="10" d="M-74.5,34.5v4"/>
					<text transform="matrix(1 0 0 1 17.8179 32)" font-family="'ArialMT'" font-size="10">1,035 kb</text>
					<path fill="none" stroke="#000000" stroke-miterlimit="10" d="M37.5,34.5v4"/>
					<path fill="none" stroke="#000000" stroke-miterlimit="10" d="M149.5,34.5v4"/>
					<text transform="matrix(1 0 0 1 241.8179 32)" font-family="'ArialMT'" font-size="10">1,040 kb</text>
					<path fill="none" stroke="#000000" stroke-miterlimit="10" d="M261.5,34.5v4"/>
					<path fill="none" stroke="#000000" stroke-miterlimit="10" d="M373.5,34.5v4"/>
					<text transform="matrix(1 0 0 1 464.8179 32)" font-family="'ArialMT'" font-size="10">1,045 kb</text>
					<path fill="none" stroke="#000000" stroke-miterlimit="10" d="M484.5,34.5v4"/>
					<path fill="none" stroke="#000000" stroke-miterlimit="10" d="M596.5,34.5v4"/>
					<text transform="matrix(1 0 0 1 688.8179 32)" font-family="'ArialMT'" font-size="10">1,050 kb</text>
					<path fill="none" stroke="#000000" stroke-miterlimit="10" d="M708.5,34.5v4"/>
					<path fill="none" stroke="#000000" stroke-miterlimit="10" d="M820.5,34.5v4"/>
					<text transform="matrix(1 0 0 1 912.8184 32)" font-family="'ArialMT'" font-size="10">1,055 kb</text>
					<path fill="none" stroke="#000000" stroke-miterlimit="10" d="M932.5,34.5v4"/>
					<path fill="none" stroke="#000000" stroke-miterlimit="10" d="M1043.5,34.5v4"/>
					<text transform="matrix(1 0 0 1 1135.8184 32)" font-family="'ArialMT'" font-size="10">1,060 kb</text>
					<path fill="none" stroke="#000000" stroke-miterlimit="10" d="M1155.5,34.5v4"/>
					<path fill="none" stroke="#000000" stroke-miterlimit="10" d="M1267.5,34.5v4"/>
					<text transform="matrix(1 0 0 1 1359.8184 32)" font-family="'ArialMT'" font-size="10">1,065 kb</text>
					<path fill="none" stroke="#000000" stroke-miterlimit="10" d="M1379.5,34.5v4"/>
					<path fill="none" stroke="#000000" stroke-miterlimit="10" d="M1491.5,34.5v4"/>
					<text transform="matrix(1 0 0 1 1582.8184 32)" font-family="'ArialMT'" font-size="10">1,070 kb</text>
					<path fill="none" stroke="#000000" stroke-miterlimit="10" d="M1602.5,34.5v4"/>
					<path fill="none" stroke="#000000" stroke-miterlimit="10" d="M1714.5,34.5v4"/>
					<path fill="none" stroke="#000000" stroke-miterlimit="10" d="M-14.5,38.5h1689"/>
				</g>
			</g>
		</g>
		<g>
			<defs>
				<rect id="SVGID_5_" x="35" y="61" width="1689" height="25"/>
			</defs>
			<clipPath id="SVGID_6_">
				<use xlink:href="#SVGID_5_"  overflow="visible"/>
			</clipPath>
			<g id="sequence_genomic_state_index_0_group" transform="translate(50,61)" clip-path="url(#SVGID_6_)">
			</g>
		</g>
		<g>
			<defs>
				<rect id="SVGID_7_" x="-15" y="91" width="50" height="100"/>
			</defs>
			<clipPath id="SVGID_8_">
				<use xlink:href="#SVGID_7_"  overflow="visible"/>
			</clipPath>
			
				<g id="igaprarevariantsstage1kunkleetal2019_genomic_state_index_0_axis_group" transform="translate(0,91)" clip-path="url(#SVGID_8_)">
				<g>
					<g>
						<rect x="-15" fill="#FFFFFF" width="50" height="100"/>
					</g>
					<g>
						<path fill="none" stroke="#000000" stroke-miterlimit="10" d="M22.5,74.5h5"/>
					</g>
					<g>
						<text transform="matrix(1 0 0 1 15.9385 76)" font-family="'ArialMT'" font-size="10">4</text>
					</g>
					<g>
						<path fill="none" stroke="#000000" stroke-miterlimit="10" d="M22.5,56.5h5"/>
					</g>
					<g>
						<text transform="matrix(1 0 0 1 15.9385 58)" font-family="'ArialMT'" font-size="10">6</text>
					</g>
					<g>
						<path fill="none" stroke="#000000" stroke-miterlimit="10" d="M22.5,39.5h5"/>
					</g>
					<g>
						<text transform="matrix(1 0 0 1 15.9385 41)" font-family="'ArialMT'" font-size="10">8</text>
					</g>
					<g>
						<path fill="none" stroke="#000000" stroke-miterlimit="10" d="M22.5,22.5h5"/>
					</g>
					<g>
						<text transform="matrix(1 0 0 1 10.377 24)" font-family="'ArialMT'" font-size="10">10</text>
					</g>
					<g>
						<path fill="none" stroke="#000000" stroke-miterlimit="10" d="M22.5,4.5h5"/>
					</g>
					<g transform="translate(12.5,50) rotate(-90,0,0)">
						<text transform="matrix(1 0 0 1 -18.9629 -7.5)" font-family="'ArialMT'" font-size="10">-log10(pvalue)</text>
					</g>
				</g>
			</g>
		</g>
		<rect x="35" y="91" fill="none" width="1689" height="100"/>
		<g>
			<path fill="none" stroke="#E1E1E1" stroke-miterlimit="10" d="M35.5,190.5h1689"/>
		</g>
		<g>
			<path fill="#E75337" d="M81.814,183c0,1.104-0.896,2-2.001,1.999s-2-0.896-1.999-2.001s0.896-2,2.001-1.999
				c1.104,0.001,1.999,0.896,1.999,1.999"/>
			<path fill="none" stroke="#E75337" stroke-miterlimit="10" d="M81.814,183c0,1.104-0.896,2-2.001,1.999s-2-0.896-1.999-2.001
				s0.896-2,2.001-1.999c1.104,0.001,1.999,0.896,1.999,1.999"/>
			<path fill="#B4B4B4" d="M99.122,189c0.004,1.104-0.889,2.003-1.993,2.007c-1.104,0.003-2.003-0.89-2.007-1.993
				c-0.003-1.105,0.889-2.004,1.994-2.007c1.104-0.004,2.002,0.888,2.006,1.991"/>
			<path fill="none" stroke="#B4B4B4" stroke-miterlimit="10" d="M99.122,189c0.004,1.104-0.889,2.003-1.993,2.007
				c-1.104,0.003-2.003-0.89-2.007-1.993c-0.003-1.105,0.889-2.004,1.994-2.007c1.104-0.004,2.002,0.888,2.006,1.991"/>
			<path fill="#F88B51" d="M100.464,173c0,1.104-0.896,2-2.001,1.999s-2-0.896-1.999-2.001s0.896-2,2.001-1.999
				c1.104,0,1.999,0.896,1.999,1.999"/>
			<path fill="none" stroke="#F88B51" stroke-miterlimit="10" d="M100.464,173c0,1.104-0.896,2-2.001,1.999s-2-0.896-1.999-2.001
				s0.896-2,2.001-1.999c1.104,0,1.999,0.896,1.999,1.999"/>
			<path fill="#EF6941" d="M109.632,179c0,1.104-0.896,2-2.001,1.999s-2-0.896-1.999-2.001s0.896-2,2.001-1.999
				c1.104,0.001,1.999,0.896,1.999,1.999"/>
			<path fill="none" stroke="#EF6941" stroke-miterlimit="10" d="M109.632,179c0,1.104-0.896,2-2.001,1.999s-2-0.896-1.999-2.001
				s0.896-2,2.001-1.999c1.104,0.001,1.999,0.896,1.999,1.999"/>
			<path fill="#F6824D" d="M134.723,175c0,1.104-0.896,2-2.001,1.999s-2-0.896-1.999-2.001s0.896-2,2.001-1.999
				c1.104,0.001,1.999,0.896,1.999,1.999"/>
			<path fill="none" stroke="#F6824D" stroke-miterlimit="10" d="M134.723,175c0,1.104-0.896,2-2.001,1.999s-2-0.896-1.999-2.001
				s0.896-2,2.001-1.999c1.104,0.001,1.999,0.896,1.999,1.999"/>
			<path fill="#F57D4A" d="M147.961,176c0,1.104-0.896,2-2.001,1.999c-1.105-0.001-2-0.896-1.999-2.001s0.896-2,2.001-1.999
				c1.104,0.001,1.999,0.896,1.999,1.999"/>
			<path fill="none" stroke="#F57D4A" stroke-miterlimit="10" d="M147.961,176c0,1.104-0.896,2-2.001,1.999
				c-1.105-0.001-2-0.896-1.999-2.001s0.896-2,2.001-1.999c1.104,0.001,1.999,0.896,1.999,1.999"/>
			<path fill="#FED382" d="M153.775,159c0.004,1.104-0.889,2.003-1.993,2.007c-1.104,0.003-2.003-0.889-2.007-1.994
				c-0.003-1.104,0.889-2.003,1.994-2.006c1.104-0.004,2.001,0.887,2.006,1.991"/>
			<path fill="none" stroke="#FED382" stroke-miterlimit="10" d="M153.775,159c0.004,1.104-0.889,2.003-1.993,2.007
				c-1.104,0.003-2.003-0.889-2.007-1.994c-0.003-1.104,0.889-2.003,1.994-2.006c1.104-0.004,2.001,0.887,2.006,1.991"/>
			<path fill="#F7864F" d="M153.775,174c0.004,1.104-0.889,2.003-1.993,2.007c-1.104,0.003-2.003-0.89-2.007-1.993
				c-0.003-1.105,0.889-2.004,1.994-2.007c1.104-0.004,2.001,0.888,2.006,1.991"/>
			<path fill="none" stroke="#F7864F" stroke-miterlimit="10" d="M153.775,174c0.004,1.104-0.889,2.003-1.993,2.007
				c-1.104,0.003-2.003-0.89-2.007-1.993c-0.003-1.105,0.889-2.004,1.994-2.007c1.104-0.004,2.001,0.888,2.006,1.991"/>
			<path fill="#F57F4B" d="M154.312,175c0,1.104-0.896,2-2.001,1.999s-2-0.896-1.999-2.001s0.896-2,2.001-1.999
				c1.104,0.001,1.999,0.896,1.999,1.999"/>
			<path fill="none" stroke="#F57F4B" stroke-miterlimit="10" d="M154.312,175c0,1.104-0.896,2-2.001,1.999s-2-0.896-1.999-2.001
				s0.896-2,2.001-1.999c1.104,0.001,1.999,0.896,1.999,1.999"/>
			<path fill="#F57F4B" d="M154.849,175c0,1.104-0.896,2-2.001,1.999s-2-0.896-1.999-2.001c0.001-1.104,0.896-2,2.001-1.999
				c1.104,0.001,1.999,0.896,1.999,1.999"/>
			<path fill="none" stroke="#F57F4B" stroke-miterlimit="10" d="M154.849,175c0,1.104-0.896,2-2.001,1.999s-2-0.896-1.999-2.001
				c0.001-1.104,0.896-2,2.001-1.999c1.104,0.001,1.999,0.896,1.999,1.999"/>
			<path fill="#F6844E" d="M158.605,174c0,1.104-0.896,2-2.001,1.999c-1.104-0.001-2-0.896-1.999-2.001
				c0.001-1.104,0.896-2,2.001-1.999c1.104,0.001,1.999,0.896,1.999,1.999"/>
			<path fill="none" stroke="#F6844E" stroke-miterlimit="10" d="M158.605,174c0,1.104-0.896,2-2.001,1.999
				c-1.104-0.001-2-0.896-1.999-2.001c0.001-1.104,0.896-2,2.001-1.999c1.104,0.001,1.999,0.896,1.999,1.999"/>
			<path fill="#F6844E" d="M159.634,174c0,1.104-0.896,2-2.001,1.999s-2-0.896-1.999-2.001s0.896-2,2.001-1.999
				c1.104,0.001,1.999,0.896,1.999,1.999"/>
			<path fill="none" stroke="#F6844E" stroke-miterlimit="10" d="M159.634,174c0,1.104-0.896,2-2.001,1.999s-2-0.896-1.999-2.001
				s0.896-2,2.001-1.999c1.104,0.001,1.999,0.896,1.999,1.999"/>
			<path fill="#F57F4B" d="M162.139,175c0.004,1.104-0.889,2.003-1.993,2.007c-1.104,0.003-2.003-0.89-2.006-1.993
				c-0.004-1.105,0.889-2.004,1.993-2.007c1.104-0.004,2.002,0.888,2.006,1.991"/>
			<path fill="none" stroke="#F57F4B" stroke-miterlimit="10" d="M162.139,175c0.004,1.104-0.889,2.003-1.993,2.007
				c-1.104,0.003-2.003-0.89-2.006-1.993c-0.004-1.105,0.889-2.004,1.993-2.007c1.104-0.004,2.002,0.888,2.006,1.991"/>
			<path fill="#FEEB9F" d="M164.822,153c0,1.104-0.896,2-2.001,1.999s-2-0.896-1.999-2.001s0.896-2,2.001-1.999
				c1.104,0,1.999,0.895,1.999,1.999"/>
			<path fill="none" stroke="#FEEB9F" stroke-miterlimit="10" d="M164.822,153c0,1.104-0.896,2-2.001,1.999s-2-0.896-1.999-2.001
				s0.896-2,2.001-1.999c1.104,0,1.999,0.895,1.999,1.999"/>
			<path fill="#FEEB9F" d="M165.404,153c0,1.104-0.896,2-2.001,1.999s-2-0.896-1.999-2.001s0.896-2,2.001-1.999
				c1.104,0,1.999,0.895,1.999,1.999"/>
			<path fill="none" stroke="#FEEB9F" stroke-miterlimit="10" d="M165.404,153c0,1.104-0.896,2-2.001,1.999s-2-0.896-1.999-2.001
				s0.896-2,2.001-1.999c1.104,0,1.999,0.895,1.999,1.999"/>
			<path fill="#F57F4B" d="M166.03,175c0,1.104-0.896,2-2.001,1.999s-2-0.896-1.999-2.001s0.896-2,2.001-1.999
				c1.104,0.001,1.999,0.896,1.999,1.999"/>
			<path fill="none" stroke="#F57F4B" stroke-miterlimit="10" d="M166.03,175c0,1.104-0.896,2-2.001,1.999s-2-0.896-1.999-2.001
				s0.896-2,2.001-1.999c1.104,0.001,1.999,0.896,1.999,1.999"/>
			<path fill="#F57F4B" d="M169.384,175c0,1.104-0.896,2-2.001,1.999s-2-0.896-1.999-2.001s0.896-2,2.001-1.999
				c1.104,0.001,1.999,0.896,1.999,1.999"/>
			<path fill="none" stroke="#F57F4B" stroke-miterlimit="10" d="M169.384,175c0,1.104-0.896,2-2.001,1.999s-2-0.896-1.999-2.001
				s0.896-2,2.001-1.999c1.104,0.001,1.999,0.896,1.999,1.999"/>
			<path fill="#F99355" d="M174.751,172c0,1.104-0.896,2-2.001,1.999c-1.104-0.001-2-0.896-1.999-2.001
				c0.001-1.104,0.896-2,2.001-1.999c1.104,0,1.999,0.895,1.999,1.999"/>
			<path fill="none" stroke="#F99355" stroke-miterlimit="10" d="M174.751,172c0,1.104-0.896,2-2.001,1.999
				c-1.104-0.001-2-0.896-1.999-2.001c0.001-1.104,0.896-2,2.001-1.999c1.104,0,1.999,0.895,1.999,1.999"/>
			<path fill="#F47A49" d="M183.473,176c-0.001,1.104-0.896,2-2.001,1.999c-1.105-0.001-2-0.896-1.999-2.001
				c0-1.104,0.896-2,2.001-1.999c1.104,0.001,1.998,0.896,1.999,1.999"/>
			<path fill="none" stroke="#F47A49" stroke-miterlimit="10" d="M183.473,176c-0.001,1.104-0.896,2-2.001,1.999
				c-1.105-0.001-2-0.896-1.999-2.001c0-1.104,0.896-2,2.001-1.999c1.104,0.001,1.998,0.896,1.999,1.999"/>
			<path fill="#F99858" d="M186.245,171c0.008,1.104-0.881,2.006-1.985,2.014s-2.006-0.881-2.014-1.985s0.881-2.006,1.985-2.014
				c1.104-0.008,2.005,0.88,2.014,1.984"/>
			<path fill="none" stroke="#F99858" stroke-miterlimit="10" d="M186.245,171c0.008,1.104-0.881,2.006-1.985,2.014
				s-2.006-0.881-2.014-1.985s0.881-2.006,1.985-2.014c1.104-0.008,2.005,0.88,2.014,1.984"/>
			<path fill="#FA9C5A" d="M203.285,170c0,1.104-0.896,2-2.001,1.999c-1.104-0.001-2-0.896-1.999-2.001
				c0.001-1.104,0.896-2,2.001-1.999c1.104,0,1.999,0.895,1.999,1.999"/>
			<path fill="none" stroke="#FA9C5A" stroke-miterlimit="10" d="M203.285,170c0,1.104-0.896,2-2.001,1.999
				c-1.104-0.001-2-0.896-1.999-2.001c0.001-1.104,0.896-2,2.001-1.999c1.104,0,1.999,0.895,1.999,1.999"/>
			<path fill="#FA9C5A" d="M203.822,170c-0.001,1.104-0.896,2-2.001,1.999c-1.105-0.001-2-0.896-1.999-2.001
				c0-1.104,0.896-2,2.001-1.999c1.104,0,1.998,0.895,1.999,1.999"/>
			<path fill="none" stroke="#FA9C5A" stroke-miterlimit="10" d="M203.822,170c-0.001,1.104-0.896,2-2.001,1.999
				c-1.105-0.001-2-0.896-1.999-2.001c0-1.104,0.896-2,2.001-1.999c1.104,0,1.998,0.895,1.999,1.999"/>
			<path fill="#FA9C5A" d="M204.761,170c0,1.104-0.896,2-2.001,1.999s-2-0.896-1.999-2.001s0.896-2,2.001-1.999
				c1.104,0,1.999,0.895,1.999,1.999"/>
			<path fill="none" stroke="#FA9C5A" stroke-miterlimit="10" d="M204.761,170c0,1.104-0.896,2-2.001,1.999s-2-0.896-1.999-2.001
				s0.896-2,2.001-1.999c1.104,0,1.999,0.895,1.999,1.999"/>
			<path fill="#F6844E" d="M220.325,175c0,1.104-0.896,2-2.001,1.999s-2-0.896-1.999-2.001s0.896-2,2.001-1.999
				c1.104,0.001,1.999,0.896,1.999,1.999"/>
			<path fill="none" stroke="#F6844E" stroke-miterlimit="10" d="M220.325,175c0,1.104-0.896,2-2.001,1.999s-2-0.896-1.999-2.001
				s0.896-2,2.001-1.999c1.104,0.001,1.999,0.896,1.999,1.999"/>
			<path fill="#F89054" d="M220.728,172c0,1.104-0.896,2-2.001,1.999c-1.105-0.001-2-0.896-1.999-2.001s0.896-2,2.001-1.999
				c1.104,0,1.999,0.895,1.999,1.999"/>
			<path fill="none" stroke="#F89054" stroke-miterlimit="10" d="M220.728,172c0,1.104-0.896,2-2.001,1.999
				c-1.105-0.001-2-0.896-1.999-2.001s0.896-2,2.001-1.999c1.104,0,1.999,0.895,1.999,1.999"/>
			<path fill="#FED887" d="M222.74,158c0,1.104-0.896,2-2.001,1.999c-1.104,0-2-0.896-1.999-2.001c0.001-1.104,0.896-2,2.001-1.999
				c1.104,0,1.998,0.895,1.999,1.999"/>
			<path fill="none" stroke="#FED887" stroke-miterlimit="10" d="M222.74,158c0,1.104-0.896,2-2.001,1.999
				c-1.104,0-2-0.896-1.999-2.001c0.001-1.104,0.896-2,2.001-1.999c1.104,0,1.998,0.895,1.999,1.999"/>
			<path fill="#FED685" d="M222.74,158c0,1.104-0.896,2-2.001,1.999c-1.104,0-2-0.896-1.999-2.001c0.001-1.104,0.896-2,2.001-1.999
				c1.104,0,1.998,0.895,1.999,1.999"/>
			<path fill="none" stroke="#FED685" stroke-miterlimit="10" d="M222.74,158c0,1.104-0.896,2-2.001,1.999
				c-1.104,0-2-0.896-1.999-2.001c0.001-1.104,0.896-2,2.001-1.999c1.104,0,1.998,0.895,1.999,1.999"/>
			<path fill="#B4B4B4" d="M226.766,191c0,1.104-0.896,2-2.001,1.999s-2-0.896-1.999-2.001s0.896-2,2.001-1.999
				c1.104,0.001,1.999,0.896,1.999,1.999"/>
			<path fill="none" stroke="#B4B4B4" stroke-miterlimit="10" d="M226.766,191c0,1.104-0.896,2-2.001,1.999s-2-0.896-1.999-2.001
				s0.896-2,2.001-1.999c1.104,0.001,1.999,0.896,1.999,1.999"/>
			<path fill="#F7864F" d="M233.295,174c0.008,1.104-0.881,2.006-1.986,2.014s-2.006-0.881-2.014-1.985s0.881-2.006,1.986-2.015
				c1.104-0.008,2.005,0.881,2.014,1.984"/>
			<path fill="none" stroke="#F7864F" stroke-miterlimit="10" d="M233.295,174c0.008,1.104-0.881,2.006-1.986,2.014
				s-2.006-0.881-2.014-1.985s0.881-2.006,1.986-2.015c1.104-0.008,2.005,0.881,2.014,1.984"/>
			<path fill="#F47A49" d="M243.269,176c0,1.104-0.896,2-2.001,1.999s-2-0.896-1.999-2.001s0.896-2,2.001-1.999
				c1.104,0.001,1.999,0.896,1.999,1.999"/>
			<path fill="none" stroke="#F47A49" stroke-miterlimit="10" d="M243.269,176c0,1.104-0.896,2-2.001,1.999s-2-0.896-1.999-2.001
				s0.896-2,2.001-1.999c1.104,0.001,1.999,0.896,1.999,1.999"/>
			<path fill="#F6F8AD" d="M248.904,144c0,1.104-0.896,2-2.001,1.999s-2-0.896-1.999-2.001s0.896-2,2.001-1.999
				c1.104,0,1.999,0.895,1.999,1.999"/>
			<path fill="none" stroke="#F6F8AD" stroke-miterlimit="10" d="M248.904,144c0,1.104-0.896,2-2.001,1.999s-2-0.896-1.999-2.001
				s0.896-2,2.001-1.999c1.104,0,1.999,0.895,1.999,1.999"/>
			<path fill="#E14733" d="M261.919,185c0,1.104-0.896,2-2.001,1.999s-2-0.896-1.999-2.001s0.896-2,2.001-1.999
				c1.104,0.001,1.999,0.896,1.999,1.999"/>
			<path fill="none" stroke="#E14733" stroke-miterlimit="10" d="M261.919,185c0,1.104-0.896,2-2.001,1.999s-2-0.896-1.999-2.001
				s0.896-2,2.001-1.999c1.104,0.001,1.999,0.896,1.999,1.999"/>
			<path fill="#F6824D" d="M262.322,175c-0.001,1.104-0.896,2-2.001,1.999c-1.105-0.001-2-0.896-1.999-2.001
				c0-1.104,0.896-2,2.001-1.999c1.104,0.001,1.998,0.896,1.999,1.999"/>
			<path fill="none" stroke="#F6824D" stroke-miterlimit="10" d="M262.322,175c-0.001,1.104-0.896,2-2.001,1.999
				c-1.105-0.001-2-0.896-1.999-2.001c0-1.104,0.896-2,2.001-1.999c1.104,0.001,1.998,0.896,1.999,1.999"/>
			<path fill="#F47A49" d="M263.306,176c0,1.104-0.896,2-2.001,1.999c-1.105-0.001-2-0.896-1.999-2.001s0.896-2,2.001-1.999
				c1.104,0.001,1.999,0.896,1.999,1.999"/>
			<path fill="none" stroke="#F47A49" stroke-miterlimit="10" d="M263.306,176c0,1.104-0.896,2-2.001,1.999
				c-1.105-0.001-2-0.896-1.999-2.001s0.896-2,2.001-1.999c1.104,0.001,1.999,0.896,1.999,1.999"/>
			<path fill="#F57F4B" d="M267.867,175c0,1.104-0.896,2-2.001,1.999c-1.104-0.001-2-0.896-1.999-2.001
				c0.001-1.104,0.896-2,2.001-1.999c1.104,0.001,1.999,0.896,1.999,1.999"/>
			<path fill="none" stroke="#F57F4B" stroke-miterlimit="10" d="M267.867,175c0,1.104-0.896,2-2.001,1.999
				c-1.104-0.001-2-0.896-1.999-2.001c0.001-1.104,0.896-2,2.001-1.999c1.104,0.001,1.999,0.896,1.999,1.999"/>
			<path fill="#FDEFA5" d="M274.621,151c0,1.104-0.896,2-2.001,1.999c-1.104,0-2-0.896-1.999-2.001s0.896-2,2.001-1.999
				c1.104,0,1.999,0.895,1.999,1.999"/>
			<path fill="none" stroke="#FDEFA5" stroke-miterlimit="10" d="M274.621,151c0,1.104-0.896,2-2.001,1.999
				c-1.104,0-2-0.896-1.999-2.001s0.896-2,2.001-1.999c1.104,0,1.999,0.895,1.999,1.999"/>
			<path fill="#F37848" d="M274.889,176c0,1.104-0.896,2-2.001,1.999s-2-0.896-1.999-2.001s0.896-2,2.001-1.999
				c1.104,0.001,1.999,0.896,1.999,1.999"/>
			<path fill="none" stroke="#F37848" stroke-miterlimit="10" d="M274.889,176c0,1.104-0.896,2-2.001,1.999s-2-0.896-1.999-2.001
				s0.896-2,2.001-1.999c1.104,0.001,1.999,0.896,1.999,1.999"/>
			<path fill="#F7F8AD" d="M276.41,145c0,1.104-0.896,2-2.001,1.999s-2-0.896-1.999-2.001s0.896-2,2.001-1.999
				c1.104,0,1.999,0.895,1.999,1.999"/>
			<path fill="none" stroke="#F7F8AD" stroke-miterlimit="10" d="M276.41,145c0,1.104-0.896,2-2.001,1.999s-2-0.896-1.999-2.001
				s0.896-2,2.001-1.999c1.104,0,1.999,0.895,1.999,1.999"/>
			<path fill="#6FC063" d="M276.41,115c0,1.104-0.896,2-2.001,1.999s-2-0.896-1.999-2.001s0.896-2,2.001-1.999
				c1.104,0,1.999,0.895,1.999,1.999"/>
			<path fill="none" stroke="#6FC063" stroke-miterlimit="10" d="M276.41,115c0,1.104-0.896,2-2.001,1.999s-2-0.896-1.999-2.001
				s0.896-2,2.001-1.999c1.104,0,1.999,0.895,1.999,1.999"/>
			<path fill="#E7F59F" d="M282.537,139c0,1.104-0.896,2-2.001,1.999s-2-0.896-1.999-2.001s0.896-2,2.001-1.999
				c1.104,0,1.999,0.895,1.999,1.999"/>
			<path fill="none" stroke="#E7F59F" stroke-miterlimit="10" d="M282.537,139c0,1.104-0.896,2-2.001,1.999s-2-0.896-1.999-2.001
				s0.896-2,2.001-1.999c1.104,0,1.999,0.895,1.999,1.999"/>
			<path fill="#FBA15D" d="M286.428,169c-0.001,1.104-0.896,2-2.001,1.999c-1.105,0-2-0.896-1.999-2.001
				c0-1.104,0.896-2,2.001-1.999c1.104,0,1.998,0.895,1.999,1.999"/>
			<path fill="none" stroke="#FBA15D" stroke-miterlimit="10" d="M286.428,169c-0.001,1.104-0.896,2-2.001,1.999
				c-1.105,0-2-0.896-1.999-2.001c0-1.104,0.896-2,2.001-1.999c1.104,0,1.998,0.895,1.999,1.999"/>
			<path fill="#CAE983" d="M287.949,132c0,1.104-0.896,2-2.001,1.999s-2-0.896-1.999-2.001s0.896-2,2.001-1.999
				c1.104,0,1.999,0.895,1.999,1.999"/>
			<path fill="none" stroke="#CAE983" stroke-miterlimit="10" d="M287.949,132c0,1.104-0.896,2-2.001,1.999s-2-0.896-1.999-2.001
				s0.896-2,2.001-1.999c1.104,0,1.999,0.895,1.999,1.999"/>
			<path fill="#1E924D" d="M287.949,101c0,1.104-0.896,2-2.001,1.999s-2-0.896-1.999-2.001s0.896-2,2.001-1.999
				c1.104,0,1.999,0.895,1.999,1.999"/>
			<path fill="none" stroke="#1E924D" stroke-miterlimit="10" d="M287.949,101c0,1.104-0.896,2-2.001,1.999s-2-0.896-1.999-2.001
				s0.896-2,2.001-1.999c1.104,0,1.999,0.895,1.999,1.999"/>
			<path fill="#E95839" d="M290.856,182c-0.001,1.104-0.896,2-2.001,1.999c-1.105-0.001-2-0.896-1.999-2.001
				c0-1.104,0.896-2,2.001-1.999c1.104,0.001,1.998,0.896,1.999,1.999"/>
			<path fill="none" stroke="#E95839" stroke-miterlimit="10" d="M290.856,182c-0.001,1.104-0.896,2-2.001,1.999
				c-1.105-0.001-2-0.896-1.999-2.001c0-1.104,0.896-2,2.001-1.999c1.104,0.001,1.998,0.896,1.999,1.999"/>
			<path fill="#FED180" d="M296.089,159c-0.001,1.104-0.896,2-2.001,1.999s-2-0.896-1.999-2.001c0-1.104,0.896-2,2.001-1.999
				c1.104,0,1.998,0.895,1.999,1.999"/>
			<path fill="none" stroke="#FED180" stroke-miterlimit="10" d="M296.089,159c-0.001,1.104-0.896,2-2.001,1.999
				s-2-0.896-1.999-2.001c0-1.104,0.896-2,2.001-1.999c1.104,0,1.998,0.895,1.999,1.999"/>
			<path fill="#D7382D" d="M296.178,188c0,1.104-0.896,2-2.001,1.999s-1.999-0.896-1.999-2.001c0.001-1.104,0.896-2,2.001-1.999
				s1.999,0.896,1.999,1.999"/>
			<path fill="none" stroke="#D7382D" stroke-miterlimit="10" d="M296.178,188c0,1.104-0.896,2-2.001,1.999
				s-1.999-0.896-1.999-2.001c0.001-1.104,0.896-2,2.001-1.999s1.999,0.896,1.999,1.999"/>
			<path fill="#F88B51" d="M312.413,173c-0.001,1.104-0.896,2-2.001,1.999s-2-0.896-1.999-2.001c0-1.104,0.896-2,2.001-1.999
				c1.104,0,1.998,0.896,1.999,1.999"/>
			<path fill="none" stroke="#F88B51" stroke-miterlimit="10" d="M312.413,173c-0.001,1.104-0.896,2-2.001,1.999
				s-2-0.896-1.999-2.001c0-1.104,0.896-2,2.001-1.999c1.104,0,1.998,0.896,1.999,1.999"/>
			<path fill="#BCE37A" d="M314.873,129c-0.001,1.104-0.896,2-2.001,1.999s-2-0.896-1.999-2.001c0-1.104,0.896-2,2.001-1.999
				c1.104,0,1.998,0.895,1.999,1.999"/>
			<path fill="none" stroke="#BCE37A" stroke-miterlimit="10" d="M314.873,129c-0.001,1.104-0.896,2-2.001,1.999
				s-2-0.896-1.999-2.001c0-1.104,0.896-2,2.001-1.999c1.104,0,1.998,0.895,1.999,1.999"/>
			<path fill="#DC3E2F" d="M329.9,187c-0.001,1.104-0.896,2-2.001,1.999s-2-0.896-1.999-2.001c0-1.104,0.896-2,2.001-1.999
				c1.104,0.001,1.998,0.896,1.999,1.999"/>
			<path fill="none" stroke="#DC3E2F" stroke-miterlimit="10" d="M329.9,187c-0.001,1.104-0.896,2-2.001,1.999s-2-0.896-1.999-2.001
				c0-1.104,0.896-2,2.001-1.999c1.104,0.001,1.998,0.896,1.999,1.999"/>
			<path fill="#CEEA86" d="M347.029,133c0,1.104-0.896,2-2.001,1.999s-1.999-0.896-1.999-2.001c0.001-1.104,0.896-2,2.001-1.999
				s1.999,0.895,1.999,1.999"/>
			<path fill="none" stroke="#CEEA86" stroke-miterlimit="10" d="M347.029,133c0,1.104-0.896,2-2.001,1.999
				s-1.999-0.896-1.999-2.001c0.001-1.104,0.896-2,2.001-1.999s1.999,0.895,1.999,1.999"/>
			<path fill="#8BCD68" d="M347.029,120c0,1.104-0.896,2-2.001,1.999s-1.999-0.896-1.999-2.001c0.001-1.104,0.896-2,2.001-1.999
				s1.999,0.895,1.999,1.999"/>
			<path fill="none" stroke="#8BCD68" stroke-miterlimit="10" d="M347.029,120c0,1.104-0.896,2-2.001,1.999
				s-1.999-0.896-1.999-2.001c0.001-1.104,0.896-2,2.001-1.999s1.999,0.895,1.999,1.999"/>
			<path fill="#DA3C2E" d="M347.388,187c-0.001,1.104-0.896,2-2.001,1.999s-2-0.896-1.999-2.001c0-1.104,0.896-2,2.001-1.999
				c1.104,0.001,1.998,0.896,1.999,1.999"/>
			<path fill="none" stroke="#DA3C2E" stroke-miterlimit="10" d="M347.388,187c-0.001,1.104-0.896,2-2.001,1.999
				s-2-0.896-1.999-2.001c0-1.104,0.896-2,2.001-1.999c1.104,0.001,1.998,0.896,1.999,1.999"/>
			<path fill="#DA3C2E" d="M364.875,187c-0.001,1.104-0.896,2-2.001,1.999s-2-0.896-1.999-2.001c0-1.104,0.896-2,2.001-1.999
				c1.104,0.001,1.998,0.896,1.999,1.999"/>
			<path fill="none" stroke="#DA3C2E" stroke-miterlimit="10" d="M364.875,187c-0.001,1.104-0.896,2-2.001,1.999
				s-2-0.896-1.999-2.001c0-1.104,0.896-2,2.001-1.999c1.104,0.001,1.998,0.896,1.999,1.999"/>
			<path fill="#FDC878" d="M373.283,162c-0.001,1.104-0.896,2-2.001,1.999s-2-0.896-1.999-2.001c0-1.104,0.896-2,2.001-1.999
				c1.104,0,1.998,0.895,1.999,1.999"/>
			<path fill="none" stroke="#FDC878" stroke-miterlimit="10" d="M373.283,162c-0.001,1.104-0.896,2-2.001,1.999
				s-2-0.896-1.999-2.001c0-1.104,0.896-2,2.001-1.999c1.104,0,1.998,0.895,1.999,1.999"/>
			<path fill="#FBF5AC" d="M373.283,148c-0.001,1.104-0.896,2-2.001,1.999s-2-0.896-1.999-2.001c0-1.104,0.896-2,2.001-1.999
				c1.104,0,1.998,0.895,1.999,1.999"/>
			<path fill="none" stroke="#FBF5AC" stroke-miterlimit="10" d="M373.283,148c-0.001,1.104-0.896,2-2.001,1.999
				s-2-0.896-1.999-2.001c0-1.104,0.896-2,2.001-1.999c1.104,0,1.998,0.895,1.999,1.999"/>
			<path fill="#DC3E2F" d="M395.646,187c-0.001,1.104-0.896,2-2.002,1.999c-1.104-0.001-1.999-0.896-1.998-2.001
				c0-1.104,0.896-2,2.001-1.999c1.104,0.001,1.998,0.896,1.999,1.999"/>
			<path fill="none" stroke="#DC3E2F" stroke-miterlimit="10" d="M395.646,187c-0.001,1.104-0.896,2-2.002,1.999
				c-1.104-0.001-1.999-0.896-1.998-2.001c0-1.104,0.896-2,2.001-1.999c1.104,0.001,1.998,0.896,1.999,1.999"/>
			<path fill="#C8E882" d="M438.446,131c-0.001,1.104-0.896,2-2.001,1.999s-2-0.896-1.999-2.001s0.896-2,2.001-1.999
				c1.104,0,1.998,0.895,1.999,1.999"/>
			<path fill="none" stroke="#C8E882" stroke-miterlimit="10" d="M438.446,131c-0.001,1.104-0.896,2-2.001,1.999
				s-2-0.896-1.999-2.001s0.896-2,2.001-1.999c1.104,0,1.998,0.895,1.999,1.999"/>
			<path fill="#77C464" d="M438.446,116c-0.001,1.104-0.896,2-2.001,1.999s-2-0.896-1.999-2.001s0.896-2,2.001-1.999
				c1.104,0,1.998,0.895,1.999,1.999"/>
			<path fill="none" stroke="#77C464" stroke-miterlimit="10" d="M438.446,116c-0.001,1.104-0.896,2-2.001,1.999
				s-2-0.896-1.999-2.001s0.896-2,2.001-1.999c1.104,0,1.998,0.895,1.999,1.999"/>
			<path fill="#DD4030" d="M440.28,186c-0.001,1.104-0.896,2-2.001,1.999s-2-0.896-1.999-2.001c0-1.104,0.896-2,2.001-1.999
				c1.104,0.001,1.998,0.896,1.999,1.999"/>
			<path fill="none" stroke="#DD4030" stroke-miterlimit="10" d="M440.28,186c-0.001,1.104-0.896,2-2.001,1.999
				s-2-0.896-1.999-2.001c0-1.104,0.896-2,2.001-1.999c1.104,0.001,1.998,0.896,1.999,1.999"/>
			<path fill="#F37848" d="M451.596,177c-0.001,1.104-0.896,2-2.001,1.999c-1.105-0.001-2-0.896-1.999-2.001
				c0-1.104,0.896-2,2.001-1.999c1.104,0.001,1.998,0.896,1.999,1.999"/>
			<path fill="none" stroke="#F37848" stroke-miterlimit="10" d="M451.596,177c-0.001,1.104-0.896,2-2.001,1.999
				c-1.105-0.001-2-0.896-1.999-2.001c0-1.104,0.896-2,2.001-1.999c1.104,0.001,1.998,0.896,1.999,1.999"/>
			<path fill="#F06B42" d="M461.479,179c-0.001,1.104-0.896,2-2.001,1.999s-2-0.896-1.999-2.001c0-1.104,0.896-2,2.001-1.999
				c1.104,0.001,1.998,0.896,1.999,1.999"/>
			<path fill="none" stroke="#F06B42" stroke-miterlimit="10" d="M461.479,179c-0.001,1.104-0.896,2-2.001,1.999
				s-2-0.896-1.999-2.001c0-1.104,0.896-2,2.001-1.999c1.104,0.001,1.998,0.896,1.999,1.999"/>
			<path fill="#D93A2E" d="M472.705,188c0,1.104-0.896,2-2.001,1.999s-1.999-0.896-1.999-2.001c0.001-1.104,0.896-2,2.001-1.999
				c1.104,0.001,1.999,0.896,1.999,1.999"/>
			<path fill="none" stroke="#D93A2E" stroke-miterlimit="10" d="M472.705,188c0,1.104-0.896,2-2.001,1.999
				s-1.999-0.896-1.999-2.001c0.001-1.104,0.896-2,2.001-1.999c1.104,0.001,1.999,0.896,1.999,1.999"/>
			<path fill="#E1F298" d="M475.522,138c0,1.104-0.896,2-2.001,1.999s-1.999-0.896-1.999-2.001c0.001-1.104,0.896-2,2.001-1.999
				s1.999,0.895,1.999,1.999"/>
			<path fill="none" stroke="#E1F298" stroke-miterlimit="10" d="M475.522,138c0,1.104-0.896,2-2.001,1.999
				s-1.999-0.896-1.999-2.001c0.001-1.104,0.896-2,2.001-1.999s1.999,0.895,1.999,1.999"/>
			<path fill="#1F944E" d="M475.522,102c0,1.104-0.896,2-2.001,1.999s-1.999-0.896-1.999-2.001c0.001-1.104,0.896-2,2.001-1.999
				s1.999,0.895,1.999,1.999"/>
			<path fill="none" stroke="#1F944E" stroke-miterlimit="10" d="M475.522,102c0,1.104-0.896,2-2.001,1.999
				s-1.999-0.896-1.999-2.001c0.001-1.104,0.896-2,2.001-1.999s1.999,0.895,1.999,1.999"/>
			<path fill="#D6352C" d="M480.442,188c0,1.104-0.896,2-2.001,1.999s-1.999-0.896-1.999-2.001c0.001-1.104,0.896-2,2.001-1.999
				c1.104,0.001,1.999,0.896,1.999,1.999"/>
			<path fill="none" stroke="#D6352C" stroke-miterlimit="10" d="M480.442,188c0,1.104-0.896,2-2.001,1.999
				s-1.999-0.896-1.999-2.001c0.001-1.104,0.896-2,2.001-1.999c1.104,0.001,1.999,0.896,1.999,1.999"/>
			<path fill="#F16E43" d="M480.442,178c0,1.104-0.896,2-2.001,1.999s-1.999-0.896-1.999-2.001c0.001-1.104,0.896-2,2.001-1.999
				c1.104,0.001,1.999,0.896,1.999,1.999"/>
			<path fill="none" stroke="#F16E43" stroke-miterlimit="10" d="M480.442,178c0,1.104-0.896,2-2.001,1.999
				s-1.999-0.896-1.999-2.001c0.001-1.104,0.896-2,2.001-1.999c1.104,0.001,1.999,0.896,1.999,1.999"/>
			<path fill="#D7EE8E" d="M485.631,135c-0.001,1.104-0.896,2-2.001,1.999s-2-0.896-1.999-2.001c0-1.104,0.896-2,2.001-1.999
				c1.104,0,1.998,0.895,1.999,1.999"/>
			<path fill="none" stroke="#D7EE8E" stroke-miterlimit="10" d="M485.631,135c-0.001,1.104-0.896,2-2.001,1.999
				s-2-0.896-1.999-2.001c0-1.104,0.896-2,2.001-1.999c1.104,0,1.998,0.895,1.999,1.999"/>
			<path fill="#9CD56C" d="M485.631,122c-0.001,1.104-0.896,2-2.001,1.999s-2-0.896-1.999-2.001c0-1.104,0.896-2,2.001-1.999
				c1.104,0,1.998,0.895,1.999,1.999"/>
			<path fill="none" stroke="#9CD56C" stroke-miterlimit="10" d="M485.631,122c-0.001,1.104-0.896,2-2.001,1.999
				s-2-0.896-1.999-2.001c0-1.104,0.896-2,2.001-1.999c1.104,0,1.998,0.895,1.999,1.999"/>
			<path fill="#D93A2E" d="M488.627,187c0,1.104-0.896,2-2.001,1.999s-1.999-0.896-1.999-2.001c0.001-1.104,0.896-2,2.001-1.999
				c1.104,0.001,1.999,0.896,1.999,1.999"/>
			<path fill="none" stroke="#D93A2E" stroke-miterlimit="10" d="M488.627,187c0,1.104-0.896,2-2.001,1.999
				s-1.999-0.896-1.999-2.001c0.001-1.104,0.896-2,2.001-1.999c1.104,0.001,1.999,0.896,1.999,1.999"/>
			<path fill="#D93A2E" d="M490.729,188c-0.001,1.104-0.896,2-2.001,1.999s-2-0.896-1.999-2.001c0-1.104,0.896-2,2.001-1.999
				c1.104,0.001,1.998,0.896,1.999,1.999"/>
			<path fill="none" stroke="#D93A2E" stroke-miterlimit="10" d="M490.729,188c-0.001,1.104-0.896,2-2.001,1.999
				s-2-0.896-1.999-2.001c0-1.104,0.896-2,2.001-1.999c1.104,0.001,1.998,0.896,1.999,1.999"/>
			<path fill="#B4B4B4" d="M491.489,190c0,1.104-0.896,2-2.001,1.999s-1.999-0.896-1.999-2.001c0.001-1.104,0.896-2,2.001-1.999
				s1.999,0.896,1.999,1.999"/>
			<path fill="none" stroke="#B4B4B4" stroke-miterlimit="10" d="M491.489,190c0,1.104-0.896,2-2.001,1.999
				s-1.999-0.896-1.999-2.001c0.001-1.104,0.896-2,2.001-1.999s1.999,0.896,1.999,1.999"/>
			<path fill="#D93A2E" d="M505.265,187c-0.001,1.104-0.896,2-2.001,1.999s-2-0.896-1.999-2.001c0-1.104,0.896-2,2.001-1.999
				c1.104,0.001,1.998,0.896,1.999,1.999"/>
			<path fill="none" stroke="#D93A2E" stroke-miterlimit="10" d="M505.265,187c-0.001,1.104-0.896,2-2.001,1.999
				s-2-0.896-1.999-2.001c0-1.104,0.896-2,2.001-1.999c1.104,0.001,1.998,0.896,1.999,1.999"/>
			<path fill="#D93A2E" d="M505.443,188c0,1.104-0.896,2-2.001,1.999s-1.999-0.896-1.999-2.001c0.001-1.104,0.896-2,2.001-1.999
				c1.104,0.001,1.999,0.896,1.999,1.999"/>
			<path fill="none" stroke="#D93A2E" stroke-miterlimit="10" d="M505.443,188c0,1.104-0.896,2-2.001,1.999
				s-1.999-0.896-1.999-2.001c0.001-1.104,0.896-2,2.001-1.999c1.104,0.001,1.999,0.896,1.999,1.999"/>
			<path fill="#FEEA9D" d="M506.383,153c-0.001,1.104-0.896,2-2.001,1.999s-2-0.896-1.999-2.001c0-1.104,0.896-2,2.001-1.999
				c1.104,0,1.998,0.895,1.999,1.999"/>
			<path fill="none" stroke="#FEEA9D" stroke-miterlimit="10" d="M506.383,153c-0.001,1.104-0.896,2-2.001,1.999
				s-2-0.896-1.999-2.001c0-1.104,0.896-2,2.001-1.999c1.104,0,1.998,0.895,1.999,1.999"/>
			<path fill="#D93A2E" d="M523.557,188c0,1.104-0.896,2-2.001,1.999s-1.999-0.896-1.999-2.001c0.001-1.104,0.896-2,2.001-1.999
				s1.999,0.896,1.999,1.999"/>
			<path fill="none" stroke="#D93A2E" stroke-miterlimit="10" d="M523.557,188c0,1.104-0.896,2-2.001,1.999
				s-1.999-0.896-1.999-2.001c0.001-1.104,0.896-2,2.001-1.999s1.999,0.896,1.999,1.999"/>
			<path fill="#F7864F" d="M525.391,174c-0.001,1.104-0.896,2-2.001,1.999s-2-0.896-1.999-2.001s0.896-2,2.001-1.999
				c1.104,0.001,1.998,0.896,1.999,1.999"/>
			<path fill="none" stroke="#F7864F" stroke-miterlimit="10" d="M525.391,174c-0.001,1.104-0.896,2-2.001,1.999
				s-2-0.896-1.999-2.001s0.896-2,2.001-1.999c1.104,0.001,1.998,0.896,1.999,1.999"/>
			<path fill="#ED643F" d="M525.391,180c-0.001,1.104-0.896,2-2.001,1.999s-2-0.896-1.999-2.001s0.896-2,2.001-1.999
				c1.104,0.001,1.998,0.896,1.999,1.999"/>
			<path fill="none" stroke="#ED643F" stroke-miterlimit="10" d="M525.391,180c-0.001,1.104-0.896,2-2.001,1.999
				s-2-0.896-1.999-2.001s0.896-2,2.001-1.999c1.104,0.001,1.998,0.896,1.999,1.999"/>
			<path fill="#B4B4B4" d="M544.175,189c-0.001,1.104-0.896,2-2.001,1.999s-2-0.896-1.999-2.001s0.896-2,2.001-1.999
				c1.104,0.001,1.998,0.896,1.999,1.999"/>
			<path fill="none" stroke="#B4B4B4" stroke-miterlimit="10" d="M544.175,189c-0.001,1.104-0.896,2-2.001,1.999
				s-2-0.896-1.999-2.001s0.896-2,2.001-1.999c1.104,0.001,1.998,0.896,1.999,1.999"/>
			<path fill="#DC3E2F" d="M561.841,187c0,1.104-0.896,2-2.001,1.999s-1.999-0.896-1.999-2.001c0.001-1.104,0.896-2,2.001-1.999
				c1.104,0.001,1.999,0.896,1.999,1.999"/>
			<path fill="none" stroke="#DC3E2F" stroke-miterlimit="10" d="M561.841,187c0,1.104-0.896,2-2.001,1.999
				s-1.999-0.896-1.999-2.001c0.001-1.104,0.896-2,2.001-1.999c1.104,0.001,1.999,0.896,1.999,1.999"/>
			<path fill="#F27346" d="M570.651,177c0,1.104-0.896,2-2.001,1.999s-1.999-0.896-1.999-2.001c0.001-1.104,0.896-2,2.001-1.999
				s1.999,0.896,1.999,1.999"/>
			<path fill="none" stroke="#F27346" stroke-miterlimit="10" d="M570.651,177c0,1.104-0.896,2-2.001,1.999
				s-1.999-0.896-1.999-2.001c0.001-1.104,0.896-2,2.001-1.999s1.999,0.896,1.999,1.999"/>
			<path fill="#FED887" d="M579.954,158c0,1.104-0.896,2-2.001,1.999s-1.999-0.896-1.999-2.001c0.001-1.104,0.896-2,2.001-1.999
				s1.999,0.895,1.999,1.999"/>
			<path fill="none" stroke="#FED887" stroke-miterlimit="10" d="M579.954,158c0,1.104-0.896,2-2.001,1.999
				s-1.999-0.896-1.999-2.001c0.001-1.104,0.896-2,2.001-1.999s1.999,0.895,1.999,1.999"/>
			<path fill="#F6824D" d="M584.561,175c0,1.104-0.896,2-2.001,1.999c-1.104-0.001-1.999-0.896-1.999-2.001
				c0.001-1.104,0.896-2,2.001-1.999s1.999,0.896,1.999,1.999"/>
			<path fill="none" stroke="#F6824D" stroke-miterlimit="10" d="M584.561,175c0,1.104-0.896,2-2.001,1.999
				c-1.104-0.001-1.999-0.896-1.999-2.001c0.001-1.104,0.896-2,2.001-1.999s1.999,0.896,1.999,1.999"/>
			<path fill="#C4E67F" d="M604.419,130c-0.001,1.104-0.896,2-2.001,1.999s-2-0.896-1.999-2.001c0-1.104,0.896-2,2.001-1.999
				c1.104,0,1.998,0.895,1.999,1.999"/>
			<path fill="none" stroke="#C4E67F" stroke-miterlimit="10" d="M604.419,130c-0.001,1.104-0.896,2-2.001,1.999
				s-2-0.896-1.999-2.001c0-1.104,0.896-2,2.001-1.999c1.104,0,1.998,0.895,1.999,1.999"/>
			<path fill="#1097E6" d="M604.419,93c-0.001,1.104-0.896,2-2.001,1.999s-2-0.896-1.999-2.001c0-1.104,0.896-2,2.001-1.999
				c1.104,0,1.998,0.895,1.999,1.999"/>
			<path fill="none" stroke="#1097E6" stroke-miterlimit="10" d="M604.419,93c-0.001,1.104-0.896,2-2.001,1.999
				s-2-0.896-1.999-2.001c0-1.104,0.896-2,2.001-1.999c1.104,0,1.998,0.895,1.999,1.999"/>
			<path fill="#E1F298" d="M614.616,138c-0.001,1.104-0.896,2-2.002,1.999c-1.104,0-1.999-0.896-1.998-2.001
				c0-1.104,0.896-2,2-1.999s1.999,0.895,2,1.999"/>
			<path fill="none" stroke="#E1F298" stroke-miterlimit="10" d="M614.616,138c-0.001,1.104-0.896,2-2.002,1.999
				c-1.104,0-1.999-0.896-1.998-2.001c0-1.104,0.896-2,2-1.999s1.999,0.895,2,1.999"/>
			<path fill="#C0E47C" d="M629.375,130c-0.001,1.104-0.896,2-2.001,1.999s-2-0.896-1.999-2.001c0-1.104,0.896-2,2.001-1.999
				c1.104,0,1.998,0.895,1.999,1.999"/>
			<path fill="none" stroke="#C0E47C" stroke-miterlimit="10" d="M629.375,130c-0.001,1.104-0.896,2-2.001,1.999
				s-2-0.896-1.999-2.001c0-1.104,0.896-2,2.001-1.999c1.104,0,1.998,0.895,1.999,1.999"/>
			<path fill="#1097E6" d="M629.375,93c-0.001,1.104-0.896,2-2.001,1.999s-2-0.896-1.999-2.001c0-1.104,0.896-2,2.001-1.999
				c1.104,0,1.998,0.895,1.999,1.999"/>
			<path fill="none" stroke="#1097E6" stroke-miterlimit="10" d="M629.375,93c-0.001,1.104-0.896,2-2.001,1.999
				s-2-0.896-1.999-2.001c0-1.104,0.896-2,2.001-1.999c1.104,0,1.998,0.895,1.999,1.999"/>
			<path fill="#DA3C2E" d="M633.087,187c-0.001,1.104-0.896,2-2.001,1.999s-2-0.896-1.999-2.001s0.896-2,2.001-1.999
				c1.104,0.001,1.998,0.896,1.999,1.999"/>
			<path fill="none" stroke="#DA3C2E" stroke-miterlimit="10" d="M633.087,187c-0.001,1.104-0.896,2-2.001,1.999
				s-2-0.896-1.999-2.001s0.896-2,2.001-1.999c1.104,0.001,1.998,0.896,1.999,1.999"/>
			<path fill="#DA3C2E" d="M649.903,187c-0.001,1.104-0.896,2-2.001,1.999s-2-0.896-1.999-2.001s0.896-2,2.001-1.999
				c1.104,0.001,1.998,0.896,1.999,1.999"/>
			<path fill="none" stroke="#DA3C2E" stroke-miterlimit="10" d="M649.903,187c-0.001,1.104-0.896,2-2.001,1.999
				s-2-0.896-1.999-2.001s0.896-2,2.001-1.999c1.104,0.001,1.998,0.896,1.999,1.999"/>
			<path fill="#C2E57E" d="M656.612,130c-0.001,1.104-0.896,2-2.001,1.999s-2-0.896-1.999-2.001c0-1.104,0.896-2,2.001-1.999
				c1.104,0,1.998,0.895,1.999,1.999"/>
			<path fill="none" stroke="#C2E57E" stroke-miterlimit="10" d="M656.612,130c-0.001,1.104-0.896,2-2.001,1.999
				s-2-0.896-1.999-2.001c0-1.104,0.896-2,2.001-1.999c1.104,0,1.998,0.895,1.999,1.999"/>
			<path fill="#B4B4B4" d="M656.612,93c-0.001,1.104-0.896,2-2.001,1.999s-2-0.896-1.999-2.001c0-1.104,0.896-2,2.001-1.999
				c1.104,0,1.998,0.895,1.999,1.999"/>
			<path fill="none" stroke="#B4B4B4" stroke-miterlimit="10" d="M656.612,93c-0.001,1.104-0.896,2-2.001,1.999
				s-2-0.896-1.999-2.001c0-1.104,0.896-2,2.001-1.999c1.104,0,1.998,0.895,1.999,1.999"/>
			<path fill="#C4E67F" d="M671.55,131c0,1.104-0.896,2-2.001,1.999s-1.999-0.896-1.999-2.001c0.001-1.104,0.896-2,2.001-1.999
				c1.104,0,1.999,0.895,1.999,1.999"/>
			<path fill="none" stroke="#C4E67F" stroke-miterlimit="10" d="M671.55,131c0,1.104-0.896,2-2.001,1.999s-1.999-0.896-1.999-2.001
				c0.001-1.104,0.896-2,2.001-1.999c1.104,0,1.999,0.895,1.999,1.999"/>
			<path fill="#CCE985" d="M672.892,132c0,1.104-0.896,2-2.001,1.999s-1.999-0.896-1.999-2.001c0.001-1.104,0.896-2,2.001-1.999
				c1.104,0,1.999,0.895,1.999,1.999"/>
			<path fill="none" stroke="#CCE985" stroke-miterlimit="10" d="M672.892,132c0,1.104-0.896,2-2.001,1.999
				s-1.999-0.896-1.999-2.001c0.001-1.104,0.896-2,2.001-1.999c1.104,0,1.999,0.895,1.999,1.999"/>
			<path fill="#C8E882" d="M675.799,132c-0.001,1.104-0.896,2-2.001,1.999s-2-0.896-1.999-2.001s0.896-2,2.001-1.999
				c1.104,0,1.998,0.895,1.999,1.999"/>
			<path fill="none" stroke="#C8E882" stroke-miterlimit="10" d="M675.799,132c-0.001,1.104-0.896,2-2.001,1.999
				s-2-0.896-1.999-2.001s0.896-2,2.001-1.999c1.104,0,1.998,0.895,1.999,1.999"/>
			<path fill="#DC3E2F" d="M682.373,187c0,1.104-0.896,2-2.001,1.999s-1.999-0.896-1.999-2.001c0.001-1.104,0.896-2,2.001-1.999
				c1.104,0.001,1.999,0.896,1.999,1.999"/>
			<path fill="none" stroke="#DC3E2F" stroke-miterlimit="10" d="M682.373,187c0,1.104-0.896,2-2.001,1.999
				s-1.999-0.896-1.999-2.001c0.001-1.104,0.896-2,2.001-1.999c1.104,0.001,1.999,0.896,1.999,1.999"/>
			<path fill="#CCE985" d="M688.188,132c-0.001,1.104-0.896,2-2.001,1.999s-2-0.896-1.999-2.001c0-1.104,0.896-2,2.001-1.999
				c1.104,0,1.998,0.895,1.999,1.999"/>
			<path fill="none" stroke="#CCE985" stroke-miterlimit="10" d="M688.188,132c-0.001,1.104-0.896,2-2.001,1.999
				s-2-0.896-1.999-2.001c0-1.104,0.896-2,2.001-1.999c1.104,0,1.998,0.895,1.999,1.999"/>
			<path fill="#36A456" d="M688.188,106c-0.001,1.104-0.896,2-2.001,1.999s-2-0.896-1.999-2.001c0-1.104,0.896-2,2.001-1.999
				c1.104,0,1.998,0.895,1.999,1.999"/>
			<path fill="none" stroke="#36A456" stroke-miterlimit="10" d="M688.188,106c-0.001,1.104-0.896,2-2.001,1.999
				s-2-0.896-1.999-2.001c0-1.104,0.896-2,2.001-1.999c1.104,0,1.998,0.895,1.999,1.999"/>
			<path fill="#DD4030" d="M708.135,186c-0.001,1.104-0.896,2-2.001,1.999s-2-0.896-1.999-2.001c0-1.104,0.896-2,2.001-1.999
				c1.104,0.001,1.998,0.896,1.999,1.999"/>
			<path fill="none" stroke="#DD4030" stroke-miterlimit="10" d="M708.135,186c-0.001,1.104-0.896,2-2.001,1.999
				s-2-0.896-1.999-2.001c0-1.104,0.896-2,2.001-1.999c1.104,0.001,1.998,0.896,1.999,1.999"/>
			<path fill="#EE6640" d="M715.872,180c-0.001,1.104-0.896,2-2.001,1.999s-2-0.896-1.999-2.001c0-1.104,0.896-2,2.001-1.999
				c1.104,0.001,1.998,0.896,1.999,1.999"/>
			<path fill="none" stroke="#EE6640" stroke-miterlimit="10" d="M715.872,180c-0.001,1.104-0.896,2-2.001,1.999
				s-2-0.896-1.999-2.001c0-1.104,0.896-2,2.001-1.999c1.104,0.001,1.998,0.896,1.999,1.999"/>
			<path fill="#EB5D3C" d="M722.715,181c-0.001,1.104-0.896,2-2.001,1.999s-2-0.896-1.999-2.001c0-1.104,0.896-2,2.001-1.999
				c1.104,0.001,1.998,0.896,1.999,1.999"/>
			<path fill="none" stroke="#EB5D3C" stroke-miterlimit="10" d="M722.715,181c-0.001,1.104-0.896,2-2.001,1.999
				s-2-0.896-1.999-2.001c0-1.104,0.896-2,2.001-1.999c1.104,0.001,1.998,0.896,1.999,1.999"/>
			<path fill="#FED685" d="M727.366,159c-0.001,1.104-0.896,2-2.001,1.999s-2-0.896-1.999-2.001c0-1.104,0.896-2,2.001-1.999
				c1.104,0,1.998,0.895,1.999,1.999"/>
			<path fill="none" stroke="#FED685" stroke-miterlimit="10" d="M727.366,159c-0.001,1.104-0.896,2-2.001,1.999
				s-2-0.896-1.999-2.001c0-1.104,0.896-2,2.001-1.999c1.104,0,1.998,0.895,1.999,1.999"/>
			<path fill="#E1F298" d="M727.366,138c-0.001,1.104-0.896,2-2.001,1.999s-2-0.896-1.999-2.001c0-1.104,0.896-2,2.001-1.999
				c1.104,0,1.998,0.895,1.999,1.999"/>
			<path fill="none" stroke="#E1F298" stroke-miterlimit="10" d="M727.366,138c-0.001,1.104-0.896,2-2.001,1.999
				s-2-0.896-1.999-2.001c0-1.104,0.896-2,2.001-1.999c1.104,0,1.998,0.895,1.999,1.999"/>
			<path fill="#DC3E2F" d="M728.976,187c0,1.104-0.896,2-2,1.999c-1.105-0.001-2-0.896-2-2.001c0.001-1.104,0.896-2,2.002-1.999
				c1.104,0.001,1.998,0.896,1.998,1.999"/>
			<path fill="none" stroke="#DC3E2F" stroke-miterlimit="10" d="M728.976,187c0,1.104-0.896,2-2,1.999
				c-1.105-0.001-2-0.896-2-2.001c0.001-1.104,0.896-2,2.002-1.999c1.104,0.001,1.998,0.896,1.998,1.999"/>
			<path fill="#FBF5AC" d="M736.803,148c0,1.104-0.896,2-2.001,1.999s-1.999-0.896-1.999-2.001c0.001-1.104,0.896-2,2.001-1.999
				c1.104,0,1.999,0.895,1.999,1.999"/>
			<path fill="none" stroke="#FBF5AC" stroke-miterlimit="10" d="M736.803,148c0,1.104-0.896,2-2.001,1.999
				s-1.999-0.896-1.999-2.001c0.001-1.104,0.896-2,2.001-1.999c1.104,0,1.999,0.895,1.999,1.999"/>
			<path fill="#DA3C2E" d="M746.598,187c-0.001,1.104-0.896,2-2.001,1.999s-2-0.896-1.999-2.001c0-1.104,0.896-2,2.001-1.999
				c1.104,0.001,1.998,0.896,1.999,1.999"/>
			<path fill="none" stroke="#DA3C2E" stroke-miterlimit="10" d="M746.598,187c-0.001,1.104-0.896,2-2.001,1.999
				s-2-0.896-1.999-2.001c0-1.104,0.896-2,2.001-1.999c1.104,0.001,1.998,0.896,1.999,1.999"/>
			<path fill="#DE4331" d="M748.387,186c-0.001,1.104-0.896,2-2.001,1.999s-2-0.896-1.999-2.001c0-1.104,0.896-2,2.001-1.999
				c1.104,0.001,1.998,0.896,1.999,1.999"/>
			<path fill="none" stroke="#DE4331" stroke-miterlimit="10" d="M748.387,186c-0.001,1.104-0.896,2-2.001,1.999
				s-2-0.896-1.999-2.001c0-1.104,0.896-2,2.001-1.999c1.104,0.001,1.998,0.896,1.999,1.999"/>
			<path fill="#B4B4B4" d="M751.785,189c0,1.104-0.896,2-2.001,1.999s-1.999-0.896-1.999-2.001c0.001-1.104,0.896-2,2.001-1.999
				s1.999,0.896,1.999,1.999"/>
			<path fill="none" stroke="#B4B4B4" stroke-miterlimit="10" d="M751.785,189c0,1.104-0.896,2-2.001,1.999
				s-1.999-0.896-1.999-2.001c0.001-1.104,0.896-2,2.001-1.999s1.999,0.896,1.999,1.999"/>
			<path fill="#EB5D3C" d="M752.948,181c0,1.104-0.896,2-2.001,1.999s-1.999-0.896-1.999-2.001c0.001-1.104,0.896-2,2.001-1.999
				c1.104,0.001,1.999,0.896,1.999,1.999"/>
			<path fill="none" stroke="#EB5D3C" stroke-miterlimit="10" d="M752.948,181c0,1.104-0.896,2-2.001,1.999
				s-1.999-0.896-1.999-2.001c0.001-1.104,0.896-2,2.001-1.999c1.104,0.001,1.999,0.896,1.999,1.999"/>
			<path fill="#DC3E2F" d="M753.664,187c-0.001,1.104-0.896,2-2.001,1.999s-2-0.896-1.999-2.001c0-1.104,0.896-2,2.001-1.999
				c1.104,0.001,1.998,0.896,1.999,1.999"/>
			<path fill="none" stroke="#DC3E2F" stroke-miterlimit="10" d="M753.664,187c-0.001,1.104-0.896,2-2.001,1.999
				s-2-0.896-1.999-2.001c0-1.104,0.896-2,2.001-1.999c1.104,0.001,1.998,0.896,1.999,1.999"/>
			<path fill="#B4B4B4" d="M754.647,189c0,1.104-0.896,2-2.001,1.999s-1.999-0.896-1.999-2.001c0.001-1.104,0.896-2,2.001-1.999
				s1.999,0.896,1.999,1.999"/>
			<path fill="none" stroke="#B4B4B4" stroke-miterlimit="10" d="M754.647,189c0,1.104-0.896,2-2.001,1.999
				s-1.999-0.896-1.999-2.001c0.001-1.104,0.896-2,2.001-1.999s1.999,0.896,1.999,1.999"/>
			<path fill="#B4B4B4" d="M757.152,190c0,1.104-0.896,2-2.001,1.999s-1.999-0.896-1.999-2.001c0.001-1.104,0.896-2,2.001-1.999
				c1.104,0.001,1.999,0.896,1.999,1.999"/>
			<path fill="none" stroke="#B4B4B4" stroke-miterlimit="10" d="M757.152,190c0,1.104-0.896,2-2.001,1.999
				s-1.999-0.896-1.999-2.001c0.001-1.104,0.896-2,2.001-1.999c1.104,0.001,1.999,0.896,1.999,1.999"/>
			<path fill="#F06B42" d="M757.6,179c-0.001,1.104-0.896,2-2.001,1.999s-2-0.896-1.999-2.001s0.896-2,2.001-1.999
				c1.104,0.001,1.998,0.896,1.999,1.999"/>
			<path fill="none" stroke="#F06B42" stroke-miterlimit="10" d="M757.6,179c-0.001,1.104-0.896,2-2.001,1.999s-2-0.896-1.999-2.001
				s0.896-2,2.001-1.999c1.104,0.001,1.998,0.896,1.999,1.999"/>
			<path fill="#D6352C" d="M757.868,188c-0.001,1.104-0.896,2-2.001,1.999s-2-0.896-1.999-2.001c0-1.104,0.896-2,2.001-1.999
				c1.104,0.001,1.998,0.896,1.999,1.999"/>
			<path fill="none" stroke="#D6352C" stroke-miterlimit="10" d="M757.868,188c-0.001,1.104-0.896,2-2.001,1.999
				s-2-0.896-1.999-2.001c0-1.104,0.896-2,2.001-1.999c1.104,0.001,1.998,0.896,1.999,1.999"/>
			<path fill="#FEE496" d="M765.874,154c-0.001,1.104-0.896,2-2.001,1.999s-2-0.896-1.999-2.001c0-1.104,0.896-2,2.001-1.999
				c1.104,0,1.998,0.895,1.999,1.999"/>
			<path fill="none" stroke="#FEE496" stroke-miterlimit="10" d="M765.874,154c-0.001,1.104-0.896,2-2.001,1.999
				s-2-0.896-1.999-2.001c0-1.104,0.896-2,2.001-1.999c1.104,0,1.998,0.895,1.999,1.999"/>
			<path fill="#74C364" d="M765.874,116c-0.001,1.104-0.896,2-2.001,1.999s-2-0.896-1.999-2.001c0-1.104,0.896-2,2.001-1.999
				c1.104,0,1.998,0.895,1.999,1.999"/>
			<path fill="none" stroke="#74C364" stroke-miterlimit="10" d="M765.874,116c-0.001,1.104-0.896,2-2.001,1.999
				s-2-0.896-1.999-2.001c0-1.104,0.896-2,2.001-1.999c1.104,0,1.998,0.895,1.999,1.999"/>
			<path fill="#E24A33" d="M783.764,185c-0.001,1.104-0.896,2-2.001,1.999s-2-0.896-1.999-2.001c0-1.104,0.896-2,2.001-1.999
				c1.104,0.001,1.998,0.896,1.999,1.999"/>
			<path fill="none" stroke="#E24A33" stroke-miterlimit="10" d="M783.764,185c-0.001,1.104-0.896,2-2.001,1.999
				s-2-0.896-1.999-2.001c0-1.104,0.896-2,2.001-1.999c1.104,0.001,1.998,0.896,1.999,1.999"/>
			<path fill="#F99355" d="M786.671,172c-0.001,1.104-0.896,2-2.001,1.999s-2-0.896-1.999-2.001c0-1.104,0.896-2,2.001-1.999
				c1.104,0,1.998,0.895,1.999,1.999"/>
			<path fill="none" stroke="#F99355" stroke-miterlimit="10" d="M786.671,172c-0.001,1.104-0.896,2-2.001,1.999
				s-2-0.896-1.999-2.001c0-1.104,0.896-2,2.001-1.999c1.104,0,1.998,0.895,1.999,1.999"/>
			<path fill="#FEE698" d="M797.449,154c-0.001,1.104-0.896,2-2.001,1.999s-2-0.896-1.999-2.001s0.896-2,2.001-1.999
				c1.104,0,1.998,0.895,1.999,1.999"/>
			<path fill="none" stroke="#FEE698" stroke-miterlimit="10" d="M797.449,154c-0.001,1.104-0.896,2-2.001,1.999
				s-2-0.896-1.999-2.001s0.896-2,2.001-1.999c1.104,0,1.998,0.895,1.999,1.999"/>
			<path fill="#77C464" d="M799.148,116c0,1.104-0.896,2-2.001,1.999s-1.999-0.896-1.999-2.001c0.001-1.104,0.896-2,2.001-1.999
				s1.999,0.895,1.999,1.999"/>
			<path fill="none" stroke="#77C464" stroke-miterlimit="10" d="M799.148,116c0,1.104-0.896,2-2.001,1.999
				s-1.999-0.896-1.999-2.001c0.001-1.104,0.896-2,2.001-1.999s1.999,0.895,1.999,1.999"/>
			<path fill="#F89054" d="M810.911,172c0,1.104-0.896,2-2.001,1.999s-1.999-0.896-1.999-2.001c0.001-1.104,0.896-2,2.001-1.999
				c1.104,0,1.999,0.895,1.999,1.999"/>
			<path fill="none" stroke="#F89054" stroke-miterlimit="10" d="M810.911,172c0,1.104-0.896,2-2.001,1.999
				s-1.999-0.896-1.999-2.001c0.001-1.104,0.896-2,2.001-1.999c1.104,0,1.999,0.895,1.999,1.999"/>
			<path fill="#FED584" d="M814.354,159c0,1.104-0.896,2-2,1.999c-1.105,0-2-0.896-2-2.001c0.001-1.104,0.896-2,2.002-1.999
				c1.104,0,1.998,0.895,1.998,1.999"/>
			<path fill="none" stroke="#FED584" stroke-miterlimit="10" d="M814.354,159c0,1.104-0.896,2-2,1.999c-1.105,0-2-0.896-2-2.001
				c0.001-1.104,0.896-2,2.002-1.999c1.104,0,1.998,0.895,1.998,1.999"/>
			<path fill="#FEDA89" d="M814.354,157c0,1.104-0.896,2-2,1.999c-1.105,0-2-0.896-2-2.001c0.001-1.104,0.896-2,2.002-1.999
				c1.104,0,1.998,0.895,1.998,1.999"/>
			<path fill="none" stroke="#FEDA89" stroke-miterlimit="10" d="M814.354,157c0,1.104-0.896,2-2,1.999c-1.105,0-2-0.896-2-2.001
				c0.001-1.104,0.896-2,2.002-1.999c1.104,0,1.998,0.895,1.998,1.999"/>
			<path fill="#B4B4B4" d="M868.874,190c-0.001,1.104-0.896,2-2.001,1.999s-2-0.896-1.999-2.001s0.896-2,2.001-1.999
				c1.104,0.001,1.998,0.896,1.999,1.999"/>
			<path fill="none" stroke="#B4B4B4" stroke-miterlimit="10" d="M868.874,190c-0.001,1.104-0.896,2-2.001,1.999
				s-2-0.896-1.999-2.001s0.896-2,2.001-1.999c1.104,0.001,1.998,0.896,1.999,1.999"/>
			<path fill="#F57F4B" d="M887.658,175c-0.001,1.104-0.896,2-2.001,1.999s-2-0.896-1.999-2.001s0.896-2,2.001-1.999
				c1.104,0.001,1.998,0.896,1.999,1.999"/>
			<path fill="none" stroke="#F57F4B" stroke-miterlimit="10" d="M887.658,175c-0.001,1.104-0.896,2-2.001,1.999
				s-2-0.896-1.999-2.001s0.896-2,2.001-1.999c1.104,0.001,1.998,0.896,1.999,1.999"/>
			<path fill="#F78950" d="M917.668,174c0,1.104-0.896,2-2.001,1.999s-1.999-0.896-1.999-2.001c0.001-1.104,0.896-2,2.001-1.999
				s1.999,0.896,1.999,1.999"/>
			<path fill="none" stroke="#F78950" stroke-miterlimit="10" d="M917.668,174c0,1.104-0.896,2-2.001,1.999
				s-1.999-0.896-1.999-2.001c0.001-1.104,0.896-2,2.001-1.999s1.999,0.896,1.999,1.999"/>
			<path fill="#8BCD68" d="M1050.41,120c0,1.104-0.896,2-2.001,1.999s-1.999-0.896-1.999-2.001c0.001-1.104,0.896-2,2.001-1.999
				s1.999,0.895,1.999,1.999"/>
			<path fill="none" stroke="#8BCD68" stroke-miterlimit="10" d="M1050.41,120c0,1.104-0.896,2-2.001,1.999
				s-1.999-0.896-1.999-2.001c0.001-1.104,0.896-2,2.001-1.999s1.999,0.895,1.999,1.999"/>
			<path fill="#1097E6" d="M1050.41,93c0,1.104-0.896,2-2.001,1.999s-1.999-0.896-1.999-2.001c0.001-1.104,0.896-2,2.001-1.999
				s1.999,0.895,1.999,1.999"/>
			<path fill="none" stroke="#1097E6" stroke-miterlimit="10" d="M1050.41,93c0,1.104-0.896,2-2.001,1.999s-1.999-0.896-1.999-2.001
				c0.001-1.104,0.896-2,2.001-1.999s1.999,0.895,1.999,1.999"/>
			<path fill="#EB5D3C" d="M1079.258,181c-0.001,1.104-0.896,2-2.001,1.999s-2-0.896-1.999-2.001s0.896-2,2.001-1.999
				c1.104,0.001,1.998,0.896,1.999,1.999"/>
			<path fill="none" stroke="#EB5D3C" stroke-miterlimit="10" d="M1079.258,181c-0.001,1.104-0.896,2-2.001,1.999
				s-2-0.896-1.999-2.001s0.896-2,2.001-1.999c1.104,0.001,1.998,0.896,1.999,1.999"/>
			<path fill="#FBA660" d="M1079.258,168c-0.001,1.104-0.896,2-2.001,1.999s-2-0.896-1.999-2.001s0.896-2,2.001-1.999
				c1.104,0,1.998,0.895,1.999,1.999"/>
			<path fill="none" stroke="#FBA660" stroke-miterlimit="10" d="M1079.258,168c-0.001,1.104-0.896,2-2.001,1.999
				s-2-0.896-1.999-2.001s0.896-2,2.001-1.999c1.104,0,1.998,0.895,1.999,1.999"/>
			<path fill="#EC5F3D" d="M1125.727,181c-0.001,1.104-0.896,2-2.001,1.999s-2-0.896-1.999-2.001c0-1.104,0.896-2,2.001-1.999
				c1.104,0.001,1.998,0.896,1.999,1.999"/>
			<path fill="none" stroke="#EC5F3D" stroke-miterlimit="10" d="M1125.727,181c-0.001,1.104-0.896,2-2.001,1.999
				s-2-0.896-1.999-2.001c0-1.104,0.896-2,2.001-1.999c1.104,0.001,1.998,0.896,1.999,1.999"/>
			<path fill="#F99858" d="M1125.727,171c-0.001,1.104-0.896,2-2.001,1.999s-2-0.896-1.999-2.001c0-1.104,0.896-2,2.001-1.999
				c1.104,0,1.998,0.895,1.999,1.999"/>
			<path fill="none" stroke="#F99858" stroke-miterlimit="10" d="M1125.727,171c-0.001,1.104-0.896,2-2.001,1.999
				s-2-0.896-1.999-2.001c0-1.104,0.896-2,2.001-1.999c1.104,0,1.998,0.895,1.999,1.999"/>
			<path fill="#DC3E2F" d="M1165.084,187c-0.001,1.104-0.896,2-2.001,1.999s-2-0.896-1.999-2.001c0-1.104,0.896-2,2.001-1.999
				c1.104,0.001,1.998,0.896,1.999,1.999"/>
			<path fill="none" stroke="#DC3E2F" stroke-miterlimit="10" d="M1165.084,187c-0.001,1.104-0.896,2-2.001,1.999
				s-2-0.896-1.999-2.001c0-1.104,0.896-2,2.001-1.999c1.104,0.001,1.998,0.896,1.999,1.999"/>
			<path fill="#B4B4B4" d="M1173.402,189c-0.001,1.104-0.896,2-2.001,1.999s-2-0.896-1.999-2.001s0.896-2,2.001-1.999
				c1.104,0.001,1.998,0.896,1.999,1.999"/>
			<path fill="none" stroke="#B4B4B4" stroke-miterlimit="10" d="M1173.402,189c-0.001,1.104-0.896,2-2.001,1.999
				s-2-0.896-1.999-2.001s0.896-2,2.001-1.999c1.104,0.001,1.998,0.896,1.999,1.999"/>
			<path fill="#F88E53" d="M1173.447,173c-0.001,1.104-0.896,2-2.001,1.999s-2-0.896-1.999-2.001s0.896-2,2.001-1.999
				c1.104,0,1.998,0.896,1.999,1.999"/>
			<path fill="none" stroke="#F88E53" stroke-miterlimit="10" d="M1173.447,173c-0.001,1.104-0.896,2-2.001,1.999
				s-2-0.896-1.999-2.001s0.896-2,2.001-1.999c1.104,0,1.998,0.896,1.999,1.999"/>
			<path fill="#E55136" d="M1181.542,183c0,1.104-0.896,2-2.001,1.999s-1.999-0.896-1.999-2.001c0.001-1.104,0.896-2,2.001-1.999
				s1.999,0.896,1.999,1.999"/>
			<path fill="none" stroke="#E55136" stroke-miterlimit="10" d="M1181.542,183c0,1.104-0.896,2-2.001,1.999
				s-1.999-0.896-1.999-2.001c0.001-1.104,0.896-2,2.001-1.999s1.999,0.896,1.999,1.999"/>
			<path fill="#FDBC6E" d="M1215.98,164c-0.001,1.104-0.896,2-2.001,1.999c-1.105,0-2-0.896-1.999-2.001
				c0-1.104,0.896-2,2.001-1.999c1.104,0,1.998,0.895,1.999,1.999"/>
			<path fill="none" stroke="#FDBC6E" stroke-miterlimit="10" d="M1215.98,164c-0.001,1.104-0.896,2-2.001,1.999
				c-1.105,0-2-0.896-1.999-2.001c0-1.104,0.896-2,2.001-1.999c1.104,0,1.998,0.895,1.999,1.999"/>
			<path fill="#B4B4B4" d="M1237.18,191c-0.001,1.104-0.896,2-2.001,1.999s-2-0.896-1.999-2.001s0.896-2,2.001-1.999
				c1.104,0.001,1.998,0.896,1.999,1.999"/>
			<path fill="none" stroke="#B4B4B4" stroke-miterlimit="10" d="M1237.18,191c-0.001,1.104-0.896,2-2.001,1.999
				s-2-0.896-1.999-2.001s0.896-2,2.001-1.999c1.104,0.001,1.998,0.896,1.999,1.999"/>
			<path fill="#EB5D3C" d="M1254.801,181c-0.001,1.104-0.896,2-2.001,1.999s-2-0.896-1.999-2.001s0.896-2,2.001-1.999
				c1.104,0.001,1.998,0.896,1.999,1.999"/>
			<path fill="none" stroke="#EB5D3C" stroke-miterlimit="10" d="M1254.801,181c-0.001,1.104-0.896,2-2.001,1.999
				s-2-0.896-1.999-2.001s0.896-2,2.001-1.999c1.104,0.001,1.998,0.896,1.999,1.999"/>
			<path fill="#FCAA62" d="M1275.776,167c0,1.104-0.896,2-2.001,1.999s-1.999-0.896-1.999-2.001c0.001-1.104,0.896-2,2.001-1.999
				s1.999,0.895,1.999,1.999"/>
			<path fill="none" stroke="#FCAA62" stroke-miterlimit="10" d="M1275.776,167c0,1.104-0.896,2-2.001,1.999
				s-1.999-0.896-1.999-2.001c0.001-1.104,0.896-2,2.001-1.999s1.999,0.895,1.999,1.999"/>
			<path fill="#EA5A3A" d="M1278.191,181c0,1.104-0.896,2-2.001,1.999s-1.999-0.896-1.999-2.001c0.001-1.104,0.896-2,2.001-1.999
				s1.999,0.896,1.999,1.999"/>
			<path fill="none" stroke="#EA5A3A" stroke-miterlimit="10" d="M1278.191,181c0,1.104-0.896,2-2.001,1.999
				s-1.999-0.896-1.999-2.001c0.001-1.104,0.896-2,2.001-1.999s1.999,0.896,1.999,1.999"/>
			<path fill="#E34C34" d="M1298.586,184c0,1.104-0.896,2-2.001,1.999s-1.999-0.896-1.999-2.001c0.001-1.104,0.896-2,2.001-1.999
				c1.104,0.001,1.999,0.896,1.999,1.999"/>
			<path fill="none" stroke="#E34C34" stroke-miterlimit="10" d="M1298.586,184c0,1.104-0.896,2-2.001,1.999
				s-1.999-0.896-1.999-2.001c0.001-1.104,0.896-2,2.001-1.999c1.104,0.001,1.999,0.896,1.999,1.999"/>
			<path fill="#E95839" d="M1304.087,182c0,1.104-0.896,2-2.001,1.999s-1.999-0.896-1.999-2.001c0.001-1.104,0.896-2,2.001-1.999
				s1.999,0.896,1.999,1.999"/>
			<path fill="none" stroke="#E95839" stroke-miterlimit="10" d="M1304.087,182c0,1.104-0.896,2-2.001,1.999
				s-1.999-0.896-1.999-2.001c0.001-1.104,0.896-2,2.001-1.999s1.999,0.896,1.999,1.999"/>
			<path fill="#FA9F5B" d="M1304.087,170c0,1.104-0.896,2-2.001,1.999s-1.999-0.896-1.999-2.001c0.001-1.104,0.896-2,2.001-1.999
				s1.999,0.895,1.999,1.999"/>
			<path fill="none" stroke="#FA9F5B" stroke-miterlimit="10" d="M1304.087,170c0,1.104-0.896,2-2.001,1.999
				s-1.999-0.896-1.999-2.001c0.001-1.104,0.896-2,2.001-1.999s1.999,0.895,1.999,1.999"/>
			<path fill="#E95839" d="M1305.34,182c-0.001,1.104-0.896,2-2.001,1.999c-1.105-0.001-2-0.896-1.999-2.001
				c0-1.104,0.896-2,2.001-1.999c1.104,0.001,1.998,0.896,1.999,1.999"/>
			<path fill="none" stroke="#E95839" stroke-miterlimit="10" d="M1305.34,182c-0.001,1.104-0.896,2-2.001,1.999
				c-1.105-0.001-2-0.896-1.999-2.001c0-1.104,0.896-2,2.001-1.999c1.104,0.001,1.998,0.896,1.999,1.999"/>
			<path fill="#FDC878" d="M1313.301,162c-0.001,1.104-0.896,2-2.001,1.999c-1.105,0-2-0.896-1.999-2.001
				c0-1.104,0.896-2,2.001-1.999c1.104,0,1.998,0.895,1.999,1.999"/>
			<path fill="none" stroke="#FDC878" stroke-miterlimit="10" d="M1313.301,162c-0.001,1.104-0.896,2-2.001,1.999
				c-1.105,0-2-0.896-1.999-2.001c0-1.104,0.896-2,2.001-1.999c1.104,0,1.998,0.895,1.999,1.999"/>
			<path fill="#FECF7E" d="M1313.301,160c-0.001,1.104-0.896,2-2.001,1.999c-1.105,0-2-0.896-1.999-2.001
				c0-1.104,0.896-2,2.001-1.999c1.104,0,1.998,0.895,1.999,1.999"/>
			<path fill="none" stroke="#FECF7E" stroke-miterlimit="10" d="M1313.301,160c-0.001,1.104-0.896,2-2.001,1.999
				c-1.105,0-2-0.896-1.999-2.001c0-1.104,0.896-2,2.001-1.999c1.104,0,1.998,0.895,1.999,1.999"/>
			<path fill="#FBA660" d="M1323.498,169c-0.001,1.104-0.896,2-2.001,1.999c-1.105,0-2-0.896-1.999-2.001
				c0-1.104,0.896-2,2.001-1.999c1.104,0,1.998,0.895,1.999,1.999"/>
			<path fill="none" stroke="#FBA660" stroke-miterlimit="10" d="M1323.498,169c-0.001,1.104-0.896,2-2.001,1.999
				c-1.105,0-2-0.896-1.999-2.001c0-1.104,0.896-2,2.001-1.999c1.104,0,1.998,0.895,1.999,1.999"/>
			<path fill="#FEEB9F" d="M1323.498,152c-0.001,1.104-0.896,2-2.001,1.999c-1.105,0-2-0.896-1.999-2.001
				c0-1.104,0.896-2,2.001-1.999c1.104,0,1.998,0.895,1.999,1.999"/>
			<path fill="none" stroke="#FEEB9F" stroke-miterlimit="10" d="M1323.498,152c-0.001,1.104-0.896,2-2.001,1.999
				c-1.105,0-2-0.896-1.999-2.001c0-1.104,0.896-2,2.001-1.999c1.104,0,1.998,0.895,1.999,1.999"/>
			<path fill="#E85538" d="M1335.395,182c-0.001,1.104-0.896,2-2.001,1.999s-2-0.896-1.999-2.001c0-1.104,0.896-2,2.001-1.999
				c1.104,0.001,1.998,0.896,1.999,1.999"/>
			<path fill="none" stroke="#E85538" stroke-miterlimit="10" d="M1335.395,182c-0.001,1.104-0.896,2-2.001,1.999
				s-2-0.896-1.999-2.001c0-1.104,0.896-2,2.001-1.999c1.104,0.001,1.998,0.896,1.999,1.999"/>
			<path fill="#E04532" d="M1341.7,185c0,1.104-0.896,2-2.001,1.999s-1.999-0.896-1.999-2.001c0.001-1.104,0.896-2,2.001-1.999
				s1.999,0.896,1.999,1.999"/>
			<path fill="none" stroke="#E04532" stroke-miterlimit="10" d="M1341.7,185c0,1.104-0.896,2-2.001,1.999s-1.999-0.896-1.999-2.001
				c0.001-1.104,0.896-2,2.001-1.999s1.999,0.896,1.999,1.999"/>
			<path fill="#F37547" d="M1341.835,177c-0.001,1.104-0.896,2-2.001,1.999s-2-0.896-1.999-2.001c0-1.104,0.896-2,2.001-1.999
				c1.104,0.001,1.998,0.896,1.999,1.999"/>
			<path fill="none" stroke="#F37547" stroke-miterlimit="10" d="M1341.835,177c-0.001,1.104-0.896,2-2.001,1.999
				s-2-0.896-1.999-2.001c0-1.104,0.896-2,2.001-1.999c1.104,0.001,1.998,0.896,1.999,1.999"/>
			<path fill="#FED382" d="M1345.01,159c0,1.104-0.896,2-2.001,1.999s-1.999-0.896-1.999-2.001c0.001-1.104,0.896-2,2.001-1.999
				s1.999,0.895,1.999,1.999"/>
			<path fill="none" stroke="#FED382" stroke-miterlimit="10" d="M1345.01,159c0,1.104-0.896,2-2.001,1.999
				s-1.999-0.896-1.999-2.001c0.001-1.104,0.896-2,2.001-1.999s1.999,0.895,1.999,1.999"/>
			<path fill="#D7382D" d="M1355.028,188c-0.001,1.104-0.896,2-2.001,1.999s-2-0.896-1.999-2.001s0.896-2,2.001-1.999
				c1.104,0.001,1.998,0.896,1.999,1.999"/>
			<path fill="none" stroke="#D7382D" stroke-miterlimit="10" d="M1355.028,188c-0.001,1.104-0.896,2-2.001,1.999
				s-2-0.896-1.999-2.001s0.896-2,2.001-1.999c1.104,0.001,1.998,0.896,1.999,1.999"/>
			<path fill="#DE4331" d="M1357.712,186c-0.001,1.104-0.896,2-2.001,1.999s-2-0.896-1.999-2.001c0-1.104,0.896-2,2.001-1.999
				c1.104,0.001,1.998,0.896,1.999,1.999"/>
			<path fill="none" stroke="#DE4331" stroke-miterlimit="10" d="M1357.712,186c-0.001,1.104-0.896,2-2.001,1.999
				s-2-0.896-1.999-2.001c0-1.104,0.896-2,2.001-1.999c1.104,0.001,1.998,0.896,1.999,1.999"/>
			<path fill="#95D16A" d="M1361.29,121c-0.001,1.104-0.896,2-2.001,1.999s-2-0.896-1.999-2.001c0-1.104,0.896-2,2.001-1.999
				c1.104,0,1.998,0.895,1.999,1.999"/>
			<path fill="none" stroke="#95D16A" stroke-miterlimit="10" d="M1361.29,121c-0.001,1.104-0.896,2-2.001,1.999
				s-2-0.896-1.999-2.001c0-1.104,0.896-2,2.001-1.999c1.104,0,1.998,0.895,1.999,1.999"/>
			<path fill="#1097E6" d="M1361.29,93c-0.001,1.104-0.896,2-2.001,1.999s-2-0.896-1.999-2.001c0-1.104,0.896-2,2.001-1.999
				c1.104,0,1.998,0.895,1.999,1.999"/>
			<path fill="none" stroke="#1097E6" stroke-miterlimit="10" d="M1361.29,93c-0.001,1.104-0.896,2-2.001,1.999
				s-2-0.896-1.999-2.001c0-1.104,0.896-2,2.001-1.999c1.104,0,1.998,0.895,1.999,1.999"/>
			<path fill="#FBA861" d="M1383.07,168c0,1.104-0.896,2-2.001,1.999s-1.999-0.896-1.999-2.001c0.001-1.104,0.896-2,2.001-1.999
				c1.104,0,1.999,0.895,1.999,1.999"/>
			<path fill="none" stroke="#FBA861" stroke-miterlimit="10" d="M1383.07,168c0,1.104-0.896,2-2.001,1.999
				s-1.999-0.896-1.999-2.001c0.001-1.104,0.896-2,2.001-1.999c1.104,0,1.999,0.895,1.999,1.999"/>
			<path fill="#F88B51" d="M1383.07,173c0,1.104-0.896,2-2.001,1.999s-1.999-0.896-1.999-2.001c0.001-1.104,0.896-2,2.001-1.999
				c1.104,0,1.999,0.896,1.999,1.999"/>
			<path fill="none" stroke="#F88B51" stroke-miterlimit="10" d="M1383.07,173c0,1.104-0.896,2-2.001,1.999
				s-1.999-0.896-1.999-2.001c0.001-1.104,0.896-2,2.001-1.999c1.104,0,1.999,0.896,1.999,1.999"/>
			<path fill="#B4B4B4" d="M1388.616,190c0,1.104-0.896,2-2.001,1.999s-1.999-0.896-1.999-2.001c0.001-1.104,0.896-2,2.001-1.999
				c1.104,0.001,1.999,0.896,1.999,1.999"/>
			<path fill="none" stroke="#B4B4B4" stroke-miterlimit="10" d="M1388.616,190c0,1.104-0.896,2-2.001,1.999
				s-1.999-0.896-1.999-2.001c0.001-1.104,0.896-2,2.001-1.999c1.104,0.001,1.999,0.896,1.999,1.999"/>
			<path fill="#FCB167" d="M1394.833,166c0,1.104-0.896,2-2.001,1.999s-1.999-0.896-1.999-2.001c0.001-1.104,0.896-2,2.001-1.999
				c1.104,0,1.999,0.895,1.999,1.999"/>
			<path fill="none" stroke="#FCB167" stroke-miterlimit="10" d="M1394.833,166c0,1.104-0.896,2-2.001,1.999
				s-1.999-0.896-1.999-2.001c0.001-1.104,0.896-2,2.001-1.999c1.104,0,1.999,0.895,1.999,1.999"/>
			<path fill="#FDEFA5" d="M1394.833,151c0,1.104-0.896,2-2.001,1.999s-1.999-0.896-1.999-2.001c0.001-1.104,0.896-2,2.001-1.999
				c1.104,0,1.999,0.895,1.999,1.999"/>
			<path fill="none" stroke="#FDEFA5" stroke-miterlimit="10" d="M1394.833,151c0,1.104-0.896,2-2.001,1.999
				s-1.999-0.896-1.999-2.001c0.001-1.104,0.896-2,2.001-1.999c1.104,0,1.999,0.895,1.999,1.999"/>
			<path fill="#FCAF65" d="M1406.462,167c-0.001,1.104-0.896,2-2.002,1.999c-1.104,0-1.999-0.896-1.998-2.001
				c0-1.104,0.896-2,2-1.999c1.104,0,1.999,0.895,2,1.999"/>
			<path fill="none" stroke="#FCAF65" stroke-miterlimit="10" d="M1406.462,167c-0.001,1.104-0.896,2-2.002,1.999
				c-1.104,0-1.999-0.896-1.998-2.001c0-1.104,0.896-2,2-1.999c1.104,0,1.999,0.895,2,1.999"/>
			<path fill="#F7864F" d="M1406.462,174c-0.001,1.104-0.896,2-2.002,1.999c-1.104-0.001-1.999-0.896-1.998-2.001
				c0-1.104,0.896-2,2-1.999c1.104,0.001,1.999,0.896,2,1.999"/>
			<path fill="none" stroke="#F7864F" stroke-miterlimit="10" d="M1406.462,174c-0.001,1.104-0.896,2-2.002,1.999
				c-1.104-0.001-1.999-0.896-1.998-2.001c0-1.104,0.896-2,2-1.999c1.104,0.001,1.999,0.896,2,1.999"/>
			<path fill="#FCB167" d="M1407.893,166c-0.001,1.104-0.896,2-2.001,1.999s-2-0.896-1.999-2.001s0.896-2,2.001-1.999
				c1.104,0,1.998,0.895,1.999,1.999"/>
			<path fill="none" stroke="#FCB167" stroke-miterlimit="10" d="M1407.893,166c-0.001,1.104-0.896,2-2.001,1.999
				s-2-0.896-1.999-2.001s0.896-2,2.001-1.999c1.104,0,1.998,0.895,1.999,1.999"/>
			<path fill="#FDF0A6" d="M1407.893,150c-0.001,1.104-0.896,2-2.001,1.999s-2-0.896-1.999-2.001s0.896-2,2.001-1.999
				c1.104,0,1.998,0.895,1.999,1.999"/>
			<path fill="none" stroke="#FDF0A6" stroke-miterlimit="10" d="M1407.893,150c-0.001,1.104-0.896,2-2.001,1.999
				s-2-0.896-1.999-2.001s0.896-2,2.001-1.999c1.104,0,1.998,0.895,1.999,1.999"/>
			<path fill="#EB5D3C" d="M1411.471,181c-0.001,1.104-0.896,2-2.001,1.999s-2-0.896-1.999-2.001s0.896-2,2.001-1.999
				c1.104,0.001,1.998,0.896,1.999,1.999"/>
			<path fill="none" stroke="#EB5D3C" stroke-miterlimit="10" d="M1411.471,181c-0.001,1.104-0.896,2-2.001,1.999
				s-2-0.896-1.999-2.001s0.896-2,2.001-1.999c1.104,0.001,1.998,0.896,1.999,1.999"/>
			<path fill="#FA9F5B" d="M1412.544,170c-0.001,1.104-0.896,2-2.001,1.999s-2-0.896-1.999-2.001s0.896-2,2.001-1.999
				c1.104,0,1.998,0.895,1.999,1.999"/>
			<path fill="none" stroke="#FA9F5B" stroke-miterlimit="10" d="M1412.544,170c-0.001,1.104-0.896,2-2.001,1.999
				s-2-0.896-1.999-2.001s0.896-2,2.001-1.999c1.104,0,1.998,0.895,1.999,1.999"/>
			<path fill="#FEDE8F" d="M1412.544,156c-0.001,1.104-0.896,2-2.001,1.999s-2-0.896-1.999-2.001s0.896-2,2.001-1.999
				c1.104,0,1.998,0.895,1.999,1.999"/>
			<path fill="none" stroke="#FEDE8F" stroke-miterlimit="10" d="M1412.544,156c-0.001,1.104-0.896,2-2.001,1.999
				s-2-0.896-1.999-2.001s0.896-2,2.001-1.999c1.104,0,1.998,0.895,1.999,1.999"/>
			<path fill="#FDBA6D" d="M1431.73,164c0,1.104-0.896,2-2.001,1.999s-1.999-0.896-1.999-2.001c0.001-1.104,0.896-2,2.001-1.999
				c1.104,0,1.999,0.895,1.999,1.999"/>
			<path fill="none" stroke="#FDBA6D" stroke-miterlimit="10" d="M1431.73,164c0,1.104-0.896,2-2.001,1.999
				s-1.999-0.896-1.999-2.001c0.001-1.104,0.896-2,2.001-1.999c1.104,0,1.999,0.895,1.999,1.999"/>
			<path fill="#FCAA62" d="M1432.894,168c-0.001,1.104-0.896,2-2.001,1.999s-2-0.896-1.999-2.001s0.896-2,2.001-1.999
				c1.104,0,1.998,0.895,1.999,1.999"/>
			<path fill="none" stroke="#FCAA62" stroke-miterlimit="10" d="M1432.894,168c-0.001,1.104-0.896,2-2.001,1.999
				s-2-0.896-1.999-2.001s0.896-2,2.001-1.999c1.104,0,1.998,0.895,1.999,1.999"/>
			<path fill="#FCB368" d="M1439.736,166c-0.001,1.104-0.896,2-2.001,1.999s-2-0.896-1.999-2.001s0.896-2,2.001-1.999
				c1.104,0,1.998,0.895,1.999,1.999"/>
			<path fill="none" stroke="#FCB368" stroke-miterlimit="10" d="M1439.736,166c-0.001,1.104-0.896,2-2.001,1.999
				s-2-0.896-1.999-2.001s0.896-2,2.001-1.999c1.104,0,1.998,0.895,1.999,1.999"/>
			<path fill="#FCB56A" d="M1456.105,166c-0.001,1.104-0.896,2-2.001,1.999s-2-0.896-1.999-2.001s0.896-2,2.001-1.999
				c1.104,0,1.998,0.895,1.999,1.999"/>
			<path fill="none" stroke="#FCB56A" stroke-miterlimit="10" d="M1456.105,166c-0.001,1.104-0.896,2-2.001,1.999
				s-2-0.896-1.999-2.001s0.896-2,2.001-1.999c1.104,0,1.998,0.895,1.999,1.999"/>
			<path fill="#FEE698" d="M1456.105,154c-0.001,1.104-0.896,2-2.001,1.999s-2-0.896-1.999-2.001s0.896-2,2.001-1.999
				c1.104,0,1.998,0.895,1.999,1.999"/>
			<path fill="none" stroke="#FEE698" stroke-miterlimit="10" d="M1456.105,154c-0.001,1.104-0.896,2-2.001,1.999
				s-2-0.896-1.999-2.001s0.896-2,2.001-1.999c1.104,0,1.998,0.895,1.999,1.999"/>
			<path fill="#D7382D" d="M1461.204,188c-0.001,1.104-0.896,2-2.001,1.999s-2-0.896-1.999-2.001s0.896-2,2.001-1.999
				c1.104,0.001,1.998,0.896,1.999,1.999"/>
			<path fill="none" stroke="#D7382D" stroke-miterlimit="10" d="M1461.204,188c-0.001,1.104-0.896,2-2.001,1.999
				s-2-0.896-1.999-2.001s0.896-2,2.001-1.999c1.104,0.001,1.998,0.896,1.999,1.999"/>
			<path fill="#D7382D" d="M1462.322,188c0.066,1.103-0.772,2.051-1.876,2.117c-1.102,0.066-2.05-0.773-2.117-1.875
				c-0.066-1.104,0.773-2.051,1.876-2.117c1.102-0.067,2.049,0.771,2.117,1.873"/>
			<path fill="none" stroke="#D7382D" stroke-miterlimit="10" d="M1462.322,188c0.066,1.103-0.772,2.051-1.876,2.117
				c-1.102,0.066-2.05-0.773-2.117-1.875c-0.066-1.104,0.773-2.051,1.876-2.117c1.102-0.067,2.049,0.771,2.117,1.873"/>
			<path fill="#EA5A3A" d="M1487.1,182c-0.001,1.104-0.896,2-2.001,1.999s-2-0.896-1.999-2.001s0.896-2,2.001-1.999
				c1.104,0.001,1.998,0.896,1.999,1.999"/>
			<path fill="none" stroke="#EA5A3A" stroke-miterlimit="10" d="M1487.1,182c-0.001,1.104-0.896,2-2.001,1.999
				s-2-0.896-1.999-2.001s0.896-2,2.001-1.999c1.104,0.001,1.998,0.896,1.999,1.999"/>
			<path fill="#E34C34" d="M1487.145,184c-0.001,1.104-0.896,2-2.001,1.999s-2-0.896-1.999-2.001c0-1.104,0.896-2,2.001-1.999
				c1.104,0.001,1.998,0.896,1.999,1.999"/>
			<path fill="none" stroke="#E34C34" stroke-miterlimit="10" d="M1487.145,184c-0.001,1.104-0.896,2-2.001,1.999
				s-2-0.896-1.999-2.001c0-1.104,0.896-2,2.001-1.999c1.104,0.001,1.998,0.896,1.999,1.999"/>
			<path fill="#F99355" d="M1503.603,172c0,1.104-0.896,2-2.001,1.999s-1.999-0.896-1.999-2.001c0.001-1.104,0.896-2,2.001-1.999
				s1.999,0.895,1.999,1.999"/>
			<path fill="none" stroke="#F99355" stroke-miterlimit="10" d="M1503.603,172c0,1.104-0.896,2-2.001,1.999
				s-1.999-0.896-1.999-2.001c0.001-1.104,0.896-2,2.001-1.999s1.999,0.895,1.999,1.999"/>
			<path fill="#E85538" d="M1512.86,183c0,1.104-0.896,2-2,1.999c-1.105-0.001-2-0.896-2-2.001c0.001-1.104,0.896-2,2.002-1.999
				c1.104,0.001,1.998,0.896,1.998,1.999"/>
			<path fill="none" stroke="#E85538" stroke-miterlimit="10" d="M1512.86,183c0,1.104-0.896,2-2,1.999
				c-1.105-0.001-2-0.896-2-2.001c0.001-1.104,0.896-2,2.002-1.999c1.104,0.001,1.998,0.896,1.998,1.999"/>
			<path fill="#F16E43" d="M1516.662,178c0,1.104-0.896,2-2.001,1.999s-1.999-0.896-1.999-2.001c0.001-1.104,0.896-2,2.001-1.999
				c1.104,0.001,1.999,0.896,1.999,1.999"/>
			<path fill="none" stroke="#F16E43" stroke-miterlimit="10" d="M1516.662,178c0,1.104-0.896,2-2.001,1.999
				s-1.999-0.896-1.999-2.001c0.001-1.104,0.896-2,2.001-1.999c1.104,0.001,1.999,0.896,1.999,1.999"/>
			<path fill="#F37547" d="M1517.154,177c-0.001,1.104-0.896,2-2.001,1.999s-2-0.896-1.999-2.001s0.896-2,2.001-1.999
				c1.104,0.001,1.998,0.896,1.999,1.999"/>
			<path fill="none" stroke="#F37547" stroke-miterlimit="10" d="M1517.154,177c-0.001,1.104-0.896,2-2.001,1.999
				s-2-0.896-1.999-2.001s0.896-2,2.001-1.999c1.104,0.001,1.998,0.896,1.999,1.999"/>
			<path fill="#DD4030" d="M1517.512,186c0,1.104-0.896,2-2.001,1.999s-1.999-0.896-1.999-2.001c0.001-1.104,0.896-2,2.001-1.999
				s1.999,0.896,1.999,1.999"/>
			<path fill="none" stroke="#DD4030" stroke-miterlimit="10" d="M1517.512,186c0,1.104-0.896,2-2.001,1.999
				s-1.999-0.896-1.999-2.001c0.001-1.104,0.896-2,2.001-1.999s1.999,0.896,1.999,1.999"/>
			<path fill="#B4B4B4" d="M1531.511,191c0,1.104-0.896,2-2.001,1.999s-1.999-0.896-1.999-2.001c0.001-1.104,0.896-2,2.001-1.999
				c1.104,0.001,1.999,0.896,1.999,1.999"/>
			<path fill="none" stroke="#B4B4B4" stroke-miterlimit="10" d="M1531.511,191c0,1.104-0.896,2-2.001,1.999
				s-1.999-0.896-1.999-2.001c0.001-1.104,0.896-2,2.001-1.999c1.104,0.001,1.999,0.896,1.999,1.999"/>
			<path fill="#E85538" d="M1634.556,183c0,1.104-0.896,2-2.001,1.999s-1.999-0.896-1.999-2.001c0.001-1.104,0.896-2,2.001-1.999
				s1.999,0.896,1.999,1.999"/>
			<path fill="none" stroke="#E85538" stroke-miterlimit="10" d="M1634.556,183c0,1.104-0.896,2-2.001,1.999
				s-1.999-0.896-1.999-2.001c0.001-1.104,0.896-2,2.001-1.999s1.999,0.896,1.999,1.999"/>
			<path fill="#E04532" d="M1667.563,185c-0.001,1.104-0.896,2-2.001,1.999s-2-0.896-1.999-2.001s0.896-2,2.001-1.999
				c1.104,0.001,1.998,0.896,1.999,1.999"/>
			<path fill="none" stroke="#E04532" stroke-miterlimit="10" d="M1667.563,185c-0.001,1.104-0.896,2-2.001,1.999
				s-2-0.896-1.999-2.001s0.896-2,2.001-1.999c1.104,0.001,1.998,0.896,1.999,1.999"/>
			<path fill="#D93A2E" d="M1669.352,188c-0.001,1.104-0.896,2-2.001,1.999s-2-0.896-1.999-2.001s0.896-2,2.001-1.999
				c1.104,0.001,1.998,0.896,1.999,1.999"/>
			<path fill="none" stroke="#D93A2E" stroke-miterlimit="10" d="M1669.352,188c-0.001,1.104-0.896,2-2.001,1.999
				s-2-0.896-1.999-2.001s0.896-2,2.001-1.999c1.104,0.001,1.998,0.896,1.999,1.999"/>
			<path fill="#D93A2E" d="M1669.396,188c-0.001,1.104-0.896,2-2.001,1.999s-2-0.896-1.999-2.001c0-1.104,0.896-2,2.001-1.999
				c1.104,0.001,1.998,0.896,1.999,1.999"/>
			<path fill="none" stroke="#D93A2E" stroke-miterlimit="10" d="M1669.396,188c-0.001,1.104-0.896,2-2.001,1.999
				s-2-0.896-1.999-2.001c0-1.104,0.896-2,2.001-1.999c1.104,0.001,1.998,0.896,1.999,1.999"/>
			<path fill="#E04532" d="M1671.945,186c0,1.104-0.896,2-2.001,1.999s-1.999-0.896-1.999-2.001c0.001-1.104,0.896-2,2.001-1.999
				c1.104,0.001,1.999,0.896,1.999,1.999"/>
			<path fill="none" stroke="#E04532" stroke-miterlimit="10" d="M1671.945,186c0,1.104-0.896,2-2.001,1.999
				s-1.999-0.896-1.999-2.001c0.001-1.104,0.896-2,2.001-1.999c1.104,0.001,1.999,0.896,1.999,1.999"/>
			<path fill="#E04532" d="M1675.837,186c-0.001,1.104-0.896,2-2.001,1.999s-2-0.896-1.999-2.001c0-1.104,0.896-2,2.001-1.999
				c1.104,0.001,1.998,0.896,1.999,1.999"/>
			<path fill="none" stroke="#E04532" stroke-miterlimit="10" d="M1675.837,186c-0.001,1.104-0.896,2-2.001,1.999
				s-2-0.896-1.999-2.001c0-1.104,0.896-2,2.001-1.999c1.104,0.001,1.998,0.896,1.999,1.999"/>
			<path fill="#DE4331" d="M1676.731,186c-0.001,1.104-0.896,2-2.001,1.999s-2-0.896-1.999-2.001c0-1.104,0.896-2,2.001-1.999
				c1.104,0.001,1.998,0.896,1.999,1.999"/>
			<path fill="none" stroke="#DE4331" stroke-miterlimit="10" d="M1676.731,186c-0.001,1.104-0.896,2-2.001,1.999
				s-2-0.896-1.999-2.001c0-1.104,0.896-2,2.001-1.999c1.104,0.001,1.998,0.896,1.999,1.999"/>
			<path fill="#DC3E2F" d="M1676.999,187c0,1.104-0.896,2-2.001,1.999s-1.999-0.896-1.999-2.001c0.001-1.104,0.896-2,2.001-1.999
				s1.999,0.896,1.999,1.999"/>
			<path fill="none" stroke="#DC3E2F" stroke-miterlimit="10" d="M1676.999,187c0,1.104-0.896,2-2.001,1.999
				s-1.999-0.896-1.999-2.001c0.001-1.104,0.896-2,2.001-1.999s1.999,0.896,1.999,1.999"/>
			<path fill="#E44E35" d="M1713.227,184c-0.001,1.104-0.896,2-2.001,1.999c-1.105-0.001-2-0.896-1.999-2.001
				c0-1.104,0.896-2,2.001-1.999c1.104,0.001,1.998,0.896,1.999,1.999"/>
			<path fill="none" stroke="#E44E35" stroke-miterlimit="10" d="M1713.227,184c-0.001,1.104-0.896,2-2.001,1.999
				c-1.105-0.001-2-0.896-1.999-2.001c0-1.104,0.896-2,2.001-1.999c1.104,0.001,1.998,0.896,1.999,1.999"/>
			<path fill="#EB5D3C" d="M1713.227,181c-0.001,1.104-0.896,2-2.001,1.999c-1.105-0.001-2-0.896-1.999-2.001
				c0-1.104,0.896-2,2.001-1.999c1.104,0.001,1.998,0.896,1.999,1.999"/>
			<path fill="none" stroke="#EB5D3C" stroke-miterlimit="10" d="M1713.227,181c-0.001,1.104-0.896,2-2.001,1.999
				c-1.105-0.001-2-0.896-1.999-2.001c0-1.104,0.896-2,2.001-1.999c1.104,0.001,1.998,0.896,1.999,1.999"/>
		</g>
		<rect x="43" y="95" fill="#FFFFFF" width="59" height="21"/>
		<text transform="matrix(1 0 0 1 39.8506 109.7002)" fill="#444444" font-family="'ArialMT'" font-size="12">IGAP 2019</text>
		<rect x="37" y="95" fill="none" stroke="#444444" stroke-miterlimit="10" width="65" height="21"/>
		<rect x="35" y="196" fill="none" width="1689" height="70"/>
		<rect x="219.399" y="206" width="22.854" height="14"/>
		<g>
			<text transform="matrix(1 0 0 1 202.7446 231)" font-family="'ArialMT'" font-size="10">Peak_74109</text>
		</g>
		<rect x="288.99" y="206" width="17.398" height="14"/>
		<g>
			<text transform="matrix(1 0 0 1 269.6079 231)" font-family="'ArialMT'" font-size="10">Peak_73837</text>
		</g>
		<rect x="43" y="200" fill="#FFFFFF" width="169.703" height="21"/>
		<text transform="matrix(1 0 0 1 37.7168 214.7002)" fill="#444444" font-family="'ArialMT'" font-size="12">DNase-seq on human HA-h</text>
		<rect x="33.5" y="200" fill="none" stroke="#444444" stroke-miterlimit="10" width="155" height="21"/>
		<g>
			<defs>
				<rect id="SVGID_9_" x="35" y="271" width="1689" height="70"/>
			</defs>
			<clipPath id="SVGID_10_">
				<use xlink:href="#SVGID_9_"  overflow="visible"/>
			</clipPath>
			<g id="refseqgenes_genomic_state_index_0_group" transform="translate(50,271)" clip-path="url(#SVGID_10_)">
				<g>
					<path fill="none" stroke="#000096" stroke-miterlimit="10" d="M-15,17.5h232.5"/>
					<path fill="none" stroke="#000096" stroke-miterlimit="10" d="M-1.5,15.5l2,2"/>
					<path fill="none" stroke="#000096" stroke-miterlimit="10" d="M-1.5,19.5l2-2"/>
					<path fill="none" stroke="#000096" stroke-miterlimit="10" d="M28.5,15.5l2,2"/>
					<path fill="none" stroke="#000096" stroke-miterlimit="10" d="M28.5,19.5l2-2"/>
					<path fill="none" stroke="#000096" stroke-miterlimit="10" d="M58.5,15.5l2,2"/>
					<path fill="none" stroke="#000096" stroke-miterlimit="10" d="M58.5,19.5l2-2"/>
					<path fill="none" stroke="#000096" stroke-miterlimit="10" d="M88.5,15.5l2,2"/>
					<path fill="none" stroke="#000096" stroke-miterlimit="10" d="M88.5,19.5l2-2"/>
					<path fill="none" stroke="#000096" stroke-miterlimit="10" d="M118.5,15.5l2,2"/>
					<path fill="none" stroke="#000096" stroke-miterlimit="10" d="M118.5,19.5l2-2"/>
					<path fill="none" stroke="#000096" stroke-miterlimit="10" d="M148.5,15.5l2,2"/>
					<path fill="none" stroke="#000096" stroke-miterlimit="10" d="M148.5,19.5l2-2"/>
					<path fill="none" stroke="#000096" stroke-miterlimit="10" d="M178.5,15.5l2,2"/>
					<path fill="none" stroke="#000096" stroke-miterlimit="10" d="M178.5,19.5l2-2"/>
					<path fill="none" stroke="#000096" stroke-miterlimit="10" d="M208.5,15.5l2,2"/>
					<path fill="none" stroke="#000096" stroke-miterlimit="10" d="M208.5,19.5l2-2"/>
					<rect x="88" y="10" fill="#000096" width="5" height="14"/>
					<rect x="100" y="10" fill="#000096" width="7" height="14"/>
					<rect x="167" y="13.5" fill="#000096" width="52" height="7"/>
					<rect x="154" y="10" fill="#000096" width="13" height="14"/>
					<g>
						<text transform="matrix(1 0 0 1 86.1094 44)" fill="#000096" font-family="'ArialMT'" font-size="18">CNN2</text>
					</g>
					<path fill="none" stroke="#000096" stroke-miterlimit="10" d="M266.5,17.5h1137"/>
					<path fill="none" stroke="#000096" stroke-miterlimit="10" d="M278.5,15.5l2,2"/>
					<path fill="none" stroke="#000096" stroke-miterlimit="10" d="M278.5,19.5l2-2"/>
					<path fill="none" stroke="#000096" stroke-miterlimit="10" d="M308.5,15.5l2,2"/>
					<path fill="none" stroke="#000096" stroke-miterlimit="10" d="M308.5,19.5l2-2"/>
					<path fill="none" stroke="#000096" stroke-miterlimit="10" d="M338.5,15.5l2,2"/>
					<path fill="none" stroke="#000096" stroke-miterlimit="10" d="M338.5,19.5l2-2"/>
					<path fill="none" stroke="#000096" stroke-miterlimit="10" d="M368.5,15.5l2,2"/>
					<path fill="none" stroke="#000096" stroke-miterlimit="10" d="M368.5,19.5l2-2"/>
					<path fill="none" stroke="#000096" stroke-miterlimit="10" d="M398.5,15.5l2,2"/>
					<path fill="none" stroke="#000096" stroke-miterlimit="10" d="M398.5,19.5l2-2"/>
					<path fill="none" stroke="#000096" stroke-miterlimit="10" d="M428.5,15.5l2,2"/>
					<path fill="none" stroke="#000096" stroke-miterlimit="10" d="M428.5,19.5l2-2"/>
					<path fill="none" stroke="#000096" stroke-miterlimit="10" d="M458.5,15.5l2,2"/>
					<path fill="none" stroke="#000096" stroke-miterlimit="10" d="M458.5,19.5l2-2"/>
					<path fill="none" stroke="#000096" stroke-miterlimit="10" d="M488.5,15.5l2,2"/>
					<path fill="none" stroke="#000096" stroke-miterlimit="10" d="M488.5,19.5l2-2"/>
					<path fill="none" stroke="#000096" stroke-miterlimit="10" d="M518.5,15.5l2,2"/>
					<path fill="none" stroke="#000096" stroke-miterlimit="10" d="M518.5,19.5l2-2"/>
					<path fill="none" stroke="#000096" stroke-miterlimit="10" d="M548.5,15.5l2,2"/>
					<path fill="none" stroke="#000096" stroke-miterlimit="10" d="M548.5,19.5l2-2"/>
					<path fill="none" stroke="#000096" stroke-miterlimit="10" d="M578.5,15.5l2,2"/>
					<path fill="none" stroke="#000096" stroke-miterlimit="10" d="M578.5,19.5l2-2"/>
					<path fill="none" stroke="#000096" stroke-miterlimit="10" d="M608.5,15.5l2,2"/>
					<path fill="none" stroke="#000096" stroke-miterlimit="10" d="M608.5,19.5l2-2"/>
					<path fill="none" stroke="#000096" stroke-miterlimit="10" d="M638.5,15.5l2,2"/>
					<path fill="none" stroke="#000096" stroke-miterlimit="10" d="M638.5,19.5l2-2"/>
					<path fill="none" stroke="#000096" stroke-miterlimit="10" d="M668.5,15.5l2,2"/>
					<path fill="none" stroke="#000096" stroke-miterlimit="10" d="M668.5,19.5l2-2"/>
					<path fill="none" stroke="#000096" stroke-miterlimit="10" d="M698.5,15.5l2,2"/>
					<path fill="none" stroke="#000096" stroke-miterlimit="10" d="M698.5,19.5l2-2"/>
					<path fill="none" stroke="#000096" stroke-miterlimit="10" d="M728.5,15.5l2,2"/>
					<path fill="none" stroke="#000096" stroke-miterlimit="10" d="M728.5,19.5l2-2"/>
					<path fill="none" stroke="#000096" stroke-miterlimit="10" d="M758.5,15.5l2,2"/>
					<path fill="none" stroke="#000096" stroke-miterlimit="10" d="M758.5,19.5l2-2"/>
					<path fill="none" stroke="#000096" stroke-miterlimit="10" d="M788.5,15.5l2,2"/>
					<path fill="none" stroke="#000096" stroke-miterlimit="10" d="M788.5,19.5l2-2"/>
					<path fill="none" stroke="#000096" stroke-miterlimit="10" d="M818.5,15.5l2,2"/>
					<path fill="none" stroke="#000096" stroke-miterlimit="10" d="M818.5,19.5l2-2"/>
					<path fill="none" stroke="#000096" stroke-miterlimit="10" d="M848.5,15.5l2,2"/>
					<path fill="none" stroke="#000096" stroke-miterlimit="10" d="M848.5,19.5l2-2"/>
					<path fill="none" stroke="#000096" stroke-miterlimit="10" d="M878.5,15.5l2,2"/>
					<path fill="none" stroke="#000096" stroke-miterlimit="10" d="M878.5,19.5l2-2"/>
					<path fill="none" stroke="#000096" stroke-miterlimit="10" d="M908.5,15.5l2,2"/>
					<path fill="none" stroke="#000096" stroke-miterlimit="10" d="M908.5,19.5l2-2"/>
					<path fill="none" stroke="#000096" stroke-miterlimit="10" d="M938.5,15.5l2,2"/>
					<path fill="none" stroke="#000096" stroke-miterlimit="10" d="M938.5,19.5l2-2"/>
					<path fill="none" stroke="#000096" stroke-miterlimit="10" d="M968.5,15.5l2,2"/>
					<path fill="none" stroke="#000096" stroke-miterlimit="10" d="M968.5,19.5l2-2"/>
					<path fill="none" stroke="#000096" stroke-miterlimit="10" d="M998.5,15.5l2,2"/>
					<path fill="none" stroke="#000096" stroke-miterlimit="10" d="M998.5,19.5l2-2"/>
					<path fill="none" stroke="#000096" stroke-miterlimit="10" d="M1028.5,15.5l2,2"/>
					<path fill="none" stroke="#000096" stroke-miterlimit="10" d="M1028.5,19.5l2-2"/>
					<path fill="none" stroke="#000096" stroke-miterlimit="10" d="M1058.5,15.5l2,2"/>
					<path fill="none" stroke="#000096" stroke-miterlimit="10" d="M1058.5,19.5l2-2"/>
					<path fill="none" stroke="#000096" stroke-miterlimit="10" d="M1088.5,15.5l2,2"/>
					<path fill="none" stroke="#000096" stroke-miterlimit="10" d="M1088.5,19.5l2-2"/>
					<path fill="none" stroke="#000096" stroke-miterlimit="10" d="M1118.5,15.5l2,2"/>
					<path fill="none" stroke="#000096" stroke-miterlimit="10" d="M1118.5,19.5l2-2"/>
					<path fill="none" stroke="#000096" stroke-miterlimit="10" d="M1148.5,15.5l2,2"/>
					<path fill="none" stroke="#000096" stroke-miterlimit="10" d="M1148.5,19.5l2-2"/>
					<path fill="none" stroke="#000096" stroke-miterlimit="10" d="M1178.5,15.5l2,2"/>
					<path fill="none" stroke="#000096" stroke-miterlimit="10" d="M1178.5,19.5l2-2"/>
					<path fill="none" stroke="#000096" stroke-miterlimit="10" d="M1208.5,15.5l2,2"/>
					<path fill="none" stroke="#000096" stroke-miterlimit="10" d="M1208.5,19.5l2-2"/>
					<path fill="none" stroke="#000096" stroke-miterlimit="10" d="M1238.5,15.5l2,2"/>
					<path fill="none" stroke="#000096" stroke-miterlimit="10" d="M1238.5,19.5l2-2"/>
					<path fill="none" stroke="#000096" stroke-miterlimit="10" d="M1268.5,15.5l2,2"/>
					<path fill="none" stroke="#000096" stroke-miterlimit="10" d="M1268.5,19.5l2-2"/>
					<path fill="none" stroke="#000096" stroke-miterlimit="10" d="M1298.5,15.5l2,2"/>
					<path fill="none" stroke="#000096" stroke-miterlimit="10" d="M1298.5,19.5l2-2"/>
					<path fill="none" stroke="#000096" stroke-miterlimit="10" d="M1328.5,15.5l2,2"/>
					<path fill="none" stroke="#000096" stroke-miterlimit="10" d="M1328.5,19.5l2-2"/>
					<path fill="none" stroke="#000096" stroke-miterlimit="10" d="M1358.5,15.5l2,2"/>
					<path fill="none" stroke="#000096" stroke-miterlimit="10" d="M1358.5,19.5l2-2"/>
					<path fill="none" stroke="#000096" stroke-miterlimit="10" d="M1388.5,15.5l2,2"/>
					<path fill="none" stroke="#000096" stroke-miterlimit="10" d="M1388.5,19.5l2-2"/>
					<rect x="265" y="13.5" fill="#000096" width="4" height="7"/>
					<rect x="315" y="13.5" fill="#000096" width="7" height="7"/>
					<rect x="322" y="10" fill="#000096" width="3" height="14"/>
					<rect x="328" y="10" fill="#000096" width="4" height="14"/>
					<rect x="343" y="10" fill="#000096" width="6" height="14"/>
					<rect x="353" y="10" fill="#000096" width="5" height="14"/>
					<rect x="364" y="10" fill="#000096" width="4" height="14"/>
					<rect x="383" y="10" fill="#000096" width="4" height="14"/>
					<rect x="397" y="10" fill="#000096" width="9" height="14"/>
					<rect x="410" y="10" fill="#000096" width="6" height="14"/>
					<rect x="427" y="10" fill="#000096" width="6" height="14"/>
					<rect x="465" y="10" fill="#000096" width="8" height="14"/>
					<rect x="484" y="10" fill="#000096" width="11" height="14"/>
					<rect x="539" y="10" fill="#000096" width="8" height="14"/>
					<rect x="565" y="10" fill="#000096" width="10" height="14"/>
					<rect x="581" y="10" fill="#000096" width="10" height="14"/>
					<rect x="594" y="10" fill="#000096" width="9" height="14"/>
					<rect x="659" y="10" fill="#000096" width="4" height="14"/>
					<rect x="675" y="10" fill="#000096" width="8" height="14"/>
					<rect x="749" y="10" fill="#000096" width="6" height="14"/>
					<rect x="760" y="10" fill="#000096" width="6" height="14"/>
					<rect x="773" y="10" fill="#000096" width="6" height="14"/>
					<rect x="795" y="10" fill="#000096" width="8" height="14"/>
					<rect x="807" y="10" fill="#000096" width="3" height="14"/>
					<rect x="857" y="10" fill="#000096" width="9" height="14"/>
					<rect x="877" y="10" fill="#000096" width="3" height="14"/>
					<rect x="887" y="10" fill="#000096" width="5" height="14"/>
					<rect x="895" y="10" fill="#000096" width="7" height="14"/>
					<rect x="912" y="10" fill="#000096" width="6" height="14"/>
					<rect x="922" y="10" fill="#000096" width="4" height="14"/>
					<rect x="936" y="10" fill="#000096" width="11" height="14"/>
					<rect x="972" y="10" fill="#000096" width="2" height="14"/>
					<rect x="979" y="10" fill="#000096" width="8" height="14"/>
					<rect x="991" y="10" fill="#000096" width="8" height="14"/>
					<rect x="1017" y="10" fill="#000096" width="8" height="14"/>
					<rect x="1035" y="10" fill="#000096" width="5" height="14"/>
					<rect x="1062" y="10" fill="#000096" width="6" height="14"/>
					<rect x="1072" y="10" fill="#000096" width="6" height="14"/>
					<rect x="1093" y="10" fill="#000096" width="6" height="14"/>
					<rect x="1102" y="10" fill="#000096" width="6" height="14"/>
					<rect x="1111" y="10" fill="#000096" width="3" height="14"/>
					<rect x="1235" y="10" fill="#000096" width="5" height="14"/>
					<rect x="1252" y="10" fill="#000096" width="7" height="14"/>
					<rect x="1314" y="10" fill="#000096" width="6" height="14"/>
					<rect x="1323" y="10" fill="#000096" width="5" height="14"/>
					<rect x="1341" y="10" fill="#000096" width="4" height="14"/>
					<rect x="1376" y="10" fill="#000096" width="10" height="14"/>
					<rect x="1398" y="13.5" fill="#000096" width="6" height="7"/>
					<rect x="1391" y="10" fill="#000096" width="7" height="14"/>
					<g>
						<text transform="matrix(1 0 0 1 818.5005 47)" fill="#000096" font-family="'ArialMT'" font-size="18">ABCA7</text>
					</g>
					<path fill="none" stroke="#000096" stroke-miterlimit="10" d="M1422.5,17.5H1666"/>
					<path fill="none" stroke="#000096" stroke-miterlimit="10" d="M1434.5,15.5l2,2"/>
					<path fill="none" stroke="#000096" stroke-miterlimit="10" d="M1434.5,19.5l2-2"/>
					<path fill="none" stroke="#000096" stroke-miterlimit="10" d="M1464.5,15.5l2,2"/>
					<path fill="none" stroke="#000096" stroke-miterlimit="10" d="M1464.5,19.5l2-2"/>
					<path fill="none" stroke="#000096" stroke-miterlimit="10" d="M1494.5,15.5l2,2"/>
					<path fill="none" stroke="#000096" stroke-miterlimit="10" d="M1494.5,19.5l2-2"/>
					<path fill="none" stroke="#000096" stroke-miterlimit="10" d="M1524.5,15.5l2,2"/>
					<path fill="none" stroke="#000096" stroke-miterlimit="10" d="M1524.5,19.5l2-2"/>
					<path fill="none" stroke="#000096" stroke-miterlimit="10" d="M1554.5,15.5l2,2"/>
					<path fill="none" stroke="#000096" stroke-miterlimit="10" d="M1554.5,19.5l2-2"/>
					<path fill="none" stroke="#000096" stroke-miterlimit="10" d="M1584.5,15.5l2,2"/>
					<path fill="none" stroke="#000096" stroke-miterlimit="10" d="M1584.5,19.5l2-2"/>
					<path fill="none" stroke="#000096" stroke-miterlimit="10" d="M1614.5,15.5l2,2"/>
					<path fill="none" stroke="#000096" stroke-miterlimit="10" d="M1614.5,19.5l2-2"/>
					<path fill="none" stroke="#000096" stroke-miterlimit="10" d="M1644.5,15.5l2,2"/>
					<path fill="none" stroke="#000096" stroke-miterlimit="10" d="M1644.5,19.5l2-2"/>
					<rect x="1422" y="13.5" fill="#000096" width="3" height="7"/>
					<rect x="1425" y="10" fill="#000096" width="6" height="14"/>
					<rect x="1531" y="10" fill="#000096" width="15" height="14"/>
					<g>
						<text transform="matrix(1 0 0 1 1521.1641 44)" fill="#000096" font-family="'ArialMT'" font-size="18">ARHGAP45</text>
					</g>
					<rect x="-7" y="4" fill="#FFFFFF" width="93.109" height="21"/>
					<text transform="matrix(1 0 0 1 0.2959 18.7002)" fill="#444444" font-family="'ArialMT'" font-size="12">Refseq Genes</text>
					<rect x="-7" y="4" fill="none" stroke="#444444" stroke-miterlimit="10" width="93.109" height="21"/>
				</g>
			</g>
		</g>
	</g>
</g>
</svg>
