<svg xmlns="http://www.w3.org/2000/svg" width="683.64" height="222" viewBox="0 0 683.64 222"><path fill="#6952A2" d="M323.76 94.2h56.04v14.4h-56.04z"/><path fill="#63C384" d="M586.8 94.2h1.2v14.4h-1.2z"/><path fill="#6952A2" d="M323.76 112.44h56.28v14.4h-56.28z"/><path fill="#63C384" d="M586.8 112.44h78v14.4h-78z"/><path fill="#6952A2" d="M323.76 130.68h9.84v14.4h-9.84z"/><path fill="#63C384" d="M586.8 130.68h35.16v14.4H586.8z"/><path fill="#6952A2" d="M323.76 167.16h36.48v14.4h-36.48z"/><path fill="#63C384" d="M586.8 167.16h17.28v14.4H586.8z"/><path fill="#6952A2" d="M323.76 185.4h2.16v14.4h-2.16z"/><path fill="#63C384" d="M586.8 185.4h21.36v14.4H586.8z"/><path fill="#6952A2" d="M323.76 203.64h1.2v15h-1.2z"/><path fill="#63C384" d="M586.8 203.64h16.32v15H586.8z"/><g font-family="'ArialMT'" font-size="14.908"><text transform="translate(508.032 33.96)">4</text><text transform="translate(499.741 33.96)">7</text><text transform="translate(491.45 33.96)">7</text><text transform="translate(487.309 33.96)">,</text><text transform="translate(479.017 33.96)">6</text><text transform="translate(470.726 33.96)">9</text><text transform="translate(462.435 33.96)">8</text><text transform="translate(458.41 33.96)">,</text><text transform="translate(450.118 33.96)">7</text><text transform="translate(441.827 33.96)">2</text><text transform="translate(255.325 33.96)">3</text><text transform="translate(247.034 33.96)">0</text><text transform="translate(238.742 33.96)">7</text><text transform="translate(234.6 33.96)">,</text><text transform="translate(226.31 33.96)">6</text><text transform="translate(218.018 33.96)">8</text><text transform="translate(209.727 33.96)">5</text><text transform="translate(205.701 33.96)">,</text><text transform="translate(197.502 33.96)">1</text><text transform="translate(100.45 33.96)"></text><text transform="translate(92.158 33.96)">d</text><text transform="translate(83.867 33.96)">e</text><text transform="translate(80.554 33.96)">l</text><text transform="translate(77.126 33.96)">l</text><text transform="translate(68.835 33.96)">a</text><text transform="translate(61.38 33.96)">c</text><text transform="translate(57.355 33.96)"></text><text transform="translate(49.9 33.96)">s</text><text transform="translate(45.76 33.96)">t</text><text transform="translate(37.468 33.96)">n</text><text transform="translate(29.268 33.96)">a</text><text transform="translate(25.84 33.96)">i</text><text transform="translate(20.875 33.96)">r</text><text transform="translate(12.584 33.96)">a</text><text transform="translate(2.64 33.96)">V</text></g><g font-family="'ArialMT'" font-size="14.908"><text transform="translate(508.02 52.2)">6</text><text transform="translate(499.73 52.2)">9</text><text transform="translate(491.53 52.2)">9</text><text transform="translate(487.388 52.2)">,</text><text transform="translate(479.097 52.2)">4</text><text transform="translate(470.806 52.2)">7</text><text transform="translate(462.514 52.2)">6</text><text transform="translate(458.372 52.2)">,</text><text transform="translate(450.081 52.2)">7</text><text transform="translate(441.88 52.2)">2</text><text transform="translate(255.379 52.2)">3</text><text transform="translate(247.088 52.2)">0</text><text transform="translate(238.797 52.2)">7</text><text transform="translate(234.655 52.2)">,</text><text transform="translate(226.363 52.2)">6</text><text transform="translate(218.072 52.2)">8</text><text transform="translate(209.873 52.2)">5</text><text transform="translate(205.73 52.2)">,</text><text transform="translate(197.53 52.2)">1</text><text transform="translate(127.611 52.2)"></text><text transform="translate(119.32 52.2)">d</text><text transform="translate(111.029 52.2)">e</text><text transform="translate(106.887 52.2)">t</text><text transform="translate(98.687 52.2)">a</text><text transform="translate(94.545 52.2)">t</text><text transform="translate(86.254 52.2)">o</text><text transform="translate(77.962 52.2)">n</text><text transform="translate(69.671 52.2)">n</text><text transform="translate(61.38 52.2)">a</text><text transform="translate(57.355 52.2)"></text><text transform="translate(49.9 52.2)">s</text><text transform="translate(45.76 52.2)">t</text><text transform="translate(37.468 52.2)">n</text><text transform="translate(29.268 52.2)">a</text><text transform="translate(25.84 52.2)">i</text><text transform="translate(20.875 52.2)">r</text><text transform="translate(12.584 52.2)">a</text><text transform="translate(2.64 52.2)">V</text></g><g font-family="'ArialMT'" font-size="14.908"><text transform="translate(507.991 70.44)">8</text><text transform="translate(499.7 70.44)">7</text><text transform="translate(491.41 70.44)">7</text><text transform="translate(487.267 70.44)">,</text><text transform="translate(478.976 70.44)">1</text><text transform="translate(470.685 70.44)">2</text><text transform="translate(462.484 70.44)">2</text><text transform="translate(255.41 70.44)">0</text><text transform="translate(144.194 70.44)"></text><text transform="translate(135.903 70.44)">d</text><text transform="translate(127.611 70.44)">e</text><text transform="translate(123.47 70.44)">t</text><text transform="translate(115.27 70.44)">a</text><text transform="translate(111.128 70.44)">t</text><text transform="translate(102.836 70.44)">o</text><text transform="translate(94.545 70.44)">n</text><text transform="translate(86.254 70.44)">n</text><text transform="translate(77.962 70.44)">a</text><text transform="translate(69.671 70.44)">n</text><text transform="translate(61.38 70.44)">u</text><text transform="translate(57.355 70.44)"></text><text transform="translate(49.9 70.44)">s</text><text transform="translate(45.76 70.44)">t</text><text transform="translate(37.468 70.44)">n</text><text transform="translate(29.268 70.44)">a</text><text transform="translate(25.84 70.44)">i</text><text transform="translate(20.875 70.44)">r</text><text transform="translate(12.584 70.44)">a</text><text transform="translate(2.64 70.44)">V</text></g><text transform="translate(2.64 106.92)"><tspan x="0" y="0" font-family="'ArialMT'" font-size="14.908">Var</tspan><tspan x="23.2" y="0" font-family="'ArialMT'" font-size="14.908">i</tspan><tspan x="26.616" y="0" font-family="'ArialMT'" font-size="14.908">a</tspan><tspan x="34.818" y="0" font-family="'ArialMT'" font-size="14.908">nts</tspan><tspan x="54.705" y="0" font-family="'ArialMT'" font-size="14.908"> </tspan><tspan x="58.743" y="0" font-family="'ArialMT'" font-size="14.908">i</tspan><tspan x="62.159" y="0" font-family="'ArialMT'" font-size="14.908">n</tspan><tspan x="70.361" y="0" font-family="'ArialMT'" font-size="14.908"> E</tspan><tspan x="84.447" y="0" font-family="'ArialMT'" font-size="14.908">x</tspan><tspan x="91.603" y="0" font-family="'ArialMT'" font-size="14.908">A</tspan><tspan x="101.546" y="0" font-family="'ArialMT'" font-size="14.908">C</tspan><tspan x="112.417" y="0" font-family="'ArialMT'" font-size="14.908"> </tspan><tspan x="116.455" y="0" font-family="'ArialMT'" font-size="14.908">v</tspan><tspan x="123.909" y="0" font-family="'ArialMT'" font-size="14.908">0</tspan><tspan x="132.111" y="0" font-family="'ArialMT'" font-size="14.908">.</tspan><tspan x="136.252" y="0" font-family="'ArialMT'" font-size="14.908">3</tspan><tspan x="144.455" y="0" font-family="'ArialMT'" font-size="14.908" letter-spacing="58"> </tspan><tspan x="207.216" y="0" font-family="'ArialMT'" font-size="14.908">9</tspan><tspan x="215.417" y="0" font-family="'ArialMT'" font-size="14.908">33</tspan><tspan x="232" y="0" font-family="'ArialMT'" font-size="14.908">,</tspan><tspan x="236.038" y="0" font-family="'ArialMT'" font-size="14.908">318</tspan></text><text transform="translate(294.12 105.24)"><tspan x="0" y="0" font-family="'ArialMT'" font-size="9.378">58</tspan><tspan x="10.318" y="0" font-family="'ArialMT'" font-size="9.378">.</tspan><tspan x="12.924" y="0" font-family="'ArialMT'" font-size="9.378">8</tspan><tspan x="18.083" y="0" font-family="'ArialMT'" font-size="9.378">%</tspan></text><text transform="translate(462.24 106.92)"><tspan x="0" y="0" font-family="'ArialMT'" font-size="14.908">361</tspan><tspan x="24.874" y="0" font-family="'ArialMT'" font-size="14.908">,</tspan><tspan x="28.911" y="0" font-family="'ArialMT'" font-size="14.908">205</tspan></text><text transform="translate(562.32 105.24)"><tspan x="0" y="0" font-family="'ArialMT'" font-size="9.378">1</tspan><tspan x="5.159" y="0" font-family="'ArialMT'" font-size="9.378">.</tspan><tspan x="7.765" y="0" font-family="'ArialMT'" font-size="9.378">3</tspan><tspan x="12.924" y="0" font-family="'ArialMT'" font-size="9.378">%</tspan></text><text transform="translate(2.64 125.16)"><tspan x="0" y="0" font-family="'ArialMT'" font-size="14.908">Var</tspan><tspan x="23.2" y="0" font-family="'ArialMT'" font-size="14.908">i</tspan><tspan x="26.616" y="0" font-family="'ArialMT'" font-size="14.908">a</tspan><tspan x="34.818" y="0" font-family="'ArialMT'" font-size="14.908">nts</tspan><tspan x="54.705" y="0" font-family="'ArialMT'" font-size="14.908"> </tspan><tspan x="58.743" y="0" font-family="'ArialMT'" font-size="14.908">i</tspan><tspan x="62.159" y="0" font-family="'ArialMT'" font-size="14.908">n</tspan><tspan x="70.361" y="0" font-family="'ArialMT'" font-size="14.908"> </tspan><tspan x="74.503" y="0" font-family="'ArialMT'" font-size="14.908">d</tspan><tspan x="82.705" y="0" font-family="'ArialMT'" font-size="14.908">bS</tspan><tspan x="100.94" y="0" font-family="'ArialMT'" font-size="14.908">N</tspan><tspan x="111.811" y="0" font-family="'ArialMT'" font-size="14.908">P</tspan><tspan x="121.754" y="0" font-family="'ArialMT'" font-size="14.908" letter-spacing="81"> </tspan><tspan x="207.176" y="0" font-family="'ArialMT'" font-size="14.908">9</tspan><tspan x="215.378" y="0" font-family="'ArialMT'" font-size="14.908">36,</tspan><tspan x="236.103" y="0" font-family="'ArialMT'" font-size="14.908">4</tspan><tspan x="244.304" y="0" font-family="'ArialMT'" font-size="14.908">17</tspan></text><text transform="translate(294.12 123.48)"><tspan x="0" y="0" font-family="'ArialMT'" font-size="9.378">59</tspan><tspan x="10.318" y="0" font-family="'ArialMT'" font-size="9.378">.</tspan><tspan x="12.924" y="0" font-family="'ArialMT'" font-size="9.378">0</tspan><tspan x="18.083" y="0" font-family="'ArialMT'" font-size="9.378">%</tspan></text><text transform="translate(441.599 125.16)"><tspan x="0" y="0" font-family="'ArialMT'" font-size="14.908">22</tspan><tspan x="16.582" y="0" font-family="'ArialMT'" font-size="14.908">,</tspan><tspan x="20.62" y="0" font-family="'ArialMT'" font-size="14.908">837,563</tspan></text><text transform="translate(557.16 123.48)"><tspan x="0" y="0" font-family="'ArialMT'" font-size="9.378">81</tspan><tspan x="10.318" y="0" font-family="'ArialMT'" font-size="9.378">.</tspan><tspan x="12.924" y="0" font-family="'ArialMT'" font-size="9.378">7</tspan><tspan x="18.083" y="0" font-family="'ArialMT'" font-size="9.378">%</tspan></text><text transform="translate(2.64 143.4)"><tspan x="0" y="0" font-family="'ArialMT'" font-size="14.908">Var</tspan><tspan x="23.2" y="0" font-family="'ArialMT'" font-size="14.908">i</tspan><tspan x="26.616" y="0" font-family="'ArialMT'" font-size="14.908">a</tspan><tspan x="34.818" y="0" font-family="'ArialMT'" font-size="14.908">nts</tspan><tspan x="54.705" y="0" font-family="'ArialMT'" font-size="14.908"> </tspan><tspan x="58.743" y="0" font-family="'ArialMT'" font-size="14.908">i</tspan><tspan x="62.159" y="0" font-family="'ArialMT'" font-size="14.908">n</tspan><tspan x="70.361" y="0" font-family="'ArialMT'" font-size="14.908"> </tspan><tspan x="74.503" y="0" font-family="'ArialMT'" font-size="14.908">W</tspan><tspan x="88.813" y="0" font-family="'ArialMT'" font-size="14.908">e</tspan><tspan x="97.104" y="0" font-family="'ArialMT'" font-size="14.908">ll</tspan><tspan x="103.937" y="0" font-family="'ArialMT'" font-size="14.908">d</tspan><tspan x="112.139" y="0" font-family="'ArialMT'" font-size="14.908">erl</tspan><tspan x="128.707" y="0" font-family="'ArialMT'" font-size="14.908">y</tspan><tspan x="135.863" y="0" font-family="'ArialMT'" font-size="14.908" letter-spacing="67"> </tspan><tspan x="207.122" y="0" font-family="'ArialMT'" font-size="14.908">1</tspan><tspan x="215.324" y="0" font-family="'ArialMT'" font-size="14.908">63,733</tspan></text><text transform="translate(294.12 141.72)"><tspan x="0" y="0" font-family="'ArialMT'" font-size="9.378">10</tspan><tspan x="10.318" y="0" font-family="'ArialMT'" font-size="9.378">.</tspan><tspan x="12.924" y="0" font-family="'ArialMT'" font-size="9.378">3</tspan><tspan x="18.083" y="0" font-family="'ArialMT'" font-size="9.378">%</tspan></text><text transform="translate(441.599 143.4)"><tspan x="0" y="0" font-family="'ArialMT'" font-size="14.908">10</tspan><tspan x="16.582" y="0" font-family="'ArialMT'" font-size="14.908">,</tspan><tspan x="20.62" y="0" font-family="'ArialMT'" font-size="14.908">304,395</tspan></text><text transform="translate(557.16 141.72)"><tspan x="0" y="0" font-family="'ArialMT'" font-size="9.378">36</tspan><tspan x="10.318" y="0" font-family="'ArialMT'" font-size="9.378">.</tspan><tspan x="12.924" y="0" font-family="'ArialMT'" font-size="9.378">9</tspan><tspan x="18.083" y="0" font-family="'ArialMT'" font-size="9.378">%</tspan></text><text transform="translate(2.64 179.88)"><tspan x="0" y="0" font-family="'ArialMT'" font-size="14.908">No</tspan><tspan x="19.058" y="0" font-family="'ArialMT'" font-size="14.908">v</tspan><tspan x="26.377" y="0" font-family="'ArialMT'" font-size="14.908">e</tspan><tspan x="34.669" y="0" font-family="'ArialMT'" font-size="14.908">l</tspan><tspan x="38.085" y="0" font-family="'ArialMT'" font-size="14.908"> </tspan><tspan x="42.123" y="0" font-family="'ArialMT'" font-size="14.908">v</tspan><tspan x="49.577" y="0" font-family="'ArialMT'" font-size="14.908">a</tspan><tspan x="57.779" y="0" font-family="'ArialMT'" font-size="14.908">riants</tspan><tspan x="94.234" y="0" font-family="'ArialMT'" font-size="14.908" letter-spacing="108"> </tspan><tspan x="207.087" y="0" font-family="'ArialMT'" font-size="14.908">608,092</tspan></text><text transform="translate(294.12 178.2)"><tspan x="0" y="0" font-family="'ArialMT'" font-size="9.378">38</tspan><tspan x="10.318" y="0" font-family="'ArialMT'" font-size="9.378">.</tspan><tspan x="12.924" y="0" font-family="'ArialMT'" font-size="9.378">3</tspan><tspan x="18.083" y="0" font-family="'ArialMT'" font-size="9.378">%</tspan></text><text transform="translate(449.879 179.88)"><tspan x="0" y="0" font-family="'ArialMT'" font-size="14.908">5</tspan><tspan x="8.291" y="0" font-family="'ArialMT'" font-size="14.908">,</tspan><tspan x="12.329" y="0" font-family="'ArialMT'" font-size="14.908">065,664</tspan></text><text transform="translate(557.16 178.2)"><tspan x="0" y="0" font-family="'ArialMT'" font-size="9.378">18</tspan><tspan x="10.318" y="0" font-family="'ArialMT'" font-size="9.378">.</tspan><tspan x="12.924" y="0" font-family="'ArialMT'" font-size="9.378">2</tspan><tspan x="18.083" y="0" font-family="'ArialMT'" font-size="9.378">%</tspan></text><g font-family="'ArialMT'" font-size="14.908"><text transform="translate(255.251 198.12)">7</text><text transform="translate(246.96 198.12)">7</text><text transform="translate(238.669 198.12)">3</text><text transform="translate(234.527 198.12)">,</text><text transform="translate(226.235 198.12)">5</text><text transform="translate(217.944 198.12)">3</text><text transform="translate(59.32 198.12)"></text><text transform="translate(51.029 198.12)">5</text><text transform="translate(42.83 198.12)">0</text><text transform="translate(38.688 198.12)">.</text><text transform="translate(30.396 198.12)">0</text><text transform="translate(21.69 198.12)">&gt;</text><text transform="translate(12.584 198.12)">F</text><text transform="translate(2.64 198.12)">A</text></g><text transform="translate(299.28 196.44)"><tspan x="0" y="0" font-family="'ArialMT'" font-size="9.378">2</tspan><tspan x="5.159" y="0" font-family="'ArialMT'" font-size="9.378">.</tspan><tspan x="7.765" y="0" font-family="'ArialMT'" font-size="9.378">2</tspan><tspan x="12.924" y="0" font-family="'ArialMT'" font-size="9.378">%</tspan></text><text transform="translate(449.879 198.12)"><tspan x="0" y="0" font-family="'ArialMT'" font-size="14.908">6</tspan><tspan x="8.291" y="0" font-family="'ArialMT'" font-size="14.908">,</tspan><tspan x="12.329" y="0" font-family="'ArialMT'" font-size="14.908">247,716</tspan></text><text transform="translate(557.16 196.44)"><tspan x="0" y="0" font-family="'ArialMT'" font-size="9.378">22</tspan><tspan x="10.318" y="0" font-family="'ArialMT'" font-size="9.378">.</tspan><tspan x="12.924" y="0" font-family="'ArialMT'" font-size="9.378">4</tspan><tspan x="18.083" y="0" font-family="'ArialMT'" font-size="9.378">%</tspan></text><text transform="translate(2.64 216)"><tspan x="0" y="0" font-family="'ArialMT'" font-size="14.908">0</tspan><tspan x="8.291" y="0" font-family="'ArialMT'" font-size="14.908">.</tspan><tspan x="12.329" y="0" font-family="'ArialMT'" font-size="14.908">01&lt;A</tspan><tspan x="47.562" y="0" font-family="'ArialMT'" font-size="14.908">F</tspan><tspan x="56.802" y="0" font-family="'ArialMT'" font-size="14.908">&lt;</tspan><tspan x="65.314" y="0" font-family="'ArialMT'" font-size="14.908"> 0.</tspan><tspan x="81.89" y="0" font-family="'ArialMT'" font-size="14.908">0</tspan><tspan x="90.091" y="0" font-family="'ArialMT'" font-size="14.908">5</tspan><tspan x="98.383" y="0" font-family="'ArialMT'" font-size="14.908" letter-spacing="112"> </tspan><tspan x="215.41" y="0" font-family="'ArialMT'" font-size="14.908">20,</tspan><tspan x="236.135" y="0" font-family="'ArialMT'" font-size="14.908">5</tspan><tspan x="244.336" y="0" font-family="'ArialMT'" font-size="14.908">66</tspan></text><text transform="translate(299.28 214.92)"><tspan x="0" y="0" font-family="'ArialMT'" font-size="9.378">1</tspan><tspan x="5.159" y="0" font-family="'ArialMT'" font-size="9.378">.</tspan><tspan x="7.765" y="0" font-family="'ArialMT'" font-size="9.378">3</tspan><tspan x="12.924" y="0" font-family="'ArialMT'" font-size="9.378">%</tspan></text><text transform="translate(449.879 216)"><tspan x="0" y="0" font-family="'ArialMT'" font-size="14.908">4</tspan><tspan x="8.291" y="0" font-family="'ArialMT'" font-size="14.908">,</tspan><tspan x="12.329" y="0" font-family="'ArialMT'" font-size="14.908">795,467</tspan></text><text transform="translate(557.16 214.92)"><tspan x="0" y="0" font-family="'ArialMT'" font-size="9.378">17</tspan><tspan x="10.318" y="0" font-family="'ArialMT'" font-size="9.378">.</tspan><tspan x="12.924" y="0" font-family="'ArialMT'" font-size="9.378">2</tspan><tspan x="18.083" y="0" font-family="'ArialMT'" font-size="9.378">%</tspan></text><text transform="translate(228.36 14.16)"><tspan x="0" y="0" font-family="'ArialMT'" font-size="14.908">W</tspan><tspan x="14.459" y="0" font-family="'ArialMT'" font-size="14.908">E</tspan><tspan x="24.313" y="0" font-family="'ArialMT'" font-size="14.908">S (case</tspan><tspan x="74.854" y="0" font-family="'ArialMT'" font-size="14.908">/</tspan><tspan x="78.892" y="0" font-family="'ArialMT'" font-size="14.908">contr</tspan><tspan x="112.035" y="0" font-family="'ArialMT'" font-size="14.908">o</tspan><tspan x="120.236" y="0" font-family="'ArialMT'" font-size="14.908">l</tspan><tspan x="123.653" y="0" font-family="'ArialMT'" font-size="14.908">)</tspan><tspan x="128.618" y="0" font-family="'ArialMT'" font-size="14.908" letter-spacing="122"> </tspan><tspan x="255.336" y="0" font-family="'ArialMT'" font-size="14.908">W</tspan><tspan x="269.646" y="0" font-family="'ArialMT'" font-size="14.908">GS (</tspan><tspan x="300.292" y="0" font-family="'ArialMT'" font-size="14.908">f</tspan><tspan x="304.329" y="0" font-family="'ArialMT'" font-size="14.908">ami</tspan><tspan x="328.352" y="0" font-family="'ArialMT'" font-size="14.908">l</tspan><tspan x="331.768" y="0" font-family="'ArialMT'" font-size="14.908">y</tspan><tspan x="338.79" y="0" font-family="'ArialMT'" font-size="14.908">-</tspan><tspan x="343.754" y="0" font-family="'ArialMT'" font-size="14.908">b</tspan><tspan x="351.956" y="0" font-family="'ArialMT'" font-size="14.908">ased</tspan><tspan x="384.284" y="0" font-family="'ArialMT'" font-size="14.908">)</tspan><tspan x="389.338" y="0" font-family="'ArialMT'" font-size="14.908"></tspan></text><path fill-rule="evenodd" clip-rule="evenodd" d="M0 220.2h683.64v1.8H0v-1.8zM167.88 19.68h515.76v.84H167.88v-.84zm0-1.8h515.76v.84H167.88v-.84zm0-17.88h515.76v.84H167.88V0z"/></svg>